<svg width="20" height="20" viewBox="0 0 20 20" fill="none" xmlns="http://www.w3.org/2000/svg">
<path d="M10 0C8.02219 0 6.08879 0.58649 4.4443 1.6853C2.79981 2.78412 1.51809 4.3459 0.761209 6.17317C0.00433281 8.00043 -0.193701 10.0111 0.192152 11.9509C0.578004 13.8907 1.53041 15.6725 2.92894 17.0711C4.32746 18.4696 6.10929 19.422 8.0491 19.8079C9.98891 20.1937 11.9996 19.9957 13.8268 19.2388C15.6541 18.4819 17.2159 17.2002 18.3147 15.5557C19.4135 13.9112 20 11.9778 20 10C20 7.34783 18.9464 4.8043 17.0711 2.92893C15.1957 1.05357 12.6522 0 10 0V0ZM13.8709 13.7082C13.4149 12.2903 12.2806 11.1925 10.7799 11.0433V13.7082H10.5485C6.46418 13.7082 4.13508 10.909 4.03806 6.25H6.08359C6.15075 9.6694 7.65896 11.1179 8.85374 11.4164V6.25H10.7799V9.19925C11.9597 9.07164 13.1985 7.72836 13.6157 6.25H15.5418C15.2209 8.07164 13.8769 9.41567 12.9209 9.96791C13.8769 10.4157 15.4075 11.5881 15.9896 13.7082H13.8709Z" fill="#D9D9D9"/>
</svg>
