<svg width="146" height="40" viewBox="0 0 146 40" fill="none" xmlns="http://www.w3.org/2000/svg">
<path d="M82.6348 12.1747C82.6348 14.9431 80.2147 16.7887 76.7949 16.7887H68.8398V0.09375H76.2687C79.5307 0.09375 81.8877 1.86399 81.8877 4.46286C81.9016 5.18254 81.7037 5.89283 81.3141 6.5225C80.9244 7.15217 80.3565 7.67909 79.6675 8.05043C80.5657 8.39425 81.3283 8.9708 81.8571 9.70584C82.386 10.4409 82.6568 11.3007 82.6348 12.1747ZM72.0492 7.01465H75.7637C77.6051 7.01465 78.6152 6.15778 78.6152 4.68885C78.6152 3.21993 77.4473 2.47605 75.7637 2.47605H72.0492V7.01465ZM79.415 11.8734C79.4204 11.5272 79.3434 11.184 79.1891 10.8665C79.0348 10.549 78.8067 10.2646 78.52 10.0321C78.2333 9.79961 77.8946 9.62441 77.5264 9.51814C77.1582 9.41188 76.7689 9.37698 76.3845 9.41578H72.0492V14.4064H76.2582C76.6544 14.4482 77.056 14.4135 77.4359 14.3046C77.8158 14.1956 78.1652 14.015 78.4605 13.7749C78.7557 13.5348 78.9899 13.2408 79.1473 12.9128C79.3047 12.5848 79.3816 12.2303 79.3729 11.8734H79.415Z" fill="white"/>
<path d="M100.205 16.7133V16.7887H96.5328L92.1449 10.4516H89.3249V16.7887H86.084V0.09375H93.4497C97.1537 0.09375 99.7632 2.3348 99.7632 5.30091C99.7637 6.42331 99.3381 7.51257 98.5561 8.39019C97.7742 9.26781 96.6824 9.88175 95.4595 10.1314L100.205 16.7133ZM93.0814 8.05043C95.1859 8.05043 96.4802 6.99582 96.4802 5.34799C96.4787 4.9662 96.389 4.58882 96.2167 4.23955C96.0444 3.89029 95.7933 3.57669 95.479 3.31847C95.1647 3.06024 94.7942 2.86298 94.3907 2.73907C93.9871 2.61516 93.5593 2.56729 93.1341 2.59846H89.3249V8.05043H93.0814Z" fill="white"/>
<path d="M119.812 16.7137V16.7891H116.444L114.908 13.7665H106.185L104.649 16.7891H101.25V16.7326L110.057 0H111.046L119.812 16.7137ZM109.289 7.53296L107.258 11.516H113.835L111.804 7.53296C111.373 6.65725 110.983 5.77213 110.552 4.7081C110.11 5.74388 109.721 6.59134 109.289 7.53296Z" fill="white"/>
<path d="M122.23 0.09375H125.461V16.7887H122.23V0.09375Z" fill="white"/>
<path d="M146.001 0.094162V16.8832H144.738L134.689 7.04331C134.215 6.60075 133.637 6.1017 133.121 5.51789C133.121 6.13936 133.237 6.75141 133.237 7.33522V16.7514H130.08V0H131.311L141.002 9.5951C141.602 10.1601 142.234 10.7439 142.865 11.3842C142.812 10.5744 142.781 9.83992 142.781 9.15254V0.094162H146.001Z" fill="white"/>
<path d="M68.3184 37.5412L69.8231 35.2813C71.2877 36.4039 73.1559 37.0157 75.0843 37.0045C76.9573 37.0045 78.5673 36.2417 78.5673 34.7634C78.5673 33.2851 76.6522 32.5318 74.5372 31.9385C71.3804 30.9969 68.9708 29.5092 68.9708 26.8632C68.9708 23.9159 71.8224 22.2681 75.2001 22.2681C77.3695 22.2472 79.4909 22.8405 81.261 23.963L79.8931 26.0911C78.5743 25.2574 77.004 24.8011 75.3895 24.7822C73.748 24.7822 72.2959 25.4225 72.2959 26.6655C72.2959 28.1909 74.1899 28.8218 76.105 29.415C79.3459 30.3566 81.8608 31.7502 81.8608 34.5939C81.8608 37.7107 78.9356 39.5468 75.2316 39.5468C72.7405 39.5943 70.3045 38.8876 68.3184 37.5412Z" fill="white"/>
<path d="M101.56 39.2935V39.3595H98.1828L96.6465 36.3463H87.9339L86.3976 39.3595H82.9883L91.7956 22.5986H92.7847L101.56 39.2935ZM91.038 30.0845L89.0072 34.0581H95.5942L93.5739 30.1316C93.132 29.2465 92.7532 28.3708 92.3112 27.3067C91.8482 28.3237 91.4694 29.19 91.0275 30.1316L91.038 30.0845Z" fill="white"/>
<path d="M103.967 22.6738H107.25V36.7228H115.342V39.3593H103.967V22.6738Z" fill="white"/>
<path d="M130.232 36.8075V39.3593H118.258V22.6738H129.99V25.2256H121.488V29.6418H128.917V32.1277H121.488V36.8358L130.232 36.8075Z" fill="white"/>
<path d="M0 0L7.9971 40H26.8429V26.2806H40.8694L50.95 0H0Z" fill="white"/>
</svg>
