<svg width="941" height="797" viewBox="0 0 941 797" fill="none" xmlns="http://www.w3.org/2000/svg">




<g clip-path="url(#clip0_3629_2567)">
<path d="M634.863 347.271C694.552 691.41 601.789 654.767 483.381 666.913C356.47 679.873 136.013 550.641 103.58 398.996C71.1469 247.351 242.477 322.34 391.421 287.76C507.074 260.866 574.359 -1.57709 634.863 347.271Z" stroke="#6780FF" stroke-linecap="round" stroke-linejoin="round"/>
<path d="M632.244 347.832C690.209 684.169 598.803 651.362 481.932 663.606C356.812 676.637 145.742 547.364 108.932 399.792C72.1211 252.22 240.258 317.492 386.692 283.545C500.957 257.057 573.49 7.16616 632.244 347.832Z" stroke="#6780FF" stroke-linecap="round" stroke-linejoin="round"/>
<path d="M629.623 348.393C685.878 676.924 595.816 647.956 480.468 660.301C357.194 673.391 155.454 544.077 114.267 400.646C73.0799 257.214 238.009 312.704 381.944 279.375C494.761 253.265 572.638 15.9322 629.623 348.393Z" stroke="#6780FF" stroke-linecap="round" stroke-linejoin="round"/>
<path d="M627 348.954C681.493 669.635 592.829 644.496 479.03 656.935C357.48 670.166 165.177 540.787 119.655 401.502C74.4011 262.242 235.817 307.877 377.245 275.194C488.601 249.465 571.773 24.7149 627 348.954Z" stroke="#6780FF" stroke-linecap="round" stroke-linejoin="round"/>
<path d="M624.378 349.514C677.187 662.385 589.841 641.09 477.54 653.636C357.781 666.937 174.888 537.499 125.003 402.352C75.4469 267.259 233.596 303.096 372.52 271.004C482.444 245.665 570.935 33.5465 624.378 349.514Z" stroke="#6780FF" stroke-linecap="round" stroke-linejoin="round"/>
<path d="M621.77 350.071C672.853 655.195 586.865 637.737 476.086 650.383C358.149 663.694 184.615 534.221 130.364 403.2C76.5818 272.243 231.373 298.303 367.784 266.83C476.286 241.864 570.055 42.2492 621.77 350.071Z" stroke="#6780FF" stroke-linecap="round" stroke-linejoin="round"/>
<path d="M619.15 350.632C668.51 647.953 583.893 634.329 474.615 647.04C358.478 660.461 194.336 530.905 135.727 404.048C77.6659 277.239 229.111 293.518 363.026 262.676C470.13 238.064 569.204 51.0159 619.15 350.632Z" stroke="#6780FF" stroke-linecap="round" stroke-linejoin="round"/>
<path d="M616.526 351.193C664.163 640.656 580.904 630.869 473.142 643.709C358.819 657.237 204.05 527.644 141.046 404.905C78.7613 282.246 226.935 288.701 358.343 258.505C463.972 234.277 568.351 59.7956 616.526 351.193Z" stroke="#6780FF" stroke-linecap="round" stroke-linejoin="round"/>
<path d="M613.908 351.754C659.832 633.467 577.931 627.516 471.771 640.44C359.15 654.003 213.52 524.505 146.449 405.745C79.6029 287.39 224.73 283.919 353.623 254.329C457.818 230.477 567.488 68.5647 613.908 351.754Z" stroke="#6780FF" stroke-linecap="round" stroke-linejoin="round"/>
<path d="M611.286 352.314C655.502 626.235 574.943 624.11 470.24 637.149C359.49 650.766 223.221 521.233 151.804 406.566C80.6881 292.468 222.503 279.112 348.887 250.156C451.659 226.676 566.635 77.3306 611.286 352.314Z" stroke="#6780FF" stroke-linecap="round" stroke-linejoin="round"/>
<path d="M608.664 352.876C651.14 618.915 571.971 620.716 468.775 633.845C359.828 647.585 232.948 518.025 157.244 407.466C81.8225 297.453 220.342 274.292 344.235 245.993C445.501 222.876 565.768 86.1002 608.664 352.876Z" stroke="#6780FF" stroke-linecap="round" stroke-linejoin="round"/>
<path d="M606.041 353.436C646.821 611.736 568.965 617.231 467.31 630.54C360.155 644.351 242.651 514.766 162.531 408.357C82.8378 302.462 218.068 269.523 339.44 241.804C439.342 219.075 564.917 94.8791 606.041 353.436Z" stroke="#6780FF" stroke-linecap="round" stroke-linejoin="round"/>
<path d="M603.422 353.996C642.467 604.441 565.983 613.838 465.85 627.179C360.487 641.061 252.372 511.449 167.883 409.152C83.9172 307.431 215.847 264.73 334.719 237.628C433.187 215.275 564.054 103.648 603.422 353.996Z" stroke="#6780FF" stroke-linecap="round" stroke-linejoin="round"/>
<path d="M600.797 354.558C638.118 597.2 563.008 610.444 464.382 623.876C360.811 637.828 262.08 508.162 173.241 410.001C85.0099 312.494 213.653 259.903 329.983 233.468C427.034 211.515 563.198 112.415 600.797 354.558Z" stroke="#6780FF" stroke-linecap="round" stroke-linejoin="round"/>
<path d="M598.193 355.116C633.789 589.955 560.024 607.039 462.987 620.557C361.288 634.563 271.882 504.897 178.671 410.835C86.1145 317.513 211.41 255.129 325.264 229.292C420.871 207.675 562.336 121.184 598.193 355.116Z" stroke="#6780FF" stroke-linecap="round" stroke-linejoin="round"/>
<path d="M595.569 355.676C629.453 582.766 557.059 603.683 461.426 617.327C361.454 631.418 281.522 501.735 183.936 411.758C87.2137 322.533 209.184 250.335 320.552 225.113C414.715 203.888 561.484 129.963 595.569 355.676Z" stroke="#6780FF" stroke-linecap="round" stroke-linejoin="round"/>
<path d="M592.948 356.236C625.121 575.521 554.071 600.277 460.014 614.011C361.825 628.133 291.296 498.419 189.336 412.597C88.3249 327.535 206.974 245.539 315.816 220.94C408.557 200.087 560.618 138.732 592.948 356.236Z" stroke="#6780FF" stroke-linecap="round" stroke-linejoin="round"/>
<path d="M590.327 356.797C620.777 568.28 551.098 596.869 458.551 610.706C362.165 624.952 301.024 495.143 194.701 413.459C89.4243 332.542 204.751 240.746 311.081 216.767C402.387 196.29 559.766 147.499 590.327 356.797Z" stroke="#6780FF" stroke-linecap="round" stroke-linejoin="round"/>
<path d="M587.704 357.358C616.432 560.982 548.098 593.412 457.074 607.349C362.494 621.662 310.749 491.797 200.05 414.254C90.5343 337.546 202.537 235.937 306.351 212.565C396.228 192.49 558.902 156.281 587.704 357.358Z" stroke="#6780FF" stroke-linecap="round" stroke-linejoin="round"/>
<path d="M585.084 357.918C612.099 553.792 545.122 590.058 455.622 604.096C362.825 618.441 320.499 488.556 205.41 415.157C91.6465 342.548 200.308 231.117 301.638 208.428C390.071 188.689 558.05 165.046 585.084 357.918Z" stroke="#6780FF" stroke-linecap="round" stroke-linejoin="round"/>
<path d="M582.463 358.479C607.754 546.551 542.148 586.651 454.17 600.79C363.174 615.244 330.279 485.268 210.771 416.006C92.8193 347.581 198.102 226.404 296.926 204.305C383.913 184.889 557.197 173.813 582.463 358.479Z" stroke="#6780FF" stroke-linecap="round" stroke-linejoin="round"/>
<path d="M579.842 359.04C603.423 539.307 539.162 583.245 452.707 597.485C363.517 612.007 339.991 481.98 216.133 416.854C93.8785 352.527 195.881 221.555 292.194 200.076C377.757 181.089 556.333 182.582 579.842 359.04Z" stroke="#6780FF" stroke-linecap="round" stroke-linejoin="round"/>
<path d="M577.219 359.6C599.075 532.065 536.159 579.842 451.241 594.18C363.837 608.747 349.724 478.674 221.495 417.715C94.9848 357.517 193.653 216.749 287.47 195.969C371.597 177.288 555.481 191.362 577.219 359.6Z" stroke="#6780FF" stroke-linecap="round" stroke-linejoin="round"/>
<path d="M574.61 360.158C594.731 524.767 533.186 576.379 449.738 590.829C364.158 605.487 359.57 475.055 226.907 418.483C96.2003 362.237 191.428 211.956 282.732 191.727C365.441 173.501 554.614 200.131 574.61 360.158Z" stroke="#6780FF" stroke-linecap="round" stroke-linejoin="round"/>
<path d="M571.99 360.719C590.385 517.581 530.211 573.026 448.312 587.571C364.498 602.305 369.297 471.833 232.204 419.414C97.2997 367.243 189.219 207.16 278.076 187.537C359.285 169.701 553.763 208.897 571.99 360.719Z" stroke="#6780FF" stroke-linecap="round" stroke-linejoin="round"/>
<path d="M569.369 361.279C586.107 510.393 527.237 569.617 446.847 584.197C364.823 598.989 379.007 468.476 237.565 420.193C98.3823 372.238 186.987 202.327 273.291 183.387C353.127 165.9 552.886 217.613 569.369 361.279Z" stroke="#6780FF" stroke-linecap="round" stroke-linejoin="round"/>
<path d="M566.747 361.84C581.718 503.078 524.26 566.265 445.397 580.958C365.18 595.831 388.746 465.252 242.926 421.11C99.4802 377.244 184.785 197.571 268.555 179.214C347.022 162.088 552.047 226.445 566.747 361.84Z" stroke="#6780FF" stroke-linecap="round" stroke-linejoin="round"/>
<path d="M564.126 362.401C577.357 495.757 521.27 562.778 443.935 577.598C365.497 592.545 398.446 461.912 248.277 421.906C100.576 382.238 182.559 192.765 263.833 175.039C340.812 158.299 551.182 235.214 564.126 362.401Z" stroke="#6780FF" stroke-linecap="round" stroke-linejoin="round"/>
<path d="M561.502 362.962C573.042 488.605 518.288 559.412 442.479 574.347C365.794 589.372 408.18 458.675 253.647 422.807C101.659 387.247 180.36 187.966 259.108 170.863C334.652 154.499 550.327 243.981 561.502 362.962Z" stroke="#6780FF" stroke-linecap="round" stroke-linejoin="round"/>
<path d="M558.881 363.522C568.686 481.31 515.29 555.953 441.004 570.989C366.167 586.086 417.896 455.344 258.997 423.601C102.832 392.278 178.124 183.175 254.333 166.697C328.495 150.698 549.458 252.736 558.881 363.522Z" stroke="#6780FF" stroke-linecap="round" stroke-linejoin="round"/>
<path d="M556.261 364.082C564.366 474.118 512.328 552.598 439.552 567.737C366.52 582.902 427.62 452.109 264.37 424.502C103.85 397.288 175.926 178.432 249.675 162.563C322.339 146.898 548.613 261.529 556.261 364.082Z" stroke="#6780FF" stroke-linecap="round" stroke-linejoin="round"/>
<path d="M553.651 364.64C560.019 466.876 509.339 549.193 438.099 564.429C366.859 579.666 437.331 448.766 269.706 425.369C104.961 402.236 173.678 173.534 244.917 158.297C316.157 143.061 547.758 270.295 553.651 364.64Z" stroke="#6780FF" stroke-linecap="round" stroke-linejoin="round"/>
<path d="M432.453 142.235C574.057 104.122 659.134 182.054 671.536 287.512C679.117 351.811 626.729 422.731 598.574 520.259C543.894 709.601 334.917 636.556 314.728 520.645" stroke="#0AB4AA" stroke-miterlimit="10"/>
<path d="M432.457 142.235C562.723 107.73 650.952 184.425 666.191 286.208C675.628 349.201 628.526 418.62 603.068 516.712C554.536 703.694 341.263 633.233 321.986 522.877" stroke="#0AB4AA" stroke-miterlimit="10"/>
<path d="M432.457 142.235C551.378 111.298 642.831 186.836 660.833 284.919C672.15 346.657 630.261 414.493 607.534 513.185C565.04 697.734 347.593 629.981 329.31 525.107" stroke="#0AB4AA" stroke-miterlimit="10"/>
<path d="M432.456 142.235C540.048 114.946 634.801 189.296 655.42 283.641C668.666 344.156 631.927 410.312 611.96 509.665C575.385 691.683 353.874 626.698 336.542 527.302" stroke="#0AB4AA" stroke-miterlimit="10"/>
<path d="M432.454 142.235C528.712 118.566 626.858 191.778 650.083 282.334C665.308 341.668 633.638 406.08 616.477 506.126C585.71 685.54 360.264 623.349 343.872 529.571" stroke="#0AB4AA" stroke-miterlimit="10"/>
<path d="M432.456 142.235C517.389 122.171 619.019 194.28 644.713 281.048C661.957 339.262 635.249 401.815 620.946 502.598C595.86 679.338 366.546 620.122 351.146 531.758" stroke="#0AB4AA" stroke-miterlimit="10"/>
<path d="M432.454 142.234C506.076 125.773 611.291 196.799 639.349 279.745C658.644 336.793 636.82 397.517 625.41 499.071C605.885 673.081 372.866 616.83 358.439 534.049" stroke="#0AB4AA" stroke-miterlimit="10"/>
<path d="M432.456 142.235C494.715 129.387 603.68 199.335 633.979 278.46C655.395 334.407 638.32 393.18 629.892 495.54C615.778 666.77 379.192 613.551 365.723 536.275" stroke="#0AB4AA" stroke-miterlimit="10"/>
<path d="M432.456 142.235C483.378 132.995 596.175 201.862 628.604 277.161C652.219 331.991 639.758 388.828 634.355 492C625.536 660.419 385.513 610.26 373.007 538.514" stroke="#0AB4AA" stroke-miterlimit="10"/>
<path d="M432.456 142.235C472.054 136.6 588.882 204.412 623.232 275.875C649.102 329.59 641.125 384.464 638.83 488.512C635.16 654.082 391.846 607.021 380.296 540.779" stroke="#0AB4AA" stroke-miterlimit="10"/>
<path d="M432.456 142.234C460.717 140.207 581.554 206.86 617.796 274.547C646.006 327.157 642.344 380.048 643.214 484.918C644.579 647.624 398.072 603.667 387.498 542.953" stroke="#0AB4AA" stroke-miterlimit="10"/>
<path d="M432.454 142.235C449.325 143.826 574.416 209.308 612.496 273.287C643.132 324.745 643.627 375.688 647.766 481.414C654 641.248 404.469 600.414 394.854 545.217" stroke="#0AB4AA" stroke-miterlimit="10"/>
<path d="M432.455 142.234C438.042 147.423 567.393 211.759 607.134 272.041C640.275 322.33 644.755 371.293 652.245 477.938C663.252 634.909 410.803 597.175 402.147 547.495" stroke="#0AB4AA" stroke-miterlimit="10"/>
<path d="M432.453 142.235C426.703 151.03 560.448 214.015 601.815 270.688C637.552 319.72 645.816 366.925 656.764 474.344C672.411 628.465 417.177 593.817 409.484 549.668" stroke="#0AB4AA" stroke-miterlimit="10"/>
<path d="M432.454 142.234C415.38 154.635 553.615 216.26 596.388 269.4C634.78 317.121 646.749 362.585 661.179 470.827C681.325 622.088 423.508 590.564 416.701 551.907" stroke="#0AB4AA" stroke-miterlimit="10"/>
<path d="M432.453 142.234C404.055 158.24 546.841 218.41 591.016 268.114C632.163 314.421 647.609 358.301 665.633 467.247C690.217 615.812 429.757 587.26 423.984 554.146" stroke="#0AB4AA" stroke-miterlimit="10"/>
<path d="M432.456 142.234C392.707 161.85 540.105 220.456 585.644 266.815C629.661 311.6 648.369 353.985 670.111 463.759C699.007 609.557 436.069 583.971 431.271 556.384" stroke="#0AB4AA" stroke-miterlimit="10"/>
<path d="M432.455 142.234C381.369 165.458 533.459 222.428 580.271 265.529C627.082 308.63 649.031 349.744 674.59 460.229C707.683 603.369 442.392 580.693 438.551 558.611" stroke="#0AB4AA" stroke-miterlimit="10"/>
<path d="M432.455 142.235C370.048 169.077 526.774 224.216 574.909 264.228C624.689 305.621 649.611 345.562 679.056 456.701C716.304 597.302 448.647 577.416 445.834 560.85" stroke="#0AB4AA" stroke-miterlimit="10"/>
<path d="M432.454 142.234C358.71 172.684 520.102 226 569.536 262.941C622.279 302.407 650.093 341.442 683.519 453.16C724.815 591.175 455.034 574.11 453.115 563.075" stroke="#0AB4AA" stroke-miterlimit="10"/>
<path d="M432.454 142.234C347.373 176.292 513.38 227.548 564.161 261.642C619.897 299.065 650.494 337.394 687.988 449.646C733.295 585.221 461.359 570.831 460.399 565.314" stroke="#0AB4AA" stroke-miterlimit="10"/>
<path d="M432.454 142.234C336.035 179.9 506.62 229.049 558.792 260.369C617.501 295.588 650.817 333.432 692.47 446.128C741.712 579.363 467.725 567.557 467.725 567.557" stroke="#0AB4AA" stroke-miterlimit="10"/>
<path d="M175.569 275.05C327.492 18.0152 463.031 133.508 539.07 187.278C620.594 244.924 679.688 444.708 616.297 561.245C552.906 677.782 387.154 621.726 281.003 566.803C198.533 524.12 21.4784 535.603 175.569 275.05Z" stroke="#BA90FF" stroke-linecap="round" stroke-linejoin="round"/>
<path d="M179.54 272.165C330.439 20.1364 461.62 138.309 536.829 191.225C617.328 247.879 678.879 435.321 620.29 551.381C561.701 667.441 387.492 625.368 280.334 571.664C198.412 530.639 25.3228 528.714 179.54 272.165Z" stroke="#BA90FF" stroke-linecap="round" stroke-linejoin="round"/>
<path d="M183.562 269.268C333.359 22.2622 460.221 143.105 534.56 195.175C614.05 250.849 678.026 425.86 624.245 541.538C570.465 657.216 387.818 628.956 279.554 576.521C198.258 537.136 29.163 521.812 183.562 269.268Z" stroke="#BA90FF" stroke-linecap="round" stroke-linejoin="round"/>
<path d="M187.58 266.359C336.94 24.7841 458.807 147.906 532.339 199.103C610.819 253.851 677.233 416.496 628.266 531.681C579.298 646.867 388.225 632.542 278.854 581.375C198.129 543.629 33.6551 515.321 187.58 266.359Z" stroke="#BA90FF" stroke-linecap="round" stroke-linejoin="round"/>
<path d="M191.603 263.463C340.053 27.035 457.417 152.743 530.097 203.049C607.568 256.816 676.435 407.162 632.248 521.833C587.863 636.355 388.622 636.076 278.212 586.231C198.023 550.09 37.7067 508.567 191.603 263.463Z" stroke="#BA90FF" stroke-linecap="round" stroke-linejoin="round"/>
<path d="M195.626 260.567C343.153 29.2879 455.984 157.506 527.856 206.995C604.304 259.715 675.678 397.694 636.258 512.047C596.657 626.069 389.063 639.681 277.45 591.167C197.928 556.534 41.7274 501.792 195.626 260.567Z" stroke="#BA90FF" stroke-linecap="round" stroke-linejoin="round"/>
<path d="M199.65 257.67C346.263 31.5254 454.587 162.304 525.613 210.928C601.038 262.669 674.793 388.268 640.241 502.131C605.396 615.657 389.5 643.137 276.739 595.955C197.857 562.96 45.751 495.03 199.65 257.67Z" stroke="#BA90FF" stroke-linecap="round" stroke-linejoin="round"/>
<path d="M203.673 254.774C349.363 33.7793 453.191 167.114 523.371 214.874C597.838 265.61 673.967 378.802 644.223 492.283C614.133 605.301 389.934 646.649 276.002 600.818C197.792 569.357 49.7577 488.258 203.673 254.774Z" stroke="#BA90FF" stroke-linecap="round" stroke-linejoin="round"/>
<path d="M207.691 251.865C352.426 35.9988 451.778 171.915 521.125 218.807C594.52 268.589 673.191 369.448 648.201 482.421C622.884 594.956 390.414 650.122 275.29 605.675C197.749 575.735 53.7469 481.476 207.691 251.865Z" stroke="#BA90FF" stroke-linecap="round" stroke-linejoin="round"/>
<path d="M211.714 248.968C355.477 38.2209 450.379 176.712 518.817 222.767C591.24 271.547 672.514 360.101 652.144 472.581C631.828 584.665 390.864 653.644 274.529 610.555C197.718 582.097 57.7243 474.696 211.714 248.968Z" stroke="#BA90FF" stroke-linecap="round" stroke-linejoin="round"/>
<path d="M215.738 246.071C358.519 40.459 448.982 181.509 516.65 226.738C588.012 274.548 671.801 350.706 656.189 462.761C640.653 574.331 391.43 657.058 273.88 615.44C197.696 588.429 61.687 467.906 215.738 246.071Z" stroke="#BA90FF" stroke-linecap="round" stroke-linejoin="round"/>
<path d="M219.723 243.184C361.513 42.6665 447.518 186.32 514.359 230.64C584.717 277.495 670.952 341.259 660.138 452.878C649.369 563.938 391.906 660.437 273.123 620.266C197.698 594.743 65.6498 461.116 219.723 243.184Z" stroke="#BA90FF" stroke-linecap="round" stroke-linejoin="round"/>
<path d="M223.783 240.279C364.557 44.8625 446.157 191.109 512.142 234.58C581.483 280.415 670.185 331.82 664.171 443.019C658.17 553.568 392.489 663.819 272.476 625.108C197.704 601.028 69.5802 454.318 223.783 240.279Z" stroke="#BA90FF" stroke-linecap="round" stroke-linejoin="round"/>
<path d="M227.794 237.372C367.55 47.0567 444.749 195.909 509.903 238.526C578.222 283.383 669.387 322.404 668.118 433.179C666.857 543.223 393.057 667.165 271.703 629.979C197.726 607.297 73.5133 447.507 227.794 237.372Z" stroke="#BA90FF" stroke-linecap="round" stroke-linejoin="round"/>
<path d="M231.815 234.477C370.523 49.2415 443.35 200.708 507.657 242.46C574.981 286.333 668.568 312.978 672.124 423.257C675.658 532.854 393.627 670.483 271.02 634.844C197.75 613.538 77.3731 440.699 231.815 234.477Z" stroke="#BA90FF" stroke-linecap="round" stroke-linejoin="round"/>
<path d="M235.839 231.58C373.483 51.4145 441.953 205.573 505.417 246.405C571.716 289.287 667.791 303.542 676.151 413.482C684.455 522.512 394.319 673.774 270.342 639.721C197.788 619.761 81.2983 433.861 235.839 231.58Z" stroke="#BA90FF" stroke-linecap="round" stroke-linejoin="round"/>
<path d="M239.86 228.684C376.423 53.5781 440.525 210.308 503.172 250.352C568.462 292.252 666.934 294.137 680.115 403.623C693.167 512.12 394.815 677.01 269.584 644.56C197.816 625.959 85.1641 427.023 239.86 228.684Z" stroke="#BA90FF" stroke-linecap="round" stroke-linejoin="round"/>
<path d="M243.881 225.774C379.376 55.7252 439.127 215.105 500.929 254.285C565.197 295.206 666.117 284.71 684.096 393.762C701.918 501.76 395.46 680.215 268.874 649.416C197.868 632.124 89.0176 420.173 243.881 225.774Z" stroke="#BA90FF" stroke-linecap="round" stroke-linejoin="round"/>
<path d="M247.904 222.878C382.26 57.8734 437.716 219.905 498.687 258.231C561.946 298.171 665.286 275.286 688.118 383.905C710.681 491.399 396.07 683.386 268.189 654.267C197.916 638.277 92.8542 413.314 247.904 222.878Z" stroke="#BA90FF" stroke-linecap="round" stroke-linejoin="round"/>
<path d="M251.955 219.976C385.183 60.0002 436.348 224.71 496.536 262.144C558.773 301.107 664.549 265.842 692.168 374.043C719.48 481.002 396.765 686.498 267.546 659.11C197.977 644.413 96.6605 406.434 251.955 219.976Z" stroke="#BA90FF" stroke-linecap="round" stroke-linejoin="round"/>
<path d="M255.949 217.085C388.029 62.1139 434.934 229.51 494.2 266.109C555.425 304.078 663.626 256.45 696.066 364.197C728.111 470.681 397.302 689.601 266.741 663.986C198.014 650.526 100.46 399.54 255.949 217.085Z" stroke="#BA90FF" stroke-linecap="round" stroke-linejoin="round"/>
<path d="M259.98 214.228C390.836 64.2241 433.509 234.313 491.958 270.056C552.214 307.035 662.795 247.026 700.088 354.341C736.887 460.317 397.992 692.7 266.059 668.85C198.113 656.654 104.279 392.602 259.98 214.228Z" stroke="#BA90FF" stroke-linecap="round" stroke-linejoin="round"/>
<path d="M263.993 211.279C393.717 66.2899 432.099 239.113 489.714 273.988C548.909 309.997 661.955 237.618 704.045 344.498C745.572 449.972 398.578 695.629 265.31 673.715C198.161 662.669 107.965 385.678 263.993 211.279Z" stroke="#BA90FF" stroke-linecap="round" stroke-linejoin="round"/>
<path d="M268.014 208.383C396.524 68.3445 430.646 243.922 487.511 277.926C545.694 312.941 660.937 228.289 708.066 334.642C754.082 439.719 399.217 698.56 264.624 678.566C198.214 668.724 111.683 378.72 268.014 208.383Z" stroke="#BA90FF" stroke-linecap="round" stroke-linejoin="round"/>
<path d="M272.038 205.486C399.331 70.3854 429.288 248.711 485.217 281.883C542.391 315.917 660.083 218.883 712.049 324.793C762.859 429.354 399.876 701.445 263.892 683.386C198.277 674.749 115.378 371.712 272.038 205.486Z" stroke="#BA90FF" stroke-linecap="round" stroke-linejoin="round"/>
<path d="M276.05 202.537C402.106 72.4057 427.865 253.458 482.962 285.763C539.127 318.816 659.26 209.43 715.995 314.898C771.574 418.962 400.495 704.27 263.156 688.248C198.335 680.748 119.063 364.72 276.05 202.537Z" stroke="#BA90FF" stroke-linecap="round" stroke-linejoin="round"/>
<path d="M280.083 199.694C404.82 74.4116 426.476 258.309 480.729 289.762C535.873 321.837 658.455 200.069 720 305.1C780.323 408.672 401.126 707.038 262.465 693.211C198.388 686.735 122.708 357.681 280.083 199.694Z" stroke="#BA90FF" stroke-linecap="round" stroke-linejoin="round"/>
<path d="M284.103 196.784C407.622 76.3704 425.104 263.1 478.485 293.695C532.614 324.762 657.574 190.669 724.019 295.229C789.073 398.312 401.748 709.752 261.755 698.067C198.426 692.71 126.33 350.592 284.103 196.784Z" stroke="#BA90FF" stroke-linecap="round" stroke-linejoin="round"/>
<path d="M288.128 193.888C410.381 78.312 423.655 267.909 476.245 297.641C529.355 327.743 656.814 181.244 727.977 285.387C797.828 387.967 402.358 712.401 261.035 702.871C198.474 698.657 129.933 343.467 288.128 193.888Z" stroke="#BA90FF" stroke-linecap="round" stroke-linejoin="round"/>
<path d="M292.151 190.992C413.103 80.2203 422.257 272.707 474.003 301.587C526.104 330.709 656.007 171.87 731.96 275.539C806.567 377.624 403.031 714.968 260.311 707.731C198.556 704.583 133.564 336.294 292.151 190.992Z" stroke="#BA90FF" stroke-linecap="round" stroke-linejoin="round"/>
<path d="M296.175 188.095C415.769 82.1121 420.844 277.493 471.76 305.519C522.677 333.546 655.188 162.429 735.996 265.679C815.358 367.256 403.599 717.487 259.644 712.592C198.516 710.506 137.041 329.098 296.175 188.095Z" stroke="#BA90FF" stroke-linecap="round" stroke-linejoin="round"/>
<path d="M300.193 185.186C418.492 84.0333 419.449 282.317 469.464 309.477C519.478 336.637 654.316 153.014 739.885 255.85C824.069 356.919 404.126 719.96 258.891 717.457C198.525 716.419 140.553 321.827 300.193 185.186Z" stroke="#BA90FF" stroke-linecap="round" stroke-linejoin="round"/>
<g clip-path="url(#clip1_3629_2567)">
<path d="M93.1685 300.913C94.8345 300.556 95.8966 298.919 95.5408 297.255C95.185 295.592 93.5459 294.532 91.8799 294.888C90.2139 295.244 89.1517 296.882 89.5076 298.546C89.8634 300.209 91.5024 301.269 93.1685 300.913Z" fill="white"/>
</g>
<g clip-path="url(#clip2_3629_2567)">
<path d="M135.946 289.33C137.612 288.973 138.674 287.336 138.318 285.672C137.962 284.009 136.323 282.949 134.657 283.305C132.991 283.661 131.929 285.299 132.285 286.963C132.641 288.626 134.28 289.686 135.946 289.33Z" fill="white"/>
</g>
<g clip-path="url(#clip3_3629_2567)">
<path d="M131.364 279.18C133.03 278.824 134.092 277.186 133.736 275.523C133.38 273.859 131.741 272.799 130.075 273.156C128.409 273.512 127.347 275.149 127.703 276.813C128.059 278.477 129.698 279.537 131.364 279.18Z" fill="white"/>
</g>
<g clip-path="url(#clip4_3629_2567)">
<path d="M138.555 250.062C140.221 249.706 141.283 248.068 140.928 246.405C140.572 244.741 138.933 243.681 137.267 244.037C135.601 244.394 134.538 246.031 134.894 247.695C135.25 249.359 136.889 250.419 138.555 250.062Z" fill="white"/>
</g>
<g clip-path="url(#clip5_3629_2567)">
<path d="M146.09 238.34C147.756 237.983 148.819 236.346 148.463 234.682C148.107 233.018 146.468 231.958 144.802 232.315C143.136 232.671 142.074 234.309 142.429 235.972C142.785 237.636 144.424 238.696 146.09 238.34Z" fill="white"/>
</g>
<g clip-path="url(#clip6_3629_2567)">
<path d="M152.352 220.341C154.018 219.985 155.08 218.348 154.724 216.684C154.369 215.02 152.73 213.96 151.064 214.317C149.397 214.673 148.335 216.311 148.691 217.974C149.047 219.638 150.686 220.698 152.352 220.341Z" fill="white"/>
</g>
<g clip-path="url(#clip7_3629_2567)">
<path d="M145.684 194.062C147.35 193.706 148.412 192.068 148.056 190.405C147.701 188.741 146.062 187.681 144.396 188.037C142.729 188.394 141.667 190.031 142.023 191.695C142.379 193.359 144.018 194.419 145.684 194.062Z" fill="white"/>
</g>
<g clip-path="url(#clip8_3629_2567)">
<path d="M125.25 198.997C126.917 198.64 127.979 197.003 127.623 195.339C127.267 193.676 125.628 192.616 123.962 192.972C122.296 193.328 121.234 194.966 121.59 196.63C121.945 198.293 123.584 199.353 125.25 198.997Z" fill="white"/>
</g>
<g clip-path="url(#clip9_3629_2567)">
<path d="M126.114 258.624C127.78 258.267 128.842 256.63 128.486 254.966C128.13 253.302 126.491 252.243 124.825 252.599C123.159 252.955 122.097 254.593 122.453 256.257C122.809 257.92 124.448 258.98 126.114 258.624Z" fill="white"/>
</g>
<g clip-path="url(#clip10_3629_2567)">
<path d="M145.559 297.178C147.225 296.822 148.287 295.185 147.931 293.521C147.576 291.857 145.937 290.797 144.271 291.154C142.604 291.51 141.542 293.148 141.898 294.811C142.254 296.475 143.893 297.535 145.559 297.178Z" fill="white"/>
</g>
<g clip-path="url(#clip11_3629_2567)">
<path d="M110.375 315.089C112.042 314.732 113.104 313.095 112.748 311.431C112.392 309.767 110.753 308.707 109.087 309.064C107.421 309.42 106.359 311.058 106.715 312.721C107.07 314.385 108.709 315.445 110.375 315.089Z" fill="white"/>
</g>
<g clip-path="url(#clip12_3629_2567)">
<path d="M96.1411 324.598C97.8071 324.242 98.8693 322.604 98.5135 320.941C98.1576 319.277 96.5186 318.217 94.8526 318.574C93.1865 318.93 92.1244 320.567 92.4802 322.231C92.836 323.895 94.4751 324.955 96.1411 324.598Z" fill="white"/>
</g>
<g clip-path="url(#clip13_3629_2567)">
<path d="M146.735 275.632C148.401 275.275 149.463 273.638 149.107 271.974C148.751 270.31 147.112 269.25 145.446 269.607C143.78 269.963 142.718 271.601 143.074 273.264C143.43 274.928 145.069 275.988 146.735 275.632Z" fill="white"/>
</g>
<g clip-path="url(#clip14_3629_2567)">
<path d="M185.973 258.972C187.639 258.616 188.701 256.978 188.345 255.315C187.99 253.651 186.351 252.591 184.685 252.948C183.019 253.304 181.956 254.941 182.312 256.605C182.668 258.269 184.307 259.329 185.973 258.972Z" fill="white"/>
</g>
<g clip-path="url(#clip15_3629_2567)">
<path d="M207.485 247.865C209.151 247.509 210.213 245.871 209.857 244.207C209.501 242.544 207.862 241.484 206.196 241.84C204.53 242.196 203.468 243.834 203.824 245.498C204.18 247.161 205.819 248.221 207.485 247.865Z" fill="white"/>
</g>
<g clip-path="url(#clip16_3629_2567)">
<path d="M220.114 246.553C221.78 246.197 222.842 244.56 222.486 242.896C222.13 241.232 220.491 240.172 218.825 240.529C217.159 240.885 216.097 242.523 216.453 244.186C216.809 245.85 218.448 246.91 220.114 246.553Z" fill="white"/>
</g>
<g clip-path="url(#clip17_3629_2567)">
<path d="M229.719 232.022C231.385 231.666 232.447 230.028 232.092 228.365C231.736 226.701 230.097 225.641 228.431 225.997C226.765 226.354 225.703 227.991 226.058 229.655C226.414 231.319 228.053 232.378 229.719 232.022Z" fill="white"/>
</g>
<g clip-path="url(#clip18_3629_2567)">
<path d="M242.661 253.754C244.327 253.397 245.389 251.76 245.033 250.096C244.677 248.432 243.038 247.373 241.372 247.729C239.706 248.085 238.644 249.723 239 251.386C239.356 253.05 240.995 254.11 242.661 253.754Z" fill="white"/>
</g>
<g clip-path="url(#clip19_3629_2567)">
<path d="M213.801 281.069C215.467 280.713 216.529 279.075 216.174 277.411C215.818 275.748 214.179 274.688 212.513 275.044C210.847 275.401 209.785 277.038 210.14 278.702C210.496 280.366 212.135 281.425 213.801 281.069Z" fill="white"/>
</g>
<g clip-path="url(#clip20_3629_2567)">
<path d="M194.176 280.892C195.842 280.536 196.904 278.898 196.549 277.235C196.193 275.571 194.554 274.511 192.888 274.868C191.222 275.224 190.16 276.861 190.515 278.525C190.871 280.189 192.51 281.249 194.176 280.892Z" fill="white"/>
</g>
<g clip-path="url(#clip21_3629_2567)">
<path d="M201.098 227.276C202.764 226.92 203.826 225.282 203.47 223.619C203.115 221.955 201.476 220.895 199.81 221.251C198.144 221.608 197.081 223.245 197.437 224.909C197.793 226.573 199.432 227.632 201.098 227.276Z" fill="white"/>
</g>
<g clip-path="url(#clip22_3629_2567)">
<path d="M212.493 218.456C214.159 218.099 215.221 216.462 214.865 214.798C214.509 213.134 212.87 212.075 211.204 212.431C209.538 212.787 208.476 214.425 208.832 216.089C209.188 217.752 210.827 218.812 212.493 218.456Z" fill="white"/>
</g>
<g clip-path="url(#clip23_3629_2567)">
<path d="M186.11 241.513C187.776 241.157 188.838 239.519 188.482 237.856C188.126 236.192 186.487 235.132 184.821 235.489C183.155 235.845 182.093 237.482 182.449 239.146C182.805 240.81 184.444 241.87 186.11 241.513Z" fill="white"/>
</g>
<g clip-path="url(#clip24_3629_2567)">
<path d="M240.688 196.868C242.354 196.512 243.416 194.874 243.06 193.21C242.705 191.547 241.065 190.487 239.399 190.843C237.733 191.199 236.671 192.837 237.027 194.501C237.383 196.164 239.022 197.224 240.688 196.868Z" fill="white"/>
</g>
<g clip-path="url(#clip25_3629_2567)">
<path d="M234.086 188.746C235.752 188.389 236.815 186.752 236.459 185.088C236.103 183.425 234.464 182.365 232.798 182.721C231.132 183.077 230.07 184.715 230.426 186.379C230.781 188.042 232.42 189.102 234.086 188.746Z" fill="white"/>
</g>
<g clip-path="url(#clip26_3629_2567)">
<path d="M264.286 157.65C265.952 157.294 267.014 155.656 266.658 153.993C266.302 152.329 264.663 151.269 262.997 151.625C261.331 151.982 260.269 153.619 260.625 155.283C260.981 156.947 262.62 158.006 264.286 157.65Z" fill="white"/>
</g>
<g clip-path="url(#clip27_3629_2567)">
<path d="M312.657 146.08C314.323 145.723 315.385 144.086 315.029 142.422C314.673 140.759 313.034 139.699 311.368 140.055C309.702 140.411 308.64 142.049 308.996 143.713C309.352 145.376 310.991 146.436 312.657 146.08Z" fill="white"/>
</g>
<g clip-path="url(#clip28_3629_2567)">
<path d="M355.086 141.765C356.752 141.409 357.815 139.771 357.459 138.108C357.103 136.444 355.464 135.384 353.798 135.741C352.132 136.097 351.07 137.734 351.426 139.398C351.781 141.062 353.42 142.122 355.086 141.765Z" fill="white"/>
</g>
<g clip-path="url(#clip29_3629_2567)">
<path d="M379.512 155.416C381.178 155.059 382.24 153.422 381.885 151.758C381.529 150.094 379.89 149.035 378.224 149.391C376.558 149.747 375.495 151.385 375.851 153.049C376.207 154.712 377.846 155.772 379.512 155.416Z" fill="white"/>
</g>
<g clip-path="url(#clip30_3629_2567)">
<path d="M319.708 123.071C321.374 122.715 322.436 121.077 322.08 119.413C321.724 117.75 320.085 116.69 318.419 117.046C316.753 117.403 315.691 119.04 316.047 120.704C316.402 122.367 318.041 123.427 319.708 123.071Z" fill="white"/>
</g>
<g clip-path="url(#clip31_3629_2567)">
<path d="M280.747 118.418C282.413 118.061 283.475 116.424 283.119 114.76C282.763 113.096 281.124 112.037 279.458 112.393C277.792 112.749 276.73 114.387 277.086 116.05C277.441 117.714 279.081 118.774 280.747 118.418Z" fill="white"/>
</g>
<g clip-path="url(#clip32_3629_2567)">
<path d="M221.692 136.591C223.358 136.235 224.42 134.598 224.064 132.934C223.708 131.27 222.069 130.21 220.403 130.567C218.737 130.923 217.675 132.561 218.031 134.224C218.387 135.888 220.026 136.948 221.692 136.591Z" fill="white"/>
</g>
<g clip-path="url(#clip33_3629_2567)">
<path d="M645.458 494.701C647.124 494.345 648.186 492.707 647.83 491.043C647.474 489.38 645.835 488.32 644.169 488.676C642.503 489.032 641.441 490.67 641.797 492.334C642.152 493.997 643.791 495.057 645.458 494.701Z" fill="white"/>
</g>
<g clip-path="url(#clip34_3629_2567)">
<path d="M636.141 493.529C637.807 493.173 638.869 491.535 638.513 489.871C638.158 488.208 636.519 487.148 634.853 487.504C633.187 487.861 632.124 489.498 632.48 491.162C632.836 492.825 634.475 493.885 636.141 493.529Z" fill="white"/>
</g>
<g clip-path="url(#clip35_3629_2567)">
<path d="M628.676 444.765C630.342 444.409 631.404 442.771 631.049 441.108C630.693 439.444 629.054 438.384 627.388 438.741C625.722 439.097 624.66 440.734 625.015 442.398C625.371 444.062 627.01 445.122 628.676 444.765Z" fill="white"/>
</g>
<g clip-path="url(#clip36_3629_2567)">
<path d="M681.727 408.065C683.393 407.709 684.455 406.071 684.099 404.408C683.744 402.744 682.105 401.684 680.439 402.04C678.772 402.397 677.71 404.034 678.066 405.698C678.422 407.362 680.061 408.421 681.727 408.065Z" fill="white"/>
</g>
<g clip-path="url(#clip37_3629_2567)">
<path d="M708.028 378.587C709.694 378.23 710.756 376.593 710.4 374.929C710.044 373.265 708.405 372.206 706.739 372.562C705.073 372.918 704.011 374.556 704.367 376.219C704.723 377.883 706.362 378.943 708.028 378.587Z" fill="white"/>
</g>
<g clip-path="url(#clip38_3629_2567)">
<path d="M691.313 282.581C692.979 282.224 694.041 280.587 693.685 278.923C693.33 277.259 691.69 276.2 690.024 276.556C688.358 276.912 687.296 278.55 687.652 280.214C688.008 281.877 689.647 282.937 691.313 282.581Z" fill="white"/>
</g>
<g clip-path="url(#clip39_3629_2567)">
<path d="M671.907 217.029C673.573 216.673 674.635 215.035 674.279 213.371C673.923 211.708 672.284 210.648 670.618 211.004C668.952 211.361 667.89 212.998 668.246 214.662C668.602 216.325 670.241 217.385 671.907 217.029Z" fill="white"/>
</g>
<g clip-path="url(#clip40_3629_2567)">
<path d="M666.579 196.763C668.245 196.407 669.307 194.769 668.951 193.106C668.595 191.442 666.956 190.382 665.29 190.739C663.624 191.095 662.562 192.732 662.918 194.396C663.274 196.06 664.913 197.12 666.579 196.763Z" fill="white"/>
</g>
<g clip-path="url(#clip41_3629_2567)">
<path d="M758.301 233.368C759.967 233.012 761.029 231.374 760.674 229.71C760.318 228.047 758.679 226.987 757.013 227.343C755.347 227.699 754.285 229.337 754.64 231.001C754.996 232.664 756.635 233.724 758.301 233.368Z" fill="white"/>
</g>
<g clip-path="url(#clip42_3629_2567)">
<path d="M807.684 296.416C809.35 296.059 810.412 294.422 810.056 292.758C809.701 291.094 808.062 290.035 806.396 290.391C804.729 290.747 803.667 292.385 804.023 294.049C804.379 295.712 806.018 296.772 807.684 296.416Z" fill="white"/>
</g>
<g clip-path="url(#clip43_3629_2567)">
<path d="M783.938 350.012C785.604 349.656 786.666 348.019 786.31 346.355C785.955 344.691 784.315 343.631 782.649 343.988C780.983 344.344 779.921 345.982 780.277 347.645C780.633 349.309 782.272 350.369 783.938 350.012Z" fill="white"/>
</g>
<g clip-path="url(#clip44_3629_2567)">
<path d="M712.848 410.915C714.514 410.558 715.576 408.921 715.22 407.257C714.865 405.593 713.226 404.534 711.56 404.89C709.894 405.246 708.831 406.884 709.187 408.548C709.543 410.211 711.182 411.271 712.848 410.915Z" fill="white"/>
</g>
<g clip-path="url(#clip45_3629_2567)">
<path d="M730.77 473.841C732.436 473.484 733.498 471.847 733.142 470.183C732.787 468.519 731.148 467.459 729.481 467.816C727.815 468.172 726.753 469.81 727.109 471.473C727.465 473.137 729.104 474.197 730.77 473.841Z" fill="white"/>
</g>
<g clip-path="url(#clip46_3629_2567)">
<path d="M777.762 410.981C779.428 410.625 780.49 408.987 780.135 407.324C779.779 405.66 778.14 404.6 776.474 404.956C774.808 405.313 773.745 406.95 774.101 408.614C774.457 410.278 776.096 411.337 777.762 410.981Z" fill="white"/>
</g>
<g clip-path="url(#clip47_3629_2567)">
<path d="M752.852 330.58C754.518 330.223 755.58 328.586 755.224 326.922C754.869 325.259 753.23 324.199 751.564 324.555C749.897 324.911 748.835 326.549 749.191 328.213C749.547 329.876 751.186 330.936 752.852 330.58Z" fill="white"/>
</g>
<g clip-path="url(#clip48_3629_2567)">
<path d="M693.735 295.586C695.401 295.229 696.463 293.592 696.107 291.928C695.751 290.264 694.112 289.205 692.446 289.561C690.78 289.917 689.718 291.555 690.074 293.218C690.43 294.882 692.069 295.942 693.735 295.586Z" fill="white"/>
</g>
<g clip-path="url(#clip49_3629_2567)">
<path d="M740.168 244.868C741.834 244.512 742.897 242.874 742.541 241.21C742.185 239.547 740.546 238.487 738.88 238.843C737.214 239.199 736.152 240.837 736.508 242.501C736.863 244.164 738.502 245.224 740.168 244.868Z" fill="white"/>
</g>
<g clip-path="url(#clip50_3629_2567)">
<path d="M783.754 274.366C785.42 274.01 786.483 272.372 786.127 270.708C785.771 269.045 784.132 267.985 782.466 268.341C780.8 268.697 779.738 270.335 780.093 271.999C780.449 273.662 782.088 274.722 783.754 274.366Z" fill="white"/>
</g>
<g clip-path="url(#clip51_3629_2567)">
<path d="M761.504 371.552C763.17 371.196 764.233 369.559 763.877 367.895C763.521 366.231 761.882 365.171 760.216 365.528C758.55 365.884 757.488 367.522 757.843 369.185C758.199 370.849 759.838 371.909 761.504 371.552Z" fill="white"/>
</g>
<g clip-path="url(#clip52_3629_2567)">
<path d="M703.7 415.541C705.366 415.184 706.428 413.547 706.072 411.883C705.716 410.219 704.077 409.16 702.411 409.516C700.745 409.872 699.683 411.51 700.039 413.174C700.395 414.837 702.034 415.897 703.7 415.541Z" fill="white"/>
</g>
<g clip-path="url(#clip53_3629_2567)">
<path d="M724.075 429.134C725.741 428.778 726.803 427.141 726.447 425.477C726.091 423.813 724.452 422.753 722.786 423.11C721.12 423.466 720.058 425.104 720.414 426.767C720.77 428.431 722.409 429.491 724.075 429.134Z" fill="white"/>
</g>
<g clip-path="url(#clip54_3629_2567)">
<path d="M713.262 261.421C714.928 261.064 715.99 259.427 715.635 257.763C715.279 256.099 713.64 255.04 711.974 255.396C710.308 255.752 709.245 257.39 709.601 259.053C709.957 260.717 711.596 261.777 713.262 261.421Z" fill="white"/>
</g>
<g clip-path="url(#clip55_3629_2567)">
<path d="M680.793 250.083C682.459 249.726 683.522 248.089 683.166 246.425C682.81 244.761 681.171 243.702 679.505 244.058C677.839 244.414 676.777 246.052 677.133 247.716C677.488 249.379 679.127 250.439 680.793 250.083Z" fill="white"/>
</g>
<g clip-path="url(#clip56_3629_2567)">
<path d="M592.485 263C594.151 262.643 595.213 261.006 594.857 259.342C594.501 257.678 592.862 256.619 591.196 256.975C589.53 257.331 588.468 258.969 588.824 260.632C589.18 262.296 590.819 263.356 592.485 263Z" fill="white"/>
</g>
<g clip-path="url(#clip57_3629_2567)">
<path d="M547.653 283.827C549.319 283.471 550.381 281.833 550.025 280.169C549.669 278.506 548.03 277.446 546.364 277.802C544.698 278.158 543.636 279.796 543.992 281.46C544.348 283.123 545.987 284.183 547.653 283.827Z" fill="white"/>
</g>
<g clip-path="url(#clip58_3629_2567)">
<path d="M530.715 285.276C532.381 284.92 533.444 283.282 533.088 281.619C532.732 279.955 531.093 278.895 529.427 279.251C527.761 279.608 526.699 281.245 527.054 282.909C527.41 284.573 529.049 285.632 530.715 285.276Z" fill="white"/>
</g>
<g clip-path="url(#clip59_3629_2567)">
<path d="M648.215 248.741C649.881 248.385 650.944 246.747 650.588 245.083C650.232 243.42 648.593 242.36 646.927 242.716C645.261 243.072 644.199 244.71 644.554 246.374C644.91 248.037 646.549 249.097 648.215 248.741Z" fill="white"/>
</g>
<g clip-path="url(#clip60_3629_2567)">
<path d="M653.567 188.996C655.233 188.639 656.295 187.002 655.939 185.338C655.583 183.675 653.944 182.615 652.278 182.971C650.612 183.327 649.55 184.965 649.906 186.629C650.262 188.292 651.901 189.352 653.567 188.996Z" fill="white"/>
</g>
<g clip-path="url(#clip61_3629_2567)">
<path d="M592.59 199.01C594.256 198.654 595.319 197.017 594.963 195.353C594.607 193.689 592.968 192.629 591.302 192.986C589.636 193.342 588.574 194.98 588.929 196.643C589.285 198.307 590.924 199.367 592.59 199.01Z" fill="white"/>
</g>
<g clip-path="url(#clip62_3629_2567)">
<path d="M570.829 217.779C572.495 217.423 573.557 215.785 573.201 214.121C572.845 212.458 571.206 211.398 569.54 211.754C567.874 212.111 566.812 213.748 567.168 215.412C567.524 217.075 569.163 218.135 570.829 217.779Z" fill="white"/>
</g>
<g clip-path="url(#clip63_3629_2567)">
<path d="M537.579 237.381C539.245 237.024 540.307 235.387 539.951 233.723C539.595 232.059 537.956 230.999 536.29 231.356C534.624 231.712 533.562 233.35 533.918 235.013C534.274 236.677 535.913 237.737 537.579 237.381Z" fill="white"/>
</g>
<g clip-path="url(#clip64_3629_2567)">
<path d="M509.04 244.035C510.706 243.679 511.768 242.041 511.412 240.377C511.056 238.714 509.417 237.654 507.751 238.01C506.085 238.366 505.023 240.004 505.379 241.668C505.734 243.331 507.374 244.391 509.04 244.035Z" fill="white"/>
</g>
<g clip-path="url(#clip65_3629_2567)">
<path d="M615.801 220.788C617.467 220.431 618.529 218.794 618.174 217.13C617.818 215.467 616.179 214.407 614.513 214.763C612.847 215.119 611.785 216.757 612.14 218.421C612.496 220.084 614.135 221.144 615.801 220.788Z" fill="white"/>
</g>
<g clip-path="url(#clip66_3629_2567)">
<path d="M654.372 212.731C656.038 212.375 657.1 210.737 656.744 209.074C656.388 207.41 654.749 206.35 653.083 206.706C651.417 207.063 650.355 208.7 650.711 210.364C651.066 212.028 652.706 213.087 654.372 212.731Z" fill="white"/>
</g>
<g clip-path="url(#clip67_3629_2567)">
<path d="M636.7 212.219C638.366 211.863 639.428 210.226 639.072 208.562C638.716 206.898 637.077 205.838 635.411 206.195C633.745 206.551 632.683 208.189 633.039 209.852C633.395 211.516 635.034 212.576 636.7 212.219Z" fill="white"/>
</g>
<g clip-path="url(#clip68_3629_2567)">
<path d="M720.903 210.002C722.569 209.645 723.631 208.008 723.275 206.344C722.919 204.68 721.28 203.621 719.614 203.977C717.948 204.333 716.886 205.971 717.242 207.634C717.598 209.298 719.237 210.358 720.903 210.002Z" fill="white"/>
</g>
<g clip-path="url(#clip69_3629_2567)">
<path d="M782.454 232.151C784.12 231.795 785.182 230.157 784.826 228.494C784.47 226.83 782.831 225.77 781.165 226.126C779.499 226.483 778.437 228.12 778.793 229.784C779.149 231.448 780.788 232.507 782.454 232.151Z" fill="white"/>
</g>
<g clip-path="url(#clip70_3629_2567)">
<path d="M789.383 304.952C791.049 304.596 792.111 302.958 791.756 301.294C791.4 299.631 789.761 298.571 788.095 298.927C786.429 299.283 785.367 300.921 785.722 302.585C786.078 304.248 787.717 305.308 789.383 304.952Z" fill="white"/>
</g>
<g clip-path="url(#clip71_3629_2567)">
<path d="M730.321 271.363C731.987 271.007 733.049 269.369 732.693 267.705C732.337 266.042 730.698 264.982 729.032 265.338C727.366 265.695 726.304 267.332 726.66 268.996C727.016 270.659 728.655 271.719 730.321 271.363Z" fill="white"/>
</g>
<g clip-path="url(#clip72_3629_2567)">
<path d="M727.524 282.759C729.19 282.403 730.252 280.766 729.896 279.102C729.54 277.438 727.901 276.378 726.235 276.735C724.569 277.091 723.507 278.729 723.863 280.392C724.219 282.056 725.858 283.116 727.524 282.759Z" fill="white"/>
</g>
<g clip-path="url(#clip73_3629_2567)">
<path d="M726.563 337.77C728.229 337.414 729.291 335.776 728.935 334.113C728.58 332.449 726.94 331.389 725.274 331.745C723.608 332.102 722.546 333.739 722.902 335.403C723.258 337.067 724.897 338.127 726.563 337.77Z" fill="white"/>
</g>
<g clip-path="url(#clip74_3629_2567)">
<path d="M706.446 347.796C708.112 347.439 709.174 345.802 708.818 344.138C708.462 342.474 706.823 341.415 705.157 341.771C703.491 342.127 702.429 343.765 702.785 345.428C703.141 347.092 704.78 348.152 706.446 347.796Z" fill="white"/>
</g>
<g clip-path="url(#clip75_3629_2567)">
<path d="M699.864 340.853C701.53 340.497 702.592 338.859 702.236 337.196C701.88 335.532 700.241 334.472 698.575 334.828C696.909 335.185 695.847 336.822 696.203 338.486C696.559 340.15 698.198 341.21 699.864 340.853Z" fill="white"/>
</g>
<g clip-path="url(#clip76_3629_2567)">
<path d="M737.325 298.437C738.991 298.081 740.053 296.443 739.697 294.78C739.341 293.116 737.702 292.056 736.036 292.412C734.37 292.769 733.308 294.406 733.664 296.07C734.02 297.734 735.659 298.794 737.325 298.437Z" fill="white"/>
</g>
<g clip-path="url(#clip77_3629_2567)">
<path d="M763.895 275.49C765.561 275.134 766.623 273.496 766.267 271.832C765.912 270.169 764.273 269.109 762.606 269.465C760.94 269.821 759.878 271.459 760.234 273.123C760.59 274.786 762.229 275.846 763.895 275.49Z" fill="white"/>
</g>
<g clip-path="url(#clip78_3629_2567)">
<path d="M751.29 290.168C752.956 289.811 754.018 288.174 753.662 286.51C753.306 284.846 751.667 283.787 750.001 284.143C748.335 284.499 747.273 286.137 747.629 287.8C747.984 289.464 749.624 290.524 751.29 290.168Z" fill="white"/>
</g>
<g clip-path="url(#clip79_3629_2567)">
<path d="M669.477 339.772C671.143 339.416 672.205 337.778 671.849 336.115C671.494 334.451 669.855 333.391 668.189 333.747C666.522 334.104 665.46 335.741 665.816 337.405C666.172 339.069 667.811 340.128 669.477 339.772Z" fill="white"/>
</g>
<g clip-path="url(#clip80_3629_2567)">
<path d="M645.598 378.129C647.264 377.772 648.326 376.135 647.97 374.471C647.615 372.807 645.976 371.748 644.31 372.104C642.644 372.46 641.581 374.098 641.937 375.761C642.293 377.425 643.932 378.485 645.598 378.129Z" fill="white"/>
</g>
<g clip-path="url(#clip81_3629_2567)">
<path d="M630.008 407.462C631.674 407.105 632.736 405.468 632.381 403.804C632.025 402.14 630.386 401.081 628.72 401.437C627.054 401.793 625.992 403.431 626.347 405.094C626.703 406.758 628.342 407.818 630.008 407.462Z" fill="white"/>
</g>
<g clip-path="url(#clip82_3629_2567)">
<path d="M653.489 414.119C655.155 413.763 656.217 412.125 655.861 410.461C655.505 408.798 653.866 407.738 652.2 408.094C650.534 408.45 649.472 410.088 649.828 411.752C650.184 413.415 651.823 414.475 653.489 414.119Z" fill="white"/>
</g>
<g clip-path="url(#clip83_3629_2567)">
<path d="M735.586 321.41C737.252 321.054 738.315 319.416 737.959 317.752C737.603 316.089 735.964 315.029 734.298 315.385C732.632 315.741 731.57 317.379 731.926 319.043C732.281 320.706 733.92 321.766 735.586 321.41Z" fill="white"/>
</g>
<g clip-path="url(#clip84_3629_2567)">
<path d="M771.262 298.085C772.928 297.728 773.99 296.091 773.635 294.427C773.279 292.763 771.64 291.704 769.974 292.06C768.308 292.416 767.245 294.054 767.601 295.717C767.957 297.381 769.596 298.441 771.262 298.085Z" fill="white"/>
</g>
<g clip-path="url(#clip85_3629_2567)">
<path d="M671.165 559.579C672.831 559.222 673.893 557.585 673.537 555.921C673.181 554.258 671.542 553.198 669.876 553.554C668.21 553.91 667.148 555.548 667.504 557.212C667.859 558.875 669.499 559.935 671.165 559.579Z" fill="white"/>
</g>
<g clip-path="url(#clip86_3629_2567)">
<path d="M677.211 567.036C678.877 566.68 679.94 565.042 679.584 563.378C679.228 561.715 677.589 560.655 675.923 561.011C674.257 561.367 673.195 563.005 673.551 564.669C673.906 566.332 675.545 567.392 677.211 567.036Z" fill="white"/>
</g>
<g clip-path="url(#clip87_3629_2567)">
<path d="M685.844 613.528C687.51 613.172 688.572 611.534 688.217 609.87C687.861 608.207 686.222 607.147 684.556 607.503C682.89 607.86 681.828 609.497 682.183 611.161C682.539 612.825 684.178 613.884 685.844 613.528Z" fill="white"/>
</g>
<g clip-path="url(#clip88_3629_2567)">
<path d="M682.297 651.168C683.963 650.811 685.026 649.174 684.67 647.51C684.314 645.846 682.675 644.787 681.009 645.143C679.343 645.499 678.281 647.137 678.636 648.8C678.992 650.464 680.631 651.524 682.297 651.168Z" fill="white"/>
</g>
<g clip-path="url(#clip89_3629_2567)">
<path d="M653.727 683.51C655.393 683.154 656.455 681.517 656.099 679.853C655.744 678.189 654.105 677.129 652.439 677.486C650.772 677.842 649.71 679.48 650.066 681.143C650.422 682.807 652.061 683.867 653.727 683.51Z" fill="white"/>
</g>
<g clip-path="url(#clip90_3629_2567)">
<path d="M615.583 705.206C617.249 704.849 618.311 703.212 617.955 701.548C617.599 699.884 615.96 698.825 614.294 699.181C612.628 699.537 611.566 701.175 611.922 702.839C612.277 704.502 613.916 705.562 615.583 705.206Z" fill="white"/>
</g>
<g clip-path="url(#clip91_3629_2567)">
<path d="M591.965 141.671C593.631 141.314 594.694 139.677 594.338 138.013C593.982 136.349 592.343 135.29 590.677 135.646C589.011 136.002 587.949 137.64 588.304 139.303C588.66 140.967 590.299 142.027 591.965 141.671Z" fill="white"/>
</g>
<g clip-path="url(#clip92_3629_2567)">
<path d="M591.649 151.079C593.315 150.722 594.377 149.085 594.021 147.421C593.665 145.758 592.026 144.698 590.36 145.054C588.694 145.41 587.632 147.048 587.988 148.712C588.344 150.375 589.983 151.435 591.649 151.079Z" fill="white"/>
</g>
<g clip-path="url(#clip93_3629_2567)">
<path d="M612.547 141.478C614.213 141.122 615.276 139.484 614.92 137.821C614.564 136.157 612.925 135.097 611.259 135.453C609.593 135.81 608.531 137.447 608.886 139.111C609.242 140.775 610.881 141.835 612.547 141.478Z" fill="white"/>
</g>
<g clip-path="url(#clip94_3629_2567)">
<path d="M665.375 130.138C667.042 129.782 668.104 128.144 667.748 126.481C667.392 124.817 665.753 123.757 664.087 124.114C662.421 124.47 661.359 126.107 661.715 127.771C662.07 129.435 663.709 130.495 665.375 130.138Z" fill="white"/>
</g>
<g clip-path="url(#clip95_3629_2567)">
<path d="M720.071 123.722C721.737 123.366 722.799 121.728 722.443 120.065C722.087 118.401 720.448 117.341 718.782 117.698C717.116 118.054 716.054 119.691 716.41 121.355C716.766 123.019 718.405 124.079 720.071 123.722Z" fill="white"/>
</g>
<g clip-path="url(#clip96_3629_2567)">
<path d="M758.934 132.427C760.6 132.071 761.662 130.434 761.306 128.77C760.951 127.106 759.312 126.046 757.646 126.403C755.979 126.759 754.917 128.397 755.273 130.06C755.629 131.724 757.268 132.784 758.934 132.427Z" fill="white"/>
</g>
<g clip-path="url(#clip97_3629_2567)">
<path d="M795.602 149.621C797.268 149.264 798.33 147.627 797.974 145.963C797.619 144.3 795.98 143.24 794.314 143.596C792.647 143.952 791.585 145.59 791.941 147.254C792.297 148.917 793.936 149.977 795.602 149.621Z" fill="white"/>
</g>
<g clip-path="url(#clip98_3629_2567)">
<path d="M823.559 181.073C825.225 180.717 826.287 179.079 825.931 177.415C825.576 175.752 823.937 174.692 822.271 175.048C820.604 175.405 819.542 177.042 819.898 178.706C820.254 180.369 821.893 181.429 823.559 181.073Z" fill="white"/>
</g>
<g clip-path="url(#clip99_3629_2567)">
<path d="M850.844 229.299C852.51 228.942 853.572 227.305 853.217 225.641C852.861 223.977 851.222 222.917 849.556 223.274C847.89 223.63 846.828 225.268 847.183 226.931C847.539 228.595 849.178 229.655 850.844 229.299Z" fill="white"/>
</g>
<g clip-path="url(#clip100_3629_2567)">
<path d="M866.704 305.253C868.37 304.896 869.432 303.259 869.076 301.595C868.72 299.931 867.081 298.872 865.415 299.228C863.749 299.584 862.687 301.222 863.043 302.885C863.399 304.549 865.038 305.609 866.704 305.253Z" fill="white"/>
</g>
<g clip-path="url(#clip101_3629_2567)">
<path d="M265.735 665.522C267.401 665.166 268.463 663.528 268.107 661.865C267.751 660.201 266.112 659.141 264.446 659.497C262.78 659.854 261.718 661.491 262.074 663.155C262.43 664.819 264.069 665.878 265.735 665.522Z" fill="white"/>
</g>
<g clip-path="url(#clip102_3629_2567)">
<path d="M276.489 663.634C278.155 663.278 279.217 661.641 278.861 659.977C278.505 658.313 276.866 657.253 275.2 657.61C273.534 657.966 272.472 659.604 272.828 661.267C273.184 662.931 274.823 663.991 276.489 663.634Z" fill="white"/>
</g>
<g clip-path="url(#clip103_3629_2567)">
<path d="M308.383 657.157C310.049 656.801 311.111 655.163 310.756 653.499C310.4 651.836 308.761 650.776 307.095 651.132C305.429 651.488 304.367 653.126 304.722 654.79C305.078 656.453 306.717 657.513 308.383 657.157Z" fill="white"/>
</g>
<g clip-path="url(#clip104_3629_2567)">
<path d="M339.047 651.355C340.713 650.999 341.776 649.361 341.42 647.698C341.064 646.034 339.425 644.974 337.759 645.33C336.093 645.687 335.031 647.324 335.386 648.988C335.742 650.652 337.381 651.711 339.047 651.355Z" fill="white"/>
</g>
<g clip-path="url(#clip105_3629_2567)">
<path d="M375.989 628.007C377.655 627.65 378.717 626.013 378.361 624.349C378.005 622.685 376.366 621.625 374.7 621.982C373.034 622.338 371.972 623.976 372.328 625.639C372.684 627.303 374.323 628.363 375.989 628.007Z" fill="white"/>
</g>
<g clip-path="url(#clip106_3629_2567)">
<path d="M408.727 601.829C410.393 601.472 411.455 599.835 411.099 598.171C410.744 596.508 409.105 595.448 407.439 595.804C405.772 596.16 404.71 597.798 405.066 599.462C405.422 601.125 407.061 602.185 408.727 601.829Z" fill="white"/>
</g>
<g clip-path="url(#clip107_3629_2567)">
<path d="M437.743 576.213C439.409 575.856 440.471 574.219 440.115 572.555C439.759 570.891 438.12 569.832 436.454 570.188C434.788 570.544 433.726 572.182 434.082 573.845C434.438 575.509 436.077 576.569 437.743 576.213Z" fill="white"/>
</g>
<g clip-path="url(#clip108_3629_2567)">
<path d="M465.547 558.848C467.213 558.492 468.276 556.854 467.92 555.191C467.564 553.527 465.925 552.467 464.259 552.824C462.593 553.18 461.531 554.817 461.886 556.481C462.242 558.145 463.881 559.205 465.547 558.848Z" fill="white"/>
</g>
<g clip-path="url(#clip109_3629_2567)">
<path d="M493.122 541.189C494.788 540.833 495.85 539.195 495.494 537.532C495.138 535.868 493.499 534.808 491.833 535.164C490.167 535.521 489.105 537.158 489.461 538.822C489.816 540.486 491.456 541.545 493.122 541.189Z" fill="white"/>
</g>
<g clip-path="url(#clip110_3629_2567)">
<path d="M523.383 531.511C525.049 531.155 526.111 529.518 525.756 527.854C525.4 526.19 523.761 525.13 522.095 525.487C520.429 525.843 519.367 527.481 519.722 529.144C520.078 530.808 521.717 531.868 523.383 531.511Z" fill="white"/>
</g>
<g clip-path="url(#clip111_3629_2567)">
<path d="M362.469 198.058C364.135 197.702 365.197 196.064 364.842 194.401C364.486 192.737 362.847 191.677 361.181 192.034C359.515 192.39 358.453 194.027 358.808 195.691C359.164 197.355 360.803 198.415 362.469 198.058Z" fill="white"/>
</g>
<g clip-path="url(#clip112_3629_2567)">
<path d="M352.516 200.531C354.182 200.175 355.244 198.537 354.888 196.873C354.533 195.21 352.894 194.15 351.228 194.506C349.562 194.863 348.499 196.5 348.855 198.164C349.211 199.827 350.85 200.887 352.516 200.531Z" fill="white"/>
</g>
<g clip-path="url(#clip113_3629_2567)">
<path d="M359.754 211.116C361.42 210.76 362.483 209.122 362.127 207.458C361.771 205.795 360.132 204.735 358.466 205.091C356.8 205.447 355.738 207.085 356.093 208.749C356.449 210.412 358.088 211.472 359.754 211.116Z" fill="white"/>
</g>
<g clip-path="url(#clip114_3629_2567)">
<path d="M366.489 250.216C368.155 249.859 369.217 248.222 368.861 246.558C368.505 244.894 366.866 243.834 365.2 244.191C363.534 244.547 362.472 246.185 362.828 247.848C363.184 249.512 364.823 250.572 366.489 250.216Z" fill="white"/>
</g>
<g clip-path="url(#clip115_3629_2567)">
<path d="M385.055 292.644C386.721 292.288 387.783 290.65 387.428 288.987C387.072 287.323 385.433 286.263 383.767 286.619C382.101 286.976 381.038 288.613 381.394 290.277C381.75 291.941 383.389 293.001 385.055 292.644Z" fill="white"/>
</g>
<g clip-path="url(#clip116_3629_2567)">
<path d="M404.946 316.342C406.612 315.986 407.674 314.349 407.318 312.685C406.962 311.021 405.323 309.961 403.657 310.318C401.991 310.674 400.929 312.312 401.285 313.975C401.641 315.639 403.28 316.699 404.946 316.342Z" fill="white"/>
</g>
<g clip-path="url(#clip117_3629_2567)">
<path d="M424.047 336.606C425.713 336.25 426.776 334.612 426.42 332.949C426.064 331.285 424.425 330.225 422.759 330.581C421.093 330.938 420.031 332.575 420.386 334.239C420.742 335.903 422.381 336.962 424.047 336.606Z" fill="white"/>
</g>
<g clip-path="url(#clip118_3629_2567)">
<path d="M443.055 349.667C444.721 349.31 445.783 347.673 445.428 346.009C445.072 344.345 443.433 343.286 441.767 343.642C440.101 343.998 439.038 345.636 439.394 347.299C439.75 348.963 441.389 350.023 443.055 349.667Z" fill="white"/>
</g>
<g clip-path="url(#clip119_3629_2567)">
<path d="M468.731 355.91C470.397 355.554 471.459 353.916 471.103 352.252C470.747 350.589 469.108 349.529 467.442 349.885C465.776 350.241 464.714 351.879 465.07 353.543C465.426 355.206 467.065 356.266 468.731 355.91Z" fill="white"/>
</g>
<g  clip-path="url(#clip120_3629_2567)">
<path d="M514.254 353.368C515.92 353.012 516.983 351.374 516.627 349.71C516.271 348.047 514.632 346.987 512.966 347.343C511.3 347.699 510.238 349.337 510.593 351.001C510.949 352.664 512.588 353.724 514.254 353.368Z" fill="white"/>
</g>
</g>
<defs>

<style>
    .pulsating {
        animation: pulse 2s infinite ease-in-out;
    }
    @keyframes pulse {
        0% { transform: scale(1); opacity: 1; }
        50% { transform: scale(1.1); opacity: 0.7; }
        100% { transform: scale(1); opacity: 1; }
    }
</style>



<clipPath id="clip0_3629_2567">
<rect width="770" height="650" fill="white" transform="translate(52 161.041) rotate(-12.0722)"/>
</clipPath>
<clipPath id="clip1_3629_2567">
<rect width="6.1697" height="6.16101" fill="white" transform="translate(88.8633 295.533) rotate(-12.0722)"/>
</clipPath>
<clipPath id="clip2_3629_2567">
<rect width="6.1697" height="6.16101" fill="white" transform="translate(131.641 283.95) rotate(-12.0722)"/>
</clipPath>
<clipPath id="clip3_3629_2567">
<rect width="6.1697" height="6.16101" fill="white" transform="translate(127.059 273.801) rotate(-12.0722)"/>
</clipPath>
<clipPath id="clip4_3629_2567">
<rect width="6.1697" height="6.16101" fill="white" transform="translate(134.25 244.683) rotate(-12.0722)"/>
</clipPath>
<clipPath id="clip5_3629_2567">
<rect width="6.1697" height="6.16101" fill="white" transform="translate(141.785 232.96) rotate(-12.0722)"/>
</clipPath>
<clipPath id="clip6_3629_2567">
<rect width="6.1697" height="6.16101" fill="white" transform="translate(148.047 214.962) rotate(-12.0722)"/>
</clipPath>
<clipPath id="clip7_3629_2567">
<rect width="6.1697" height="6.16101" fill="white" transform="translate(141.379 188.683) rotate(-12.0722)"/>
</clipPath>
<clipPath id="clip8_3629_2567">
<rect width="6.1697" height="6.16101" fill="white" transform="translate(120.945 193.617) rotate(-12.0722)"/>
</clipPath>
<clipPath id="clip9_3629_2567">
<rect width="6.1697" height="6.16101" fill="white" transform="translate(121.809 253.244) rotate(-12.0722)"/>
</clipPath>
<clipPath id="clip10_3629_2567">
<rect width="6.1697" height="6.16101" fill="white" transform="translate(141.254 291.799) rotate(-12.0722)"/>
</clipPath>
<clipPath id="clip11_3629_2567">
<rect width="6.1697" height="6.16101" fill="white" transform="translate(106.07 309.709) rotate(-12.0722)"/>
</clipPath>
<clipPath id="clip12_3629_2567">
<rect width="6.1697" height="6.16101" fill="white" transform="translate(91.8359 319.219) rotate(-12.0722)"/>
</clipPath>
<clipPath id="clip13_3629_2567">
<rect width="6.1697" height="6.16101" fill="white" transform="translate(142.43 270.252) rotate(-12.0722)"/>
</clipPath>
<clipPath id="clip14_3629_2567">
<rect width="6.1697" height="6.16101" fill="white" transform="translate(181.668 253.593) rotate(-12.0722)"/>
</clipPath>
<clipPath id="clip15_3629_2567">
<rect width="6.1697" height="6.16101" fill="white" transform="translate(203.18 242.485) rotate(-12.0722)"/>
</clipPath>
<clipPath id="clip16_3629_2567">
<rect width="6.1697" height="6.16101" fill="white" transform="translate(215.809 241.174) rotate(-12.0722)"/>
</clipPath>
<clipPath id="clip17_3629_2567">
<rect width="6.1697" height="6.16101" fill="white" transform="translate(225.414 226.643) rotate(-12.0722)"/>
</clipPath>
<clipPath id="clip18_3629_2567">
<rect width="6.1697" height="6.16101" fill="white" transform="translate(238.355 248.374) rotate(-12.0722)"/>
</clipPath>
<clipPath id="clip19_3629_2567">
<rect width="6.1697" height="6.16101" fill="white" transform="translate(209.496 275.689) rotate(-12.0722)"/>
</clipPath>
<clipPath id="clip20_3629_2567">
<rect width="6.1697" height="6.16101" fill="white" transform="translate(189.871 275.513) rotate(-12.0722)"/>
</clipPath>
<clipPath id="clip21_3629_2567">
<rect width="6.1697" height="6.16101" fill="white" transform="translate(196.793 221.896) rotate(-12.0722)"/>
</clipPath>
<clipPath id="clip22_3629_2567">
<rect width="6.1697" height="6.16101" fill="white" transform="translate(208.188 213.076) rotate(-12.0722)"/>
</clipPath>
<clipPath id="clip23_3629_2567">
<rect width="6.1697" height="6.16101" fill="white" transform="translate(181.805 236.134) rotate(-12.0722)"/>
</clipPath>
<clipPath id="clip24_3629_2567">
<rect width="6.1697" height="6.16101" fill="white" transform="translate(236.383 191.488) rotate(-12.0722)"/>
</clipPath>
<clipPath id="clip25_3629_2567">
<rect width="6.1697" height="6.16101" fill="white" transform="translate(229.781 183.366) rotate(-12.0722)"/>
</clipPath>
<clipPath id="clip26_3629_2567">
<rect width="6.1697" height="6.16101" fill="white" transform="translate(259.98 152.271) rotate(-12.0722)"/>
</clipPath>
<clipPath id="clip27_3629_2567">
<rect width="6.1697" height="6.16101" fill="white" transform="translate(308.352 140.7) rotate(-12.0722)"/>
</clipPath>
<clipPath id="clip28_3629_2567">
<rect width="6.1697" height="6.16101" fill="white" transform="translate(350.781 136.386) rotate(-12.0722)"/>
</clipPath>
<clipPath id="clip29_3629_2567">
<rect width="6.1697" height="6.16101" fill="white" transform="translate(375.207 150.036) rotate(-12.0722)"/>
</clipPath>
<clipPath id="clip30_3629_2567">
<rect width="6.1697" height="6.16101" fill="white" transform="translate(315.402 117.691) rotate(-12.0722)"/>
</clipPath>
<clipPath id="clip31_3629_2567">
<rect width="6.1697" height="6.16101" fill="white" transform="translate(276.441 113.038) rotate(-12.0722)"/>
</clipPath>
<clipPath id="clip32_3629_2567">
<rect width="6.1697" height="6.16101" fill="white" transform="translate(217.387 131.212) rotate(-12.0722)"/>
</clipPath>
<clipPath id="clip33_3629_2567">
<rect width="6.1697" height="6.16101" fill="white" transform="translate(641.152 489.321) rotate(-12.0722)"/>
</clipPath>
<clipPath id="clip34_3629_2567">
<rect width="6.1697" height="6.16101" fill="white" transform="translate(631.836 488.149) rotate(-12.0722)"/>
</clipPath>
<clipPath id="clip35_3629_2567">
<rect width="6.1697" height="6.16101" fill="white" transform="translate(624.371 439.386) rotate(-12.0722)"/>
</clipPath>
<clipPath id="clip36_3629_2567">
<rect width="6.1697" height="6.16101" fill="white" transform="translate(677.422 402.686) rotate(-12.0722)"/>
</clipPath>
<clipPath id="clip37_3629_2567">
<rect width="6.1697" height="6.16101" fill="white" transform="translate(703.723 373.207) rotate(-12.0722)"/>
</clipPath>
<clipPath id="clip38_3629_2567">
<rect width="6.1697" height="6.16101" fill="white" transform="translate(687.008 277.201) rotate(-12.0722)"/>
</clipPath>
<clipPath id="clip39_3629_2567">
<rect width="6.1697" height="6.16101" fill="white" transform="translate(667.602 211.649) rotate(-12.0722)"/>
</clipPath>
<clipPath id="clip40_3629_2567">
<rect width="6.1697" height="6.16101" fill="white" transform="translate(662.273 191.384) rotate(-12.0722)"/>
</clipPath>
<clipPath id="clip41_3629_2567">
<rect width="6.1697" height="6.16101" fill="white" transform="translate(753.996 227.988) rotate(-12.0722)"/>
</clipPath>
<clipPath id="clip42_3629_2567">
<rect width="6.1697" height="6.16101" fill="white" transform="translate(803.379 291.036) rotate(-12.0722)"/>
</clipPath>
<clipPath id="clip43_3629_2567">
<rect width="6.1697" height="6.16101" fill="white" transform="translate(779.633 344.633) rotate(-12.0722)"/>
</clipPath>
<clipPath id="clip44_3629_2567">
<rect width="6.1697" height="6.16101" fill="white" transform="translate(708.543 405.535) rotate(-12.0722)"/>
</clipPath>
<clipPath id="clip45_3629_2567">
<rect width="6.1697" height="6.16101" fill="white" transform="translate(726.465 468.461) rotate(-12.0722)"/>
</clipPath>
<clipPath id="clip46_3629_2567">
<rect width="6.1697" height="6.16101" fill="white" transform="translate(773.457 405.602) rotate(-12.0722)"/>
</clipPath>
<clipPath id="clip47_3629_2567">
<rect width="6.1697" height="6.16101" fill="white" transform="translate(748.547 325.2) rotate(-12.0722)"/>
</clipPath>
<clipPath id="clip48_3629_2567">
<rect width="6.1697" height="6.16101" fill="white" transform="translate(689.43 290.206) rotate(-12.0722)"/>
</clipPath>
<clipPath id="clip49_3629_2567">
<rect width="6.1697" height="6.16101" fill="white" transform="translate(735.863 239.488) rotate(-12.0722)"/>
</clipPath>
<clipPath id="clip50_3629_2567">
<rect width="6.1697" height="6.16101" fill="white" transform="translate(779.449 268.986) rotate(-12.0722)"/>
</clipPath>
<clipPath id="clip51_3629_2567">
<rect width="6.1697" height="6.16101" fill="white" transform="translate(757.199 366.173) rotate(-12.0722)"/>
</clipPath>
<clipPath id="clip52_3629_2567">
<rect width="6.1697" height="6.16101" fill="white" transform="translate(699.395 410.161) rotate(-12.0722)"/>
</clipPath>
<clipPath id="clip53_3629_2567">
<rect width="6.1697" height="6.16101" fill="white" transform="translate(719.77 423.755) rotate(-12.0722)"/>
</clipPath>
<clipPath id="clip54_3629_2567">
<rect width="6.1697" height="6.16101" fill="white" transform="translate(708.957 256.041) rotate(-12.0722)"/>
</clipPath>
<clipPath id="clip55_3629_2567">
<rect width="6.1697" height="6.16101" fill="white" transform="translate(676.488 244.703) rotate(-12.0722)"/>
</clipPath>
<clipPath id="clip56_3629_2567">
<rect width="6.1697" height="6.16101" fill="white" transform="translate(588.18 257.62) rotate(-12.0722)"/>
</clipPath>
<clipPath id="clip57_3629_2567">
<rect width="6.1697" height="6.16101" fill="white" transform="translate(543.348 278.447) rotate(-12.0722)"/>
</clipPath>
<clipPath id="clip58_3629_2567">
<rect width="6.1697" height="6.16101" fill="white" transform="translate(526.41 279.896) rotate(-12.0722)"/>
</clipPath>
<clipPath id="clip59_3629_2567">
<rect width="6.1697" height="6.16101" fill="white" transform="translate(643.91 243.361) rotate(-12.0722)"/>
</clipPath>
<clipPath id="clip60_3629_2567">
<rect width="6.1697" height="6.16101" fill="white" transform="translate(649.262 183.616) rotate(-12.0722)"/>
</clipPath>
<clipPath id="clip61_3629_2567">
<rect width="6.1697" height="6.16101" fill="white" transform="translate(588.285 193.631) rotate(-12.0722)"/>
</clipPath>
<clipPath id="clip62_3629_2567">
<rect width="6.1697" height="6.16101" fill="white" transform="translate(566.523 212.399) rotate(-12.0722)"/>
</clipPath>
<clipPath id="clip63_3629_2567">
<rect width="6.1697" height="6.16101" fill="white" transform="translate(533.273 232.001) rotate(-12.0722)"/>
</clipPath>
<clipPath id="clip64_3629_2567">
<rect width="6.1697" height="6.16101" fill="white" transform="translate(504.734 238.655) rotate(-12.0722)"/>
</clipPath>
<clipPath id="clip65_3629_2567">
<rect width="6.1697" height="6.16101" fill="white" transform="translate(611.496 215.408) rotate(-12.0722)"/>
</clipPath>
<clipPath id="clip66_3629_2567">
<rect width="6.1697" height="6.16101" fill="white" transform="translate(650.066 207.352) rotate(-12.0722)"/>
</clipPath>
<clipPath id="clip67_3629_2567">
<rect width="6.1697" height="6.16101" fill="white" transform="translate(632.395 206.84) rotate(-12.0722)"/>
</clipPath>
<clipPath id="clip68_3629_2567">
<rect width="6.1697" height="6.16101" fill="white" transform="translate(716.598 204.622) rotate(-12.0722)"/>
</clipPath>
<clipPath id="clip69_3629_2567">
<rect width="6.1697" height="6.16101" fill="white" transform="translate(778.148 226.771) rotate(-12.0722)"/>
</clipPath>
<clipPath id="clip70_3629_2567">
<rect width="6.1697" height="6.16101" fill="white" transform="translate(785.078 299.572) rotate(-12.0722)"/>
</clipPath>
<clipPath id="clip71_3629_2567">
<rect width="6.1697" height="6.16101" fill="white" transform="translate(726.016 265.983) rotate(-12.0722)"/>
</clipPath>
<clipPath id="clip72_3629_2567">
<rect width="6.1697" height="6.16101" fill="white" transform="translate(723.219 277.38) rotate(-12.0722)"/>
</clipPath>
<clipPath id="clip73_3629_2567">
<rect width="6.1697" height="6.16101" fill="white" transform="translate(722.258 332.391) rotate(-12.0722)"/>
</clipPath>
<clipPath id="clip74_3629_2567">
<rect width="6.1697" height="6.16101" fill="white" transform="translate(702.141 342.416) rotate(-12.0722)"/>
</clipPath>
<clipPath id="clip75_3629_2567">
<rect width="6.1697" height="6.16101" fill="white" transform="translate(695.559 335.474) rotate(-12.0722)"/>
</clipPath>
<clipPath id="clip76_3629_2567">
<rect width="6.1697" height="6.16101" fill="white" transform="translate(733.02 293.058) rotate(-12.0722)"/>
</clipPath>
<clipPath id="clip77_3629_2567">
<rect width="6.1697" height="6.16101" fill="white" transform="translate(759.59 270.11) rotate(-12.0722)"/>
</clipPath>
<clipPath id="clip78_3629_2567">
<rect width="6.1697" height="6.16101" fill="white" transform="translate(746.984 284.788) rotate(-12.0722)"/>
</clipPath>
<clipPath id="clip79_3629_2567">
<rect width="6.1697" height="6.16101" fill="white" transform="translate(665.172 334.393) rotate(-12.0722)"/>
</clipPath>
<clipPath id="clip80_3629_2567">
<rect width="6.1697" height="6.16101" fill="white" transform="translate(641.293 372.749) rotate(-12.0722)"/>
</clipPath>
<clipPath id="clip81_3629_2567">
<rect width="6.1697" height="6.16101" fill="white" transform="translate(625.703 402.082) rotate(-12.0722)"/>
</clipPath>
<clipPath id="clip82_3629_2567">
<rect width="6.1697" height="6.16101" fill="white" transform="translate(649.184 408.739) rotate(-12.0722)"/>
</clipPath>
<clipPath id="clip83_3629_2567">
<rect width="6.1697" height="6.16101" fill="white" transform="translate(731.281 316.03) rotate(-12.0722)"/>
</clipPath>
<clipPath id="clip84_3629_2567">
<rect width="6.1697" height="6.16101" fill="white" transform="translate(766.957 292.705) rotate(-12.0722)"/>
</clipPath>
<clipPath id="clip85_3629_2567">
<rect width="6.1697" height="6.16101" fill="white" transform="translate(666.859 554.199) rotate(-12.0722)"/>
</clipPath>
<clipPath id="clip86_3629_2567">
<rect width="6.1697" height="6.16101" fill="white" transform="translate(672.906 561.656) rotate(-12.0722)"/>
</clipPath>
<clipPath id="clip87_3629_2567">
<rect width="6.1697" height="6.16101" fill="white" transform="translate(681.539 608.148) rotate(-12.0722)"/>
</clipPath>
<clipPath id="clip88_3629_2567">
<rect width="6.1697" height="6.16101" fill="white" transform="translate(677.992 645.788) rotate(-12.0722)"/>
</clipPath>
<clipPath id="clip89_3629_2567">
<rect width="6.1697" height="6.16101" fill="white" transform="translate(649.422 678.131) rotate(-12.0722)"/>
</clipPath>
<clipPath id="clip90_3629_2567">
<rect width="6.1697" height="6.16101" fill="white" transform="translate(611.277 699.826) rotate(-12.0722)"/>
</clipPath>
<clipPath id="clip91_3629_2567">
<rect width="6.1697" height="6.16101" fill="white" transform="translate(587.66 136.291) rotate(-12.0722)"/>
</clipPath>
<clipPath id="clip92_3629_2567">
<rect width="6.1697" height="6.16101" fill="white" transform="translate(587.344 145.699) rotate(-12.0722)"/>
</clipPath>
<clipPath id="clip93_3629_2567">
<rect width="6.1697" height="6.16101" fill="white" transform="translate(608.242 136.099) rotate(-12.0722)"/>
</clipPath>
<clipPath id="clip94_3629_2567">
<rect width="6.1697" height="6.16101" fill="white" transform="translate(661.07 124.759) rotate(-12.0722)"/>
</clipPath>
<clipPath id="clip95_3629_2567">
<rect width="6.1697" height="6.16101" fill="white" transform="translate(715.766 118.343) rotate(-12.0722)"/>
</clipPath>
<clipPath id="clip96_3629_2567">
<rect width="6.1697" height="6.16101" fill="white" transform="translate(754.629 127.048) rotate(-12.0722)"/>
</clipPath>
<clipPath id="clip97_3629_2567">
<rect width="6.1697" height="6.16101" fill="white" transform="translate(791.297 144.241) rotate(-12.0722)"/>
</clipPath>
<clipPath id="clip98_3629_2567">
<rect width="6.1697" height="6.16101" fill="white" transform="translate(819.254 175.693) rotate(-12.0722)"/>
</clipPath>
<clipPath id="clip99_3629_2567">
<rect width="6.1697" height="6.16101" fill="white" transform="translate(846.539 223.919) rotate(-12.0722)"/>
</clipPath>
<clipPath id="clip100_3629_2567">
<rect width="6.1697" height="6.16101" fill="white" transform="translate(862.398 299.873) rotate(-12.0722)"/>
</clipPath>
<clipPath id="clip101_3629_2567">
<rect width="6.1697" height="6.16101" fill="white" transform="translate(261.43 660.143) rotate(-12.0722)"/>
</clipPath>
<clipPath id="clip102_3629_2567">
<rect width="6.1697" height="6.16101" fill="white" transform="translate(272.184 658.255) rotate(-12.0722)"/>
</clipPath>
<clipPath id="clip103_3629_2567">
<rect width="6.1697" height="6.16101" fill="white" transform="translate(304.078 651.777) rotate(-12.0722)"/>
</clipPath>
<clipPath id="clip104_3629_2567">
<rect width="6.1697" height="6.16101" fill="white" transform="translate(334.742 645.976) rotate(-12.0722)"/>
</clipPath>
<clipPath id="clip105_3629_2567">
<rect width="6.1697" height="6.16101" fill="white" transform="translate(371.684 622.627) rotate(-12.0722)"/>
</clipPath>
<clipPath id="clip106_3629_2567">
<rect width="6.1697" height="6.16101" fill="white" transform="translate(404.422 596.449) rotate(-12.0722)"/>
</clipPath>
<clipPath id="clip107_3629_2567">
<rect width="6.1697" height="6.16101" fill="white" transform="translate(433.438 570.833) rotate(-12.0722)"/>
</clipPath>
<clipPath id="clip108_3629_2567">
<rect width="6.1697" height="6.16101" fill="white" transform="translate(461.242 553.469) rotate(-12.0722)"/>
</clipPath>
<clipPath id="clip109_3629_2567">
<rect width="6.1697" height="6.16101" fill="white" transform="translate(488.816 535.81) rotate(-12.0722)"/>
</clipPath>
<clipPath id="clip110_3629_2567">
<rect width="6.1697" height="6.16101" fill="white" transform="translate(519.078 526.132) rotate(-12.0722)"/>
</clipPath>
<clipPath id="clip111_3629_2567">
<rect width="6.1697" height="6.16101" fill="white" transform="translate(358.164 192.679) rotate(-12.0722)"/>
</clipPath>
<clipPath id="clip112_3629_2567">
<rect width="6.1697" height="6.16101" fill="white" transform="translate(348.211 195.151) rotate(-12.0722)"/>
</clipPath>
<clipPath id="clip113_3629_2567">
<rect width="6.1697" height="6.16101" fill="white" transform="translate(355.449 205.736) rotate(-12.0722)"/>
</clipPath>
<clipPath id="clip114_3629_2567">
<rect width="6.1697" height="6.16101" fill="white" transform="translate(362.184 244.836) rotate(-12.0722)"/>
</clipPath>
<clipPath id="clip115_3629_2567">
<rect width="6.1697" height="6.16101" fill="white" transform="translate(380.75 287.265) rotate(-12.0722)"/>
</clipPath>
<clipPath id="clip116_3629_2567">
<rect width="6.1697" height="6.16101" fill="white" transform="translate(400.641 310.963) rotate(-12.0722)"/>
</clipPath>
<clipPath id="clip117_3629_2567">
<rect width="6.1697" height="6.16101" fill="white" transform="translate(419.742 331.227) rotate(-12.0722)"/>
</clipPath>
<clipPath id="clip118_3629_2567">
<rect width="6.1697" height="6.16101" fill="white" transform="translate(438.75 344.287) rotate(-12.0722)"/>
</clipPath>
<clipPath id="clip119_3629_2567">
<rect width="6.1697" height="6.16101" fill="white" transform="translate(464.426 350.53) rotate(-12.0722)"/>
</clipPath>
<clipPath id="clip120_3629_2567">
<rect width="6.1697" height="6.16101" fill="white" transform="translate(509.949 347.988) rotate(-12.0722)"/>
</clipPath>
</defs>
</svg>
