<svg width="372" height="361" viewBox="0 0 372 361" fill="none" xmlns="http://www.w3.org/2000/svg">
<g opacity="0.8" clip-path="url(#clip0_3629_3198)">
<path d="M292.817 169.287C283.63 360.544 238.377 329.854 173.575 322.204C104.124 313.973 1.61557 218.487 2.38336 133.477C3.15115 48.4667 85.8576 109.06 169.679 108.357C234.77 107.787 302.13 -24.5873 292.817 169.287Z" stroke="#6780FF" stroke-linecap="round" stroke-linejoin="round"/>
<path d="M291.347 169.274C282.171 356.15 237.186 327.675 173.194 320.261C104.694 312.282 7.21179 217.896 5.15085 134.542C3.08992 51.1875 85.2486 106.201 167.652 105.537C231.952 105.019 300.619 -20.0137 291.347 169.274Z" stroke="#6780FF" stroke-linecap="round" stroke-linejoin="round"/>
<path d="M289.875 169.26C280.716 351.756 235.992 325.496 172.802 318.318C105.282 310.591 12.7976 217.297 7.90018 135.636C3.0028 53.9745 84.614 103.371 165.606 102.738C229.087 102.249 299.113 -15.4254 289.875 169.26Z" stroke="#6780FF" stroke-linecap="round" stroke-linejoin="round"/>
<path d="M288.408 169.247C279.244 347.333 234.811 323.288 172.438 316.345C105.824 308.9 18.3962 216.699 10.6845 136.738C3.11263 56.8221 84.022 100.526 163.596 99.9394C226.249 99.4801 297.604 -10.8298 288.408 169.247Z" stroke="#6780FF" stroke-linecap="round" stroke-linejoin="round"/>
<path d="M286.94 169.234C277.808 342.939 233.62 321.109 172.036 314.402C106.372 307.209 23.9859 216.101 13.4451 137.832C3.07353 59.6316 83.406 97.7033 161.569 97.1335C223.409 96.7111 296.101 -6.20449 286.94 169.234Z" stroke="#6780FF" stroke-linecap="round" stroke-linejoin="round"/>
<path d="M285.475 169.221C276.346 338.575 232.426 318.959 171.645 312.488C106.954 305.518 29.5799 215.51 16.2101 138.927C3.08318 62.4342 82.7871 94.8732 159.532 94.3348C220.567 93.9421 294.589 -1.65309 285.475 169.221Z" stroke="#6780FF" stroke-linecap="round" stroke-linejoin="round"/>
<path d="M284.004 169.207C274.886 334.181 231.241 316.78 171.255 310.523C107.515 303.826 35.1747 214.896 18.9757 140.021C3.06387 65.2363 82.1466 92.0427 157.48 91.5431C217.725 91.1727 293.083 2.935 284.004 169.207Z" stroke="#6780FF" stroke-linecap="round" stroke-linejoin="round"/>
<path d="M282.536 169.194C273.435 329.758 230.058 314.572 170.868 308.565C108.085 302.143 40.7646 214.312 21.7219 141.115C3.05467 68.046 81.5606 89.2055 155.476 88.7521C214.886 88.4111 291.581 7.53072 282.536 169.194Z" stroke="#6780FF" stroke-linecap="round" stroke-linejoin="round"/>
<path d="M281.068 169.181C271.977 325.393 228.868 312.423 170.525 306.652C108.648 300.452 46.2064 213.764 24.5123 142.21C2.8899 70.8987 80.9523 86.3829 153.45 85.9536C212.047 85.6421 290.071 12.1191 281.068 169.181Z" stroke="#6780FF" stroke-linecap="round" stroke-linejoin="round"/>
<path d="M279.597 169.167C270.522 321.007 227.674 310.244 170.097 304.709C109.216 298.761 51.7856 213.173 27.2774 143.289C2.8622 73.7452 80.3334 83.5454 151.412 83.1549C209.204 82.873 288.566 16.7074 279.597 169.167Z" stroke="#6780FF" stroke-linecap="round" stroke-linejoin="round"/>
<path d="M278.127 169.154C269.063 316.569 226.49 308.072 169.709 302.766C109.777 297.099 57.3739 212.619 30.0811 144.421C2.87393 76.5478 79.7536 80.7083 149.422 80.3714C206.364 80.104 287.055 21.2957 278.127 169.154Z" stroke="#6780FF" stroke-linecap="round" stroke-linejoin="round"/>
<path d="M276.659 169.141C267.612 312.212 225.3 305.849 169.321 300.823C110.34 295.408 62.9563 212.035 32.8048 145.529C2.82026 79.3497 79.1082 77.8853 147.358 77.5577C203.525 77.3349 285.552 25.8914 276.659 169.141Z" stroke="#6780FF" stroke-linecap="round" stroke-linejoin="round"/>
<path d="M275.188 169.128C266.152 307.789 224.108 303.677 168.94 298.85C110.909 293.687 68.5514 211.422 35.571 146.594C2.80147 82.1371 78.4902 75.055 145.329 74.7589C200.683 74.5656 284.04 30.4795 275.188 169.128Z" stroke="#6780FF" stroke-linecap="round" stroke-linejoin="round"/>
<path d="M273.72 169.114C264.694 303.395 222.925 301.506 168.552 296.907C111.472 291.996 74.1417 210.823 38.3396 147.689C2.78484 84.9764 77.8972 72.2104 143.296 71.9678C197.844 71.8188 282.538 35.068 273.72 169.114Z" stroke="#6780FF" stroke-linecap="round" stroke-linejoin="round"/>
<path d="M272.257 169.101C263.241 299.001 221.733 299.327 168.2 294.964C112.114 290.306 79.7732 210.247 41.1423 148.783C2.77295 87.7935 77.2642 69.3876 141.267 69.1691C195.003 69.0276 281.025 39.6562 272.257 169.101Z" stroke="#6780FF" stroke-linecap="round" stroke-linejoin="round"/>
<path d="M270.785 169.088C261.779 294.637 220.546 297.177 167.75 293.05C112.577 288.643 85.3077 209.707 43.8479 149.907C2.76031 90.6105 76.6453 66.5574 139.244 66.3705C192.16 66.2659 279.52 44.2519 270.785 169.088Z" stroke="#6780FF" stroke-linecap="round" stroke-linejoin="round"/>
<path d="M269.318 169.075C260.329 290.243 219.357 294.999 167.392 291.107C113.171 286.93 90.9353 209.102 46.639 151.001C2.75906 93.4203 76.0377 63.7274 137.211 63.5719C189.322 63.4968 278.011 48.8402 269.318 169.075Z" stroke="#6780FF" stroke-linecap="round" stroke-linejoin="round"/>
<path d="M267.849 169.061C258.87 285.849 218.174 292.82 167.005 289.164C113.733 285.268 96.5322 208.511 49.4069 152.103C2.7494 96.2299 75.4217 60.8971 135.177 60.7731C186.475 60.7275 276.508 53.4284 267.849 169.061Z" stroke="#6780FF" stroke-linecap="round" stroke-linejoin="round"/>
<path d="M266.379 169.048C257.417 281.426 216.981 290.611 166.615 287.191C114.302 283.548 102.135 207.883 52.1729 153.167C2.745 99.0397 74.811 58.0596 133.148 57.9597C183.633 57.9584 274.995 58.0239 266.379 169.048Z" stroke="#6780FF" stroke-linecap="round" stroke-linejoin="round"/>
<path d="M264.91 169.035C255.958 277.062 215.79 288.462 166.227 285.278C114.864 281.864 107.739 207.314 54.9332 154.291C2.74268 101.85 74.1951 55.2148 131.121 55.1832C180.794 55.1894 273.493 62.6123 264.91 169.035Z" stroke="#6780FF" stroke-linecap="round" stroke-linejoin="round"/>
<path d="M263.438 169.022C254.497 272.668 214.604 286.283 165.844 283.335C115.431 280.195 113.362 206.723 57.6982 155.386C2.76683 104.682 73.5758 52.429 129.091 52.4142C177.951 52.4203 271.987 67.2007 263.438 169.022Z" stroke="#6780FF" stroke-linecap="round" stroke-linejoin="round"/>
<path d="M261.971 169.008C253.047 268.274 213.415 284.104 165.458 281.392C116.003 278.504 118.953 206.125 60.4675 156.48C2.7442 107.454 72.9689 49.5693 127.066 49.5859C175.113 49.6511 270.478 71.7888 261.971 169.008Z" stroke="#6780FF" stroke-linecap="round" stroke-linejoin="round"/>
<path d="M260.502 168.995C251.588 263.88 212.217 281.925 165.07 279.449C116.565 276.798 124.558 205.519 63.2351 157.582C2.74177 110.257 72.3527 46.7318 125.031 46.8241C172.274 46.882 268.975 76.3845 260.502 168.995Z" stroke="#6780FF" stroke-linecap="round" stroke-linejoin="round"/>
<path d="M259.039 168.982C250.135 259.457 211.04 279.716 164.666 277.476C117.126 275.092 130.257 204.759 66.0384 158.64C2.82746 112.927 71.7348 43.9018 123.002 43.9887C169.432 44.1204 267.463 80.9729 259.039 168.982Z" stroke="#6780FF" stroke-linecap="round" stroke-linejoin="round"/>
<path d="M257.571 168.968C248.669 255.092 209.849 277.567 164.292 275.563C117.689 273.431 135.846 204.198 68.7614 159.77C2.81752 115.737 71.1259 41.0717 121.012 41.1904C166.592 41.3513 265.96 85.5612 257.571 168.968Z" stroke="#6780FF" stroke-linecap="round" stroke-linejoin="round"/>
<path d="M256.099 168.955C247.237 250.736 208.663 275.388 163.91 273.583C118.256 271.695 141.441 203.562 71.5344 160.828C2.79791 118.539 70.5074 38.2195 118.946 38.3988C163.75 38.5823 264.448 90.12 256.099 168.955Z" stroke="#6780FF" stroke-linecap="round" stroke-linejoin="round"/>
<path d="M254.632 168.942C245.765 246.298 207.473 273.239 163.523 271.676C118.827 270.049 147.039 203.001 74.2955 161.959C2.78921 121.349 69.8996 35.4114 116.912 35.6C160.941 35.8133 262.945 94.745 254.632 168.942Z" stroke="#6780FF" stroke-linecap="round" stroke-linejoin="round"/>
<path d="M253.162 168.929C244.306 241.859 206.289 271.015 163.142 269.704C119.389 268.328 152.627 202.373 77.0626 163.024C2.77852 124.151 69.2825 32.5739 114.884 32.8014C158.071 33.0439 261.434 99.3332 253.162 168.929Z" stroke="#6780FF" stroke-linecap="round" stroke-linejoin="round"/>
<path d="M251.69 168.915C242.851 237.517 205.095 268.859 162.75 267.79C119.926 266.666 158.221 201.804 79.8272 164.148C2.75837 126.961 68.6782 29.7438 112.854 30.0027C155.228 30.2748 259.928 103.922 251.69 168.915Z" stroke="#6780FF" stroke-linecap="round" stroke-linejoin="round"/>
<path d="M250.222 168.902C241.392 233.094 203.905 266.65 162.363 265.818C120.519 264.953 163.818 201.183 82.5952 165.213C2.78533 129.793 68.0547 26.9137 110.798 27.2039C152.389 27.5058 258.418 108.502 250.222 168.902Z" stroke="#6780FF" stroke-linecap="round" stroke-linejoin="round"/>
<path d="M248.752 168.889C239.94 228.73 202.72 264.501 161.974 263.904C121.087 263.291 169.406 200.614 85.3618 166.336C2.73037 132.595 67.4447 24.1131 108.799 24.4349C149.548 24.7366 256.914 113.105 248.752 168.889Z" stroke="#6780FF" stroke-linecap="round" stroke-linejoin="round"/>
<path d="M247.288 168.876C238.479 224.336 201.527 262.322 161.591 261.961C121.655 261.6 175.001 199.986 88.1125 167.438C2.73337 135.376 66.8269 21.2241 106.763 21.5848C146.699 21.9455 255.409 117.694 247.288 168.876Z" stroke="#6780FF" stroke-linecap="round" stroke-linejoin="round"/>
<path d="M209.019 35.3996C289.336 31.9287 325.542 83.7911 319.576 141.696C315.949 177.003 279.445 208.688 252.728 257.504C200.847 352.274 97.7667 288.222 100.815 223.793" stroke="#0AB4AA" stroke-miterlimit="10"/>
<path d="M209.021 35.3994C282.841 32.5041 320.882 84.0807 316.873 140.359C314.394 175.19 280.898 206.702 255.556 256.143C207.247 350.385 101.559 287.201 104.432 225.854" stroke="#0AB4AA" stroke-miterlimit="10"/>
<path d="M209.02 35.3996C276.343 33.0577 316.247 84.4003 314.158 139.029C312.836 173.413 282.318 204.702 258.366 254.789C213.578 348.451 105.333 286.218 108.082 227.922" stroke="#0AB4AA" stroke-miterlimit="10"/>
<path d="M209.019 35.3995C269.845 33.6553 311.656 84.757 311.415 137.699C311.27 171.659 283.709 202.664 261.154 253.435C219.835 346.45 109.086 285.212 111.69 229.961" stroke="#0AB4AA" stroke-miterlimit="10"/>
<path d="M209.021 35.3994C263.35 34.2382 307.113 85.1363 308.718 136.362C309.774 169.927 285.133 200.605 263.996 252.082C226.096 344.397 112.907 284.184 115.343 232.051" stroke="#0AB4AA" stroke-miterlimit="10"/>
<path d="M209.023 35.3996C256.862 34.8139 302.621 85.5383 305.999 135.032C308.269 168.239 286.505 198.515 266.81 250.728C232.269 342.292 116.655 283.208 118.975 234.09" stroke="#0AB4AA" stroke-miterlimit="10"/>
<path d="M209.02 35.3995C250.377 35.3895 298.183 85.9628 303.284 133.695C306.791 166.522 287.858 196.404 269.618 249.375C238.379 340.142 120.428 282.202 122.601 236.188" stroke="#0AB4AA" stroke-miterlimit="10"/>
<path d="M209.022 35.3995C243.867 35.965 293.809 86.41 300.565 132.365C305.337 164.857 289.179 194.262 272.438 248.021C244.426 337.947 124.205 281.204 126.233 238.249" stroke="#0AB4AA" stroke-miterlimit="10"/>
<path d="M209.019 35.3995C237.368 36.5405 289.489 86.8651 297.842 131.027C303.925 163.185 290.466 192.105 275.248 246.66C250.404 335.715 127.978 280.198 129.86 240.317" stroke="#0AB4AA" stroke-miterlimit="10"/>
<path d="M209.022 35.3995C230.881 37.1161 285.285 87.3581 295.124 129.697C302.546 161.528 291.721 189.934 278.061 245.328C256.313 333.475 131.756 279.222 133.492 242.4" stroke="#0AB4AA" stroke-miterlimit="10"/>
<path d="M209.022 35.3995C224.385 37.6918 281.072 87.7921 292.374 128.338C301.181 159.856 292.901 187.717 280.836 243.93C262.124 331.145 135.488 278.171 137.085 244.424" stroke="#0AB4AA" stroke-miterlimit="10"/>
<path d="M209.023 35.3995C217.859 38.2669 276.962 88.249 289.691 127.03C299.933 158.222 294.111 185.538 283.692 242.599C267.928 328.86 139.301 277.195 140.752 246.514" stroke="#0AB4AA" stroke-miterlimit="10"/>
<path d="M209.021 35.3994C211.39 38.8428 272.909 88.7213 286.969 125.722C298.691 156.589 295.237 183.321 286.501 241.274C273.634 326.574 143.075 276.219 144.38 248.605" stroke="#0AB4AA" stroke-miterlimit="10"/>
<path d="M209.023 35.3996C204.895 39.4185 268.927 89.0984 284.287 124.363C297.549 154.868 296.329 181.111 289.351 239.892C279.306 324.221 146.889 275.184 148.048 250.644" stroke="#0AB4AA" stroke-miterlimit="10"/>
<path d="M209.019 35.3994C198.402 39.9939 264.998 89.4832 281.534 123.026C296.372 153.146 297.343 178.9 292.13 238.538C284.834 321.874 150.661 274.2 151.638 252.704" stroke="#0AB4AA" stroke-miterlimit="10"/>
<path d="M209.019 35.3995C191.912 40.5696 261.118 89.8243 278.813 121.696C295.294 151.388 298.315 176.711 294.941 237.154C290.341 319.578 154.399 273.18 155.267 254.772" stroke="#0AB4AA" stroke-miterlimit="10"/>
<path d="M209.023 35.3995C185.412 41.1451 257.271 90.114 276.096 120.359C294.295 149.58 299.24 174.492 297.755 235.823C295.794 317.282 158.171 272.174 158.9 256.841" stroke="#0AB4AA" stroke-miterlimit="10"/>
<path d="M209.022 35.3995C178.915 41.7206 253.48 90.3747 273.375 119.029C293.271 147.683 300.101 172.302 300.574 234.469C301.176 315.008 161.946 271.175 162.53 258.902" stroke="#0AB4AA" stroke-miterlimit="10"/>
<path d="M209.022 35.3995C172.425 42.3036 249.69 90.5323 270.662 117.691C292.35 145.786 300.911 170.134 303.385 233.115C306.513 312.792 165.685 270.169 166.159 260.97" stroke="#0AB4AA" stroke-miterlimit="10"/>
<path d="M209.022 35.3995C165.928 42.8792 245.907 90.6899 267.942 116.362C291.445 143.78 301.661 167.988 306.196 231.754C311.799 310.531 169.497 269.164 169.789 263.031" stroke="#0AB4AA" stroke-miterlimit="10"/>
<path d="M209.022 35.3995C159.432 43.4548 242.126 90.7147 265.221 115.024C290.57 141.707 302.36 165.87 309.007 230.408C317.048 308.359 173.273 268.166 173.419 265.099" stroke="#0AB4AA" stroke-miterlimit="10"/>
<path d="M209.02 35.3995C152.933 44.0304 238.327 90.71 262.498 113.702C289.701 139.56 303.005 163.789 311.824 229.062C322.249 306.23 177.068 267.175 177.068 267.175" stroke="#0AB4AA" stroke-miterlimit="10"/>
<path d="M55.7078 75.7636C167.705 -43.6042 226.422 34.3839 260.68 72.2386C297.409 112.822 305.154 226.774 257.312 281.55C209.471 336.326 127.487 286.528 77.2557 244.458C38.2319 211.767 -57.8695 196.754 55.7078 75.7636Z" stroke="#BA90FF" stroke-linecap="round" stroke-linejoin="round"/>
<path d="M58.1779 74.6945C169.029 -42.1173 225.094 36.7835 259.01 74.082C295.31 114.013 305.844 221.655 260.629 276.75C215.413 331.844 127.234 288.517 76.3183 246.98C37.3893 215.241 -54.9885 193.528 58.1779 74.6945Z" stroke="#BA90FF" stroke-linecap="round" stroke-linejoin="round"/>
<path d="M60.6751 73.6255C170.336 -40.6305 223.772 39.1832 257.323 75.9252C293.2 115.21 306.517 216.491 263.92 271.956C221.323 327.421 126.978 290.477 75.3195 249.485C36.5297 218.699 -52.1099 190.294 60.6751 73.6255Z" stroke="#BA90FF" stroke-linecap="round" stroke-linejoin="round"/>
<path d="M63.1722 72.5492C171.951 -38.8533 222.441 41.5827 255.666 77.7614C291.113 116.431 307.211 211.387 267.248 267.163C227.285 322.939 126.767 292.444 74.3648 251.999C35.6846 222.158 -48.9313 187.358 63.1722 72.5492Z" stroke="#BA90FF" stroke-linecap="round" stroke-linejoin="round"/>
<path d="M65.6719 71.4805C173.349 -37.2771 221.121 44.0046 253.996 79.6049C289.02 117.629 307.901 206.297 270.557 262.37C233.125 318.339 126.559 294.382 73.4423 254.52C34.8571 225.602 -45.9551 184.229 65.6719 71.4805Z" stroke="#BA90FF" stroke-linecap="round" stroke-linejoin="round"/>
<path d="M68.1691 70.4116C174.736 -35.7011 219.783 46.382 252.324 81.4482C286.926 118.79 308.626 201.141 273.871 257.614C239.058 313.886 126.362 296.364 72.4432 257.07C34.0346 229.038 -42.996 181.085 68.1691 70.4116Z" stroke="#BA90FF" stroke-linecap="round" stroke-linejoin="round"/>
<path d="M70.6707 69.3426C176.136 -34.1325 218.465 48.7815 250.656 83.2841C284.828 119.98 309.281 195.992 277.189 252.784C244.98 309.36 126.186 298.265 71.4933 259.547C33.2313 232.468 -40.0327 177.947 70.6707 69.3426Z" stroke="#BA90FF" stroke-linecap="round" stroke-linejoin="round"/>
<path d="M73.1677 68.2737C177.523 -32.5564 217.142 51.1886 248.983 85.1276C282.763 121.171 309.969 190.829 280.495 247.99C250.891 304.863 125.997 300.195 70.5164 262.06C32.4309 235.882 -37.0812 174.803 73.1677 68.2737Z" stroke="#BA90FF" stroke-linecap="round" stroke-linejoin="round"/>
<path d="M75.6655 67.1974C178.897 -31.0027 215.812 53.5881 247.312 86.9635C280.632 122.369 310.671 185.732 283.802 243.19C256.809 300.374 125.839 302.111 69.5551 264.574C31.6461 239.29 -34.1363 171.651 75.6655 67.1974Z" stroke="#BA90FF" stroke-linecap="round" stroke-linejoin="round"/>
<path d="M78.1633 66.1286C180.263 -29.4489 214.49 55.9879 245.603 88.8067C278.523 123.559 311.426 180.65 287.087 238.396C262.823 295.937 125.658 304.049 68.5641 267.095C30.8688 242.69 -31.1987 168.499 78.1633 66.1286Z" stroke="#BA90FF" stroke-linecap="round" stroke-linejoin="round"/>
<path d="M80.6647 65.0597C181.626 -27.8879 213.172 58.3876 243.972 90.6725C276.44 124.779 312.169 175.539 290.426 233.625C268.782 291.463 125.555 305.944 67.6358 269.631C30.1026 246.076 -28.2649 165.34 80.6647 65.0597Z" stroke="#BA90FF" stroke-linecap="round" stroke-linejoin="round"/>
<path d="M83.1406 63.9906C182.963 -26.3492 211.813 60.7869 242.279 92.4862C274.324 125.962 312.843 170.382 293.719 228.81C274.687 286.943 125.405 307.808 66.6529 272.122C29.348 249.454 -25.3343 162.18 83.1406 63.9906Z" stroke="#BA90FF" stroke-linecap="round" stroke-linejoin="round"/>
<path d="M85.6592 62.9217C184.328 -24.8105 210.512 63.1865 240.621 94.3295C272.243 127.138 313.559 165.241 297.054 224.017C280.633 282.447 125.312 309.688 65.7271 274.635C28.5991 252.817 -22.4201 159.013 85.6592 62.9217Z" stroke="#BA90FF" stroke-linecap="round" stroke-linejoin="round"/>
<path d="M88.1516 61.8454C185.667 -23.2791 209.184 65.5861 238.951 96.1729C270.144 128.336 314.257 160.107 300.341 219.223C286.517 277.95 125.215 311.545 64.7308 277.149C27.8611 256.173 -19.5026 155.839 88.1516 61.8454Z" stroke="#BA90FF" stroke-linecap="round" stroke-linejoin="round"/>
<path d="M90.6501 60.7766C186.997 -21.7552 207.863 67.9858 237.28 98.009C268.058 129.527 314.946 154.966 303.671 214.393C292.466 273.453 125.125 313.388 63.7849 279.67C27.1294 259.515 -16.6231 152.657 90.6501 60.7766Z" stroke="#BA90FF" stroke-linecap="round" stroke-linejoin="round"/>
<path d="M93.1495 59.7076C188.321 -20.2389 206.534 70.4222 235.61 99.8523C265.958 130.717 315.658 149.824 306.994 209.645C298.408 268.971 125.102 315.232 62.8398 282.198C26.4059 262.849 -13.7058 149.468 93.1495 59.7076Z" stroke="#BA90FF" stroke-linecap="round" stroke-linejoin="round"/>
<path d="M95.646 58.6388C189.635 -18.7298 205.204 72.785 233.937 101.696C263.862 131.915 316.322 144.69 310.292 204.844C304.311 264.452 124.98 317.023 61.8552 284.697C25.6798 266.169 -10.8208 146.271 95.646 58.6388Z" stroke="#BA90FF" stroke-linecap="round" stroke-linejoin="round"/>
<path d="M98.1449 57.5625C190.959 -17.2281 203.883 75.1847 232.267 103.532C261.762 133.106 317.012 139.549 313.6 200.043C310.23 259.956 124.942 318.815 60.8949 287.21C24.9708 269.474 -7.94084 143.067 98.1449 57.5625Z" stroke="#BA90FF" stroke-linecap="round" stroke-linejoin="round"/>
<path d="M100.646 56.4936C192.247 -15.7341 202.556 77.5842 230.598 105.375C259.671 134.304 317.696 134.407 316.932 195.25C316.16 255.459 124.892 320.584 59.9516 289.724C24.2642 272.771 -5.0659 139.855 100.646 56.4936Z" stroke="#BA90FF" stroke-linecap="round" stroke-linejoin="round"/>
<path d="M103.159 55.4248C193.556 -14.2474 201.249 79.9913 228.979 107.212C257.622 135.495 318.429 129.266 320.276 190.457C322.108 250.947 124.891 322.332 59.0276 292.238C23.5621 276.061 -2.20856 136.629 103.159 55.4248Z" stroke="#BA90FF" stroke-linecap="round" stroke-linejoin="round"/>
<path d="M105.639 54.3558C194.824 -12.7756 199.917 82.3909 227.253 109.054C255.473 136.685 319.056 124.132 323.537 185.656C327.958 246.457 124.805 324.057 58.0121 294.751C22.8499 279.337 0.646057 133.395 105.639 54.3558Z" stroke="#BA90FF" stroke-linecap="round" stroke-linejoin="round"/>
<path d="M108.141 53.309C196.077 -11.3115 198.584 84.7904 225.585 110.898C253.405 137.883 319.74 118.99 326.869 180.863C333.895 241.961 124.807 325.797 57.0692 297.272C22.1733 282.627 3.52176 130.139 108.141 53.309Z" stroke="#BA90FF" stroke-linecap="round" stroke-linejoin="round"/>
<path d="M110.636 52.2105C197.368 -9.86187 197.252 87.1899 223.911 112.734C251.279 139.073 320.411 113.856 330.159 176.07C339.774 237.463 124.767 327.434 56.0832 299.785C21.4763 285.851 6.31752 126.875 110.636 52.2105Z" stroke="#BA90FF" stroke-linecap="round" stroke-linejoin="round"/>
<path d="M113.138 51.1416C198.629 -8.42713 195.905 89.5893 222.266 114.577C249.211 140.264 320.985 108.743 333.492 171.277C345.556 232.995 124.763 329.079 55.141 302.299C20.7859 289.097 9.14236 123.597 113.138 51.1416Z" stroke="#BA90FF" stroke-linecap="round" stroke-linejoin="round"/>
<path d="M115.634 50.0728C199.883 -6.99974 194.602 91.9892 220.562 116.42C247.085 141.462 321.649 103.609 336.797 166.483C351.487 228.498 124.768 330.701 54.1702 304.79C20.0965 292.329 11.9535 120.289 115.634 50.0728Z" stroke="#BA90FF" stroke-linecap="round" stroke-linejoin="round"/>
<path d="M118.135 48.9743C201.129 -5.58733 193.277 94.3592 218.894 118.227C244.995 142.623 322.341 98.4527 340.093 161.661C357.395 223.979 124.764 332.287 53.1976 307.303C19.413 295.545 14.763 116.988 118.135 48.9743Z" stroke="#BA90FF" stroke-linecap="round" stroke-linejoin="round"/>
<path d="M120.631 47.9348C202.34 -4.19001 191.953 96.7882 217.221 120.1C242.892 143.85 323.027 93.3481 343.405 156.897C363.304 219.519 124.77 333.843 52.2343 309.876C18.7245 298.754 17.5529 113.658 120.631 47.9348Z" stroke="#BA90FF" stroke-linecap="round" stroke-linejoin="round"/>
<path d="M123.13 46.8586C203.604 -2.80678 190.645 99.1881 215.55 121.936C240.798 145.026 323.679 88.2138 346.734 152.096C369.223 215.022 124.778 335.37 51.2732 312.389C18.0304 301.956 20.3375 110.298 123.13 46.8586Z" stroke="#BA90FF" stroke-linecap="round" stroke-linejoin="round"/>
<path d="M125.629 45.7897C204.849 -1.43858 189.296 101.587 213.88 123.779C238.699 146.231 324.399 83.08 350.029 147.303C375.143 210.533 124.788 336.859 50.3142 314.873C17.3458 305.143 23.1168 106.916 125.629 45.7897Z" stroke="#BA90FF" stroke-linecap="round" stroke-linejoin="round"/>
<path d="M128.126 44.7208C206.076 -0.0925963 187.973 103.987 212.208 125.623C236.603 147.429 325.086 77.9681 353.335 142.51C381.054 206.043 124.839 338.313 49.3445 317.387C16.6803 308.323 25.9153 103.512 128.126 44.7208Z" stroke="#BA90FF" stroke-linecap="round" stroke-linejoin="round"/>
<path d="M130.626 43.6518C207.276 1.23817 186.645 106.379 210.538 127.458C234.431 148.538 325.776 72.8192 356.673 137.717C386.996 201.547 124.842 339.729 48.4069 319.908C15.951 311.488 28.6355 100.077 130.626 43.6518Z" stroke="#BA90FF" stroke-linecap="round" stroke-linejoin="round"/>
<path d="M133.124 42.5756C208.504 2.59161 185.323 108.794 208.837 129.302C232.351 149.81 326.435 67.6777 359.928 132.923C392.893 197.057 124.83 341.115 47.4239 322.421C15.2501 314.653 31.3843 96.6066 133.124 42.5756Z" stroke="#BA90FF" stroke-linecap="round" stroke-linejoin="round"/>
<g clip-path="url(#clip1_3629_3198)">
<path d="M8.53167 79.7552C9.46563 79.7637 10.2296 79.0144 10.238 78.0818C10.2464 77.1492 9.49613 76.3863 8.56217 76.3778C7.62822 76.3694 6.86427 77.1186 6.85584 78.0512C6.84742 78.9839 7.59771 79.7468 8.53167 79.7552Z" fill="white"/>
</g>
<g clip-path="url(#clip2_3629_3198)">
<path d="M32.8012 78.669C33.7352 78.6775 34.4991 77.9283 34.5075 76.9956C34.516 76.063 33.7657 75.3001 32.8317 75.2916C31.8977 75.2832 31.1338 76.0324 31.1254 76.9651C31.1169 77.8977 31.8672 78.6606 32.8012 78.669Z" fill="white"/>
</g>
<g clip-path="url(#clip3_3629_3198)">
<path d="M31.5629 72.6915C32.4969 72.6999 33.2608 71.9507 33.2693 71.0181C33.2777 70.0854 32.5274 69.3225 31.5934 69.3141C30.6595 69.3057 29.8955 70.0549 29.8871 70.9875C29.8787 71.9202 30.629 72.6831 31.5629 72.6915Z" fill="white"/>
</g>
<g clip-path="url(#clip4_3629_3198)">
<path d="M38.891 57.9713C39.825 57.9797 40.589 57.2305 40.5974 56.2979C40.6058 55.3652 39.8555 54.6023 38.9215 54.5939C37.9876 54.5855 37.2236 55.3347 37.2152 56.2673C37.2068 57.2 37.9571 57.9628 38.891 57.9713Z" fill="white"/>
</g>
<g clip-path="url(#clip5_3629_3198)">
<path d="M44.3207 52.5997C45.2547 52.6081 46.0186 51.8589 46.0271 50.9263C46.0355 49.9936 45.2852 49.2307 44.3512 49.2223C43.4173 49.2139 42.6533 49.9631 42.6449 50.8957C42.6365 51.8284 43.3868 52.5913 44.3207 52.5997Z" fill="white"/>
</g>
<g clip-path="url(#clip6_3629_3198)">
<path d="M49.8246 43.7186C50.7586 43.727 51.5225 42.9778 51.531 42.0452C51.5394 41.1125 50.7891 40.3496 49.8551 40.3412C48.9212 40.3328 48.1572 41.082 48.1488 42.0146C48.1404 42.9473 48.8907 43.7102 49.8246 43.7186Z" fill="white"/>
</g>
<g clip-path="url(#clip7_3629_3198)">
<path d="M49.395 28.8619C50.3289 28.8703 51.0929 28.1211 51.1013 27.1885C51.1097 26.2558 50.3594 25.4929 49.4255 25.4845C48.4915 25.4761 47.7275 26.2253 47.7191 27.1579C47.7107 28.0906 48.461 28.8535 49.395 28.8619Z" fill="white"/>
</g>
<g clip-path="url(#clip8_3629_3198)">
<path d="M37.8754 29.0602C38.8094 29.0686 39.5733 28.3194 39.5818 27.3867C39.5902 26.4541 38.8399 25.6912 37.9059 25.6828C36.972 25.6743 36.208 26.4235 36.1996 27.3562C36.1912 28.2888 36.9415 29.0517 37.8754 29.0602Z" fill="white"/>
</g>
<g clip-path="url(#clip9_3629_3198)">
<path d="M31.2111 61.0658C32.1451 61.0742 32.909 60.325 32.9174 59.3923C32.9259 58.4597 32.1756 57.6968 31.2416 57.6884C30.3077 57.6799 29.5437 58.4292 29.5353 59.3618C29.5269 60.2944 30.2772 61.0573 31.2111 61.0658Z" fill="white"/>
</g>
<g clip-path="url(#clip10_3629_3198)">
<path d="M37.0082 84.0169C37.9422 84.0254 38.7061 83.2762 38.7146 82.3435C38.723 81.4109 37.9727 80.648 37.0387 80.6395C36.1048 80.6311 35.3408 81.3803 35.3324 82.313C35.324 83.2456 36.0743 84.0085 37.0082 84.0169Z" fill="white"/>
</g>
<g clip-path="url(#clip11_3629_3198)">
<path d="M16.0434 89.3956C16.9773 89.404 17.7413 88.6548 17.7497 87.7222C17.7581 86.7895 17.0079 86.0266 16.0739 86.0182C15.1399 86.0098 14.376 86.759 14.3676 87.6916C14.3591 88.6243 15.1094 89.3872 16.0434 89.3956Z" fill="white"/>
</g>
<g clip-path="url(#clip12_3629_3198)">
<path d="M7.29339 92.7826C8.22735 92.791 8.9913 92.0418 8.99972 91.1091C9.00815 90.1765 8.25785 89.4136 7.32389 89.4052C6.38994 89.3967 5.62598 90.1459 5.61756 91.0786C5.60914 92.0112 6.35943 92.7741 7.29339 92.7826Z" fill="white"/>
</g>
<g clip-path="url(#clip13_3629_3198)">
<path d="M40.2114 72.6295C41.1453 72.6379 41.9093 71.8887 41.9177 70.9561C41.9261 70.0234 41.1758 69.2605 40.2419 69.2521C39.3079 69.2437 38.544 69.9929 38.5355 70.9255C38.5271 71.8582 39.2774 72.6211 40.2114 72.6295Z" fill="white"/>
</g>
<g clip-path="url(#clip14_3629_3198)">
<path d="M63.1957 68.4049C64.1297 68.4133 64.8936 67.6641 64.9021 66.7315C64.9105 65.7988 64.1602 65.0359 63.2262 65.0275C62.2923 65.019 61.5283 65.7683 61.5199 66.7009C61.5115 67.6335 62.2618 68.3964 63.1957 68.4049Z" fill="white"/>
</g>
<g clip-path="url(#clip15_3629_3198)">
<path d="M76.0317 65.0326C76.9656 65.041 77.7296 64.2918 77.738 63.3591C77.7464 62.4265 76.9961 61.6636 76.0622 61.6552C75.1282 61.6467 74.3643 62.3959 74.3558 63.3286C74.3474 64.2612 75.0977 65.0241 76.0317 65.0326Z" fill="white"/>
</g>
<g clip-path="url(#clip16_3629_3198)">
<path d="M82.9457 65.8399C83.8797 65.8484 84.6436 65.0992 84.6521 64.1665C84.6605 63.2339 83.9102 62.471 82.9762 62.4625C82.0423 62.4541 81.2783 63.2033 81.2699 64.136C81.2615 65.0686 82.0118 65.8315 82.9457 65.8399Z" fill="white"/>
</g>
<g clip-path="url(#clip17_3629_3198)">
<path d="M89.8207 59.213C90.7547 59.2214 91.5186 58.4722 91.5271 57.5396C91.5355 56.6069 90.7852 55.844 89.8512 55.8356C88.9173 55.8272 88.1533 56.5764 88.1449 57.509C88.1365 58.4417 88.8868 59.2045 89.8207 59.213Z" fill="white"/>
</g>
<g clip-path="url(#clip18_3629_3198)">
<path d="M94.1489 72.3866C95.0828 72.395 95.8468 71.6458 95.8552 70.7131C95.8636 69.7805 95.1133 69.0176 94.1794 69.0092C93.2454 69.0007 92.4815 69.75 92.473 70.6826C92.4646 71.6152 93.2149 72.3781 94.1489 72.3866Z" fill="white"/>
</g>
<g clip-path="url(#clip19_3629_3198)">
<path d="M75.4457 83.5528C76.3797 83.5613 77.1436 82.812 77.1521 81.8794C77.1605 80.9468 76.4102 80.1839 75.4762 80.1754C74.5423 80.167 73.7783 80.9162 73.7699 81.8489C73.7615 82.7815 74.5118 83.5444 75.4457 83.5528Z" fill="white"/>
</g>
<g clip-path="url(#clip20_3629_3198)">
<path d="M64.9653 81.1129C65.8992 81.1213 66.6632 80.3721 66.6716 79.4395C66.68 78.5068 65.9297 77.7439 64.9958 77.7355C64.0618 77.7271 63.2979 78.4763 63.2894 79.4089C63.281 80.3416 64.0313 81.1045 64.9653 81.1129Z" fill="white"/>
</g>
<g clip-path="url(#clip21_3629_3198)">
<path d="M75.0746 53.2538C76.0086 53.2622 76.7725 52.513 76.781 51.5803C76.7894 50.6477 76.0391 49.8848 75.1051 49.8764C74.1712 49.8679 73.4072 50.6171 73.3988 51.5498C73.3904 52.4824 74.1407 53.2453 75.0746 53.2538Z" fill="white"/>
</g>
<g clip-path="url(#clip22_3629_3198)">
<path d="M82.227 49.8963C83.1609 49.9048 83.9249 49.1556 83.9333 48.2229C83.9417 47.2903 83.1914 46.5274 82.2575 46.5189C81.3235 46.5105 80.5596 47.2597 80.5512 48.1924C80.5427 49.125 81.293 49.8879 82.227 49.8963Z" fill="white"/>
</g>
<g clip-path="url(#clip23_3629_3198)">
<path d="M65.3559 59.0804C66.2898 59.0889 67.0538 58.3396 67.0622 57.407C67.0706 56.4743 66.3204 55.7115 65.3864 55.703C64.4524 55.6946 63.6885 56.4438 63.6801 57.3764C63.6716 58.3091 64.4219 59.072 65.3559 59.0804Z" fill="white"/>
</g>
<g clip-path="url(#clip24_3629_3198)">
<path d="M99.891 41.7149C100.825 41.7234 101.589 40.9742 101.597 40.0415C101.606 39.1089 100.856 38.346 99.9215 38.3375C98.9876 38.3291 98.2236 39.0783 98.2152 40.011C98.2068 40.9436 98.9571 41.7065 99.891 41.7149Z" fill="white"/>
</g>
<g clip-path="url(#clip25_3629_3198)">
<path d="M97.3325 36.5811C98.2664 36.5896 99.0304 35.8404 99.0388 34.9077C99.0472 33.9751 98.2969 33.2122 97.363 33.2038C96.429 33.1953 95.665 33.9445 95.6566 34.8772C95.6482 35.8098 96.3985 36.5727 97.3325 36.5811Z" fill="white"/>
</g>
<g clip-path="url(#clip26_3629_3198)">
<path d="M117.204 23.5523C118.138 23.5608 118.901 22.8116 118.91 21.8789C118.918 20.9463 118.168 20.1834 117.234 20.1749C116.3 20.1665 115.536 20.9157 115.528 21.8484C115.519 22.781 116.27 23.5439 117.204 23.5523Z" fill="white"/>
</g>
<g clip-path="url(#clip27_3629_3198)">
<path d="M144.465 23.1422C145.399 23.1506 146.163 22.4014 146.172 21.4688C146.18 20.5361 145.43 19.7732 144.496 19.7648C143.562 19.7563 142.798 20.5056 142.789 21.4382C142.781 22.3709 143.531 23.1337 144.465 23.1422Z" fill="white"/>
</g>
<g clip-path="url(#clip28_3629_3198)">
<path d="M167.684 25.9034C168.618 25.9118 169.382 25.1626 169.39 24.23C169.399 23.2973 168.648 22.5345 167.715 22.526C166.781 22.5176 166.017 23.2668 166.008 24.1994C166 25.1321 166.75 25.895 167.684 25.9034Z" fill="white"/>
</g>
<g clip-path="url(#clip29_3629_3198)">
<path d="M179.118 36.1251C180.052 36.1335 180.816 35.3843 180.824 34.4517C180.832 33.519 180.082 32.7561 179.148 32.7477C178.214 32.7393 177.45 33.4885 177.442 34.4211C177.433 35.3538 178.184 36.1167 179.118 36.1251Z" fill="white"/>
</g>
<g clip-path="url(#clip30_3629_3198)">
<path d="M150.989 11.6742C151.923 11.6826 152.687 10.9334 152.695 10.0007C152.703 9.0681 151.953 8.3052 151.019 8.29677C150.085 8.28833 149.321 9.03755 149.313 9.97019C149.304 10.9028 150.055 11.6657 150.989 11.6742Z" fill="white"/>
</g>
<g clip-path="url(#clip31_3629_3198)">
<path d="M130.7 4.52915C131.634 4.53758 132.398 3.78836 132.406 2.85572C132.414 1.92308 131.664 1.16018 130.73 1.15175C129.796 1.14331 129.032 1.89253 129.024 2.82517C129.015 3.75782 129.766 4.52071 130.7 4.52915Z" fill="white"/>
</g>
<g clip-path="url(#clip32_3629_3198)">
<path d="M96.9301 7.19614C97.8641 7.20457 98.628 6.45536 98.6364 5.52271C98.6449 4.59007 97.8946 3.82718 96.9606 3.81874C96.0267 3.8103 95.2627 4.55952 95.2543 5.49217C95.2459 6.42481 95.9961 7.1877 96.9301 7.19614Z" fill="white"/>
</g>
<g clip-path="url(#clip33_3629_3198)">
<path d="M280.868 249.432C281.802 249.44 282.566 248.691 282.574 247.758C282.582 246.826 281.832 246.063 280.898 246.054C279.964 246.046 279.2 246.795 279.192 247.728C279.183 248.66 279.934 249.423 280.868 249.432Z" fill="white"/>
</g>
<g clip-path="url(#clip34_3629_3198)">
<path d="M276.024 247.692C276.958 247.7 277.722 246.951 277.73 246.018C277.739 245.086 276.988 244.323 276.054 244.314C275.12 244.306 274.356 245.055 274.348 245.988C274.34 246.92 275.09 247.683 276.024 247.692Z" fill="white"/>
</g>
<g clip-path="url(#clip35_3629_3198)">
<path d="M277.856 220.709C278.79 220.718 279.554 219.968 279.562 219.036C279.571 218.103 278.82 217.34 277.886 217.332C276.952 217.323 276.188 218.072 276.18 219.005C276.172 219.938 276.922 220.701 277.856 220.709Z" fill="white"/>
</g>
<g clip-path="url(#clip36_3629_3198)">
<path d="M310.625 207.413C311.559 207.422 312.323 206.672 312.332 205.74C312.34 204.807 311.59 204.044 310.656 204.036C309.722 204.027 308.958 204.777 308.95 205.709C308.941 206.642 309.691 207.405 310.625 207.413Z" fill="white"/>
</g>
<g clip-path="url(#clip37_3629_3198)">
<path d="M328.219 194.784C329.153 194.793 329.917 194.043 329.926 193.111C329.934 192.178 329.184 191.415 328.25 191.407C327.316 191.398 326.552 192.148 326.543 193.08C326.535 194.013 327.285 194.776 328.219 194.784Z" fill="white"/>
</g>
<g clip-path="url(#clip38_3629_3198)">
<path d="M330.747 141.421C331.68 141.429 332.444 140.68 332.453 139.747C332.461 138.815 331.711 138.052 330.777 138.043C329.843 138.035 329.079 138.784 329.071 139.717C329.062 140.649 329.813 141.412 330.747 141.421Z" fill="white"/>
</g>
<g clip-path="url(#clip39_3629_3198)">
<path d="M328.196 104.029C329.13 104.038 329.894 103.289 329.902 102.356C329.91 101.423 329.16 100.66 328.226 100.652C327.292 100.644 326.528 101.393 326.52 102.325C326.511 103.258 327.262 104.021 328.196 104.029Z" fill="white"/>
</g>
<g clip-path="url(#clip40_3629_3198)">
<path d="M327.77 92.5501C328.704 92.5586 329.468 91.8094 329.476 90.8767C329.485 89.9441 328.734 89.1812 327.8 89.1727C326.866 89.1643 326.103 89.9135 326.094 90.8462C326.086 91.7788 326.836 92.5417 327.77 92.5501Z" fill="white"/>
</g>
<g clip-path="url(#clip41_3629_3198)">
<path d="M372.469 123.095C373.403 123.103 374.167 122.354 374.176 121.421C374.184 120.489 373.434 119.726 372.5 119.717C371.566 119.709 370.802 120.458 370.793 121.391C370.785 122.323 371.535 123.086 372.469 123.095Z" fill="white"/>
</g>
<g clip-path="url(#clip42_3629_3198)">
<path d="M372.247 188.567C373.18 188.575 373.944 187.826 373.953 186.893C373.961 185.961 373.211 185.198 372.277 185.189C371.343 185.181 370.579 185.93 370.571 186.863C370.562 187.795 371.313 188.558 372.247 188.567Z" fill="white"/>
</g>
<g clip-path="url(#clip43_3629_3198)">
<path d="M326.934 212.657C327.868 212.665 328.632 211.916 328.64 210.983C328.649 210.051 327.898 209.288 326.965 209.279C326.031 209.271 325.267 210.02 325.258 210.953C325.25 211.885 326 212.648 326.934 212.657Z" fill="white"/>
</g>
<g clip-path="url(#clip44_3629_3198)">
<path d="M329.004 248.465C329.938 248.474 330.702 247.725 330.711 246.792C330.719 245.859 329.969 245.096 329.035 245.088C328.101 245.08 327.337 245.829 327.328 246.761C327.32 247.694 328.07 248.457 329.004 248.465Z" fill="white"/>
</g>
<g clip-path="url(#clip45_3629_3198)">
<path d="M361.657 220.448C362.591 220.457 363.355 219.708 363.363 218.775C363.371 217.842 362.621 217.079 361.687 217.071C360.753 217.063 359.989 217.812 359.981 218.744C359.972 219.677 360.723 220.44 361.657 220.448Z" fill="white"/>
</g>
<g clip-path="url(#clip46_3629_3198)">
<path d="M357.938 174.455C358.872 174.463 359.636 173.714 359.644 172.781C359.653 171.849 358.902 171.086 357.968 171.077C357.034 171.069 356.271 171.818 356.262 172.751C356.254 173.683 357.004 174.446 357.938 174.455Z" fill="white"/>
</g>
<g clip-path="url(#clip47_3629_3198)">
<path d="M330.489 148.668C331.423 148.676 332.187 147.927 332.195 146.994C332.203 146.062 331.453 145.299 330.519 145.29C329.585 145.282 328.821 146.031 328.813 146.964C328.804 147.896 329.555 148.659 330.489 148.668Z" fill="white"/>
</g>
<g clip-path="url(#clip48_3629_3198)">
<path d="M361.391 127.08C362.325 127.089 363.089 126.34 363.097 125.407C363.106 124.474 362.356 123.711 361.422 123.703C360.488 123.695 359.724 124.444 359.715 125.376C359.707 126.309 360.457 127.072 361.391 127.08Z" fill="white"/>
</g>
<g clip-path="url(#clip49_3629_3198)">
<path d="M357.668 197.41C358.602 197.419 359.366 196.669 359.375 195.737C359.383 194.804 358.633 194.041 357.699 194.033C356.765 194.024 356.001 194.774 355.993 195.706C355.984 196.639 356.734 197.402 357.668 197.41Z" fill="white"/>
</g>
<g clip-path="url(#clip50_3629_3198)">
<path d="M321.489 214.038C322.423 214.047 323.187 213.297 323.195 212.365C323.203 211.432 322.453 210.669 321.519 210.661C320.585 210.652 319.821 211.402 319.813 212.334C319.804 213.267 320.555 214.03 321.489 214.038Z" fill="white"/>
</g>
<g clip-path="url(#clip51_3629_3198)">
<path d="M330.762 223.746C331.696 223.754 332.46 223.005 332.468 222.073C332.477 221.14 331.727 220.377 330.793 220.369C329.859 220.36 329.095 221.109 329.086 222.042C329.078 222.975 329.828 223.738 330.762 223.746Z" fill="white"/>
</g>
<g clip-path="url(#clip52_3629_3198)">
<path d="M345.02 132.722C345.954 132.73 346.718 131.981 346.726 131.048C346.735 130.116 345.984 129.353 345.05 129.344C344.116 129.336 343.353 130.085 343.344 131.018C343.336 131.95 344.086 132.713 345.02 132.722Z" fill="white"/>
</g>
<g clip-path="url(#clip53_3629_3198)">
<path d="M329.004 122.776C329.938 122.784 330.702 122.035 330.711 121.103C330.719 120.17 329.969 119.407 329.035 119.399C328.101 119.39 327.337 120.139 327.328 121.072C327.32 122.005 328.07 122.768 329.004 122.776Z" fill="white"/>
</g>
<g clip-path="url(#clip54_3629_3198)">
<path d="M280.211 119.135C281.145 119.143 281.909 118.394 281.918 117.461C281.926 116.529 281.176 115.766 280.242 115.757C279.308 115.749 278.544 116.498 278.536 117.431C278.527 118.363 279.277 119.126 280.211 119.135Z" fill="white"/>
</g>
<g clip-path="url(#clip55_3629_3198)">
<path d="M253.735 124.921C254.669 124.929 255.433 124.18 255.441 123.247C255.45 122.315 254.699 121.552 253.765 121.543C252.831 121.535 252.067 122.284 252.059 123.217C252.051 124.149 252.801 124.912 253.735 124.921Z" fill="white"/>
</g>
<g clip-path="url(#clip56_3629_3198)">
<path d="M244.5 123.672C245.434 123.681 246.198 122.931 246.207 121.999C246.215 121.066 245.465 120.303 244.531 120.295C243.597 120.286 242.833 121.036 242.825 121.968C242.816 122.901 243.566 123.664 244.5 123.672Z" fill="white"/>
</g>
<g clip-path="url(#clip57_3629_3198)">
<path d="M311.735 118.166C312.669 118.174 313.433 117.425 313.441 116.492C313.45 115.56 312.699 114.797 311.765 114.788C310.831 114.78 310.067 115.529 310.059 116.462C310.051 117.394 310.801 118.157 311.735 118.166Z" fill="white"/>
</g>
<g clip-path="url(#clip58_3629_3198)">
<path d="M321.735 86.8392C322.669 86.8476 323.433 86.0984 323.441 85.1658C323.45 84.2331 322.699 83.4702 321.765 83.4618C320.831 83.4534 320.067 84.2026 320.059 85.1352C320.051 86.0679 320.801 86.8308 321.735 86.8392Z" fill="white"/>
</g>
<g clip-path="url(#clip59_3629_3198)">
<path d="M287.914 84.9112C288.848 84.9197 289.612 84.1704 289.621 83.2378C289.629 82.3052 288.879 81.5423 287.945 81.5338C287.011 81.5254 286.247 82.2746 286.239 83.2073C286.23 84.1399 286.981 84.9028 287.914 84.9112Z" fill="white"/>
</g>
<g clip-path="url(#clip60_3629_3198)">
<path d="M274.028 92.3524C274.962 92.3608 275.726 91.6116 275.734 90.679C275.743 89.7463 274.992 88.9834 274.058 88.975C273.124 88.9666 272.36 89.7158 272.352 90.6484C272.344 91.5811 273.094 92.344 274.028 92.3524Z" fill="white"/>
</g>
<g clip-path="url(#clip61_3629_3198)">
<path d="M253.895 98.867C254.829 98.8755 255.593 98.1263 255.601 97.1936C255.61 96.261 254.859 95.4981 253.925 95.4896C252.991 95.4812 252.228 96.2304 252.219 97.1631C252.211 98.0957 252.961 98.8586 253.895 98.867Z" fill="white"/>
</g>
<g clip-path="url(#clip62_3629_3198)">
<path d="M237.832 99.0169C238.766 99.0254 239.53 98.2762 239.539 97.3435C239.547 96.4109 238.797 95.648 237.863 95.6395C236.929 95.6311 236.165 96.3803 236.157 97.313C236.148 98.2456 236.898 99.0085 237.832 99.0169Z" fill="white"/>
</g>
<g clip-path="url(#clip63_3629_3198)">
<path d="M297.731 99.3365C298.665 99.345 299.429 98.5957 299.437 97.6631C299.446 96.7305 298.695 95.9676 297.761 95.9591C296.827 95.9507 296.063 96.6999 296.055 97.6325C296.047 98.5652 296.797 99.3281 297.731 99.3365Z" fill="white"/>
</g>
<g clip-path="url(#clip64_3629_3198)">
<path d="M319.329 99.6349C320.263 99.6433 321.026 98.8941 321.035 97.9614C321.043 97.0288 320.293 96.2659 319.359 96.2575C318.425 96.249 317.661 96.9982 317.653 97.9309C317.644 98.8635 318.395 99.6264 319.329 99.6349Z" fill="white"/>
</g>
<g clip-path="url(#clip65_3629_3198)">
<path d="M309.934 97.2491C310.868 97.2576 311.632 96.5083 311.64 95.5757C311.649 94.643 310.898 93.8802 309.965 93.8717C309.031 93.8633 308.267 94.6125 308.258 95.5451C308.25 96.4778 309 97.2407 309.934 97.2491Z" fill="white"/>
</g>
<g clip-path="url(#clip66_3629_3198)">
<path d="M355.254 106.125C356.188 106.133 356.952 105.384 356.961 104.451C356.969 103.519 356.219 102.756 355.285 102.747C354.351 102.739 353.587 103.488 353.578 104.421C353.57 105.354 354.32 106.116 355.254 106.125Z" fill="white"/>
</g>
<g clip-path="url(#clip67_3629_3198)">
<path d="M352.957 140.08C353.891 140.088 354.655 139.339 354.664 138.407C354.672 137.474 353.922 136.711 352.988 136.703C352.054 136.694 351.29 137.443 351.282 138.376C351.273 139.309 352.023 140.071 352.957 140.08Z" fill="white"/>
</g>
<g clip-path="url(#clip68_3629_3198)">
<path d="M350.102 145.843C351.036 145.852 351.8 145.103 351.808 144.17C351.817 143.237 351.066 142.474 350.132 142.466C349.199 142.458 348.435 143.207 348.426 144.139C348.418 145.072 349.168 145.835 350.102 145.843Z" fill="white"/>
</g>
<g clip-path="url(#clip69_3629_3198)">
<path d="M343.012 175.161C343.946 175.169 344.71 174.42 344.718 173.487C344.727 172.555 343.977 171.792 343.043 171.783C342.109 171.775 341.345 172.524 341.336 173.457C341.328 174.389 342.078 175.152 343.012 175.161Z" fill="white"/>
</g>
<g clip-path="url(#clip70_3629_3198)">
<path d="M331.051 178.12C331.985 178.129 332.749 177.38 332.758 176.447C332.766 175.514 332.016 174.751 331.082 174.743C330.148 174.735 329.384 175.484 329.375 176.416C329.367 177.349 330.117 178.112 331.051 178.12Z" fill="white"/>
</g>
<g clip-path="url(#clip71_3629_3198)">
<path d="M328.36 173.62C329.294 173.628 330.058 172.879 330.066 171.946C330.075 171.014 329.324 170.251 328.39 170.242C327.456 170.234 326.692 170.983 326.684 171.916C326.676 172.848 327.426 173.611 328.36 173.62Z" fill="white"/>
</g>
<g clip-path="url(#clip72_3629_3198)">
<path d="M353.469 155.402C354.403 155.41 355.167 154.661 355.176 153.729C355.184 152.796 354.434 152.033 353.5 152.025C352.566 152.016 351.802 152.765 351.793 153.698C351.785 154.631 352.535 155.394 353.469 155.402Z" fill="white"/>
</g>
<g clip-path="url(#clip73_3629_3198)">
<path d="M370.426 146.3C371.36 146.308 372.124 145.559 372.133 144.626C372.141 143.694 371.391 142.931 370.457 142.923C369.523 142.914 368.759 143.663 368.75 144.596C368.742 145.529 369.492 146.291 370.426 146.3Z" fill="white"/>
</g>
<g clip-path="url(#clip74_3629_3198)">
<path d="M361.93 152.647C362.864 152.655 363.628 151.906 363.636 150.973C363.645 150.041 362.895 149.278 361.961 149.269C361.027 149.261 360.263 150.01 360.254 150.943C360.246 151.875 360.996 152.638 361.93 152.647Z" fill="white"/>
</g>
<g clip-path="url(#clip75_3629_3198)">
<path d="M312.231 169.41C313.165 169.419 313.929 168.67 313.937 167.737C313.946 166.804 313.195 166.042 312.261 166.033C311.327 166.025 310.563 166.774 310.555 167.707C310.547 168.639 311.297 169.402 312.231 169.41Z" fill="white"/>
</g>
<g clip-path="url(#clip76_3629_3198)">
<path d="M294.872 187.079C295.805 187.087 296.569 186.338 296.578 185.405C296.586 184.473 295.836 183.71 294.902 183.701C293.968 183.693 293.204 184.442 293.196 185.375C293.187 186.307 293.938 187.07 294.872 187.079Z" fill="white"/>
</g>
<g clip-path="url(#clip77_3629_3198)">
<path d="M283.024 200.91C283.958 200.919 284.722 200.169 284.73 199.237C284.739 198.304 283.988 197.541 283.054 197.533C282.12 197.524 281.356 198.274 281.348 199.206C281.34 200.139 282.09 200.902 283.024 200.91Z" fill="white"/>
</g>
<g clip-path="url(#clip78_3629_3198)">
<path d="M294.793 207.278C295.727 207.286 296.491 206.537 296.5 205.604C296.508 204.672 295.758 203.909 294.824 203.9C293.89 203.892 293.126 204.641 293.118 205.574C293.109 206.506 293.859 207.269 294.793 207.278Z" fill="white"/>
</g>
<g clip-path="url(#clip79_3629_3198)">
<path d="M349.793 167.486C350.727 167.494 351.491 166.745 351.5 165.812C351.508 164.88 350.758 164.117 349.824 164.108C348.89 164.1 348.126 164.849 348.118 165.782C348.109 166.714 348.859 167.477 349.793 167.486Z" fill="white"/>
</g>
<g clip-path="url(#clip80_3629_3198)">
<path d="M371.668 159.269C372.602 159.277 373.366 158.528 373.375 157.595C373.383 156.663 372.633 155.9 371.699 155.891C370.765 155.883 370.001 156.632 369.993 157.565C369.984 158.497 370.734 159.26 371.668 159.269Z" fill="white"/>
</g>
<g clip-path="url(#clip81_3629_3198)">
<path d="M286.868 287.216C287.802 287.224 288.566 286.475 288.574 285.542C288.582 284.61 287.832 283.847 286.898 283.838C285.964 283.83 285.2 284.579 285.192 285.512C285.183 286.444 285.934 287.207 286.868 287.216Z" fill="white"/>
</g>
<g clip-path="url(#clip82_3629_3198)">
<path d="M289.211 291.927C290.145 291.936 290.909 291.187 290.918 290.254C290.926 289.321 290.176 288.558 289.242 288.55C288.308 288.542 287.544 289.291 287.536 290.223C287.527 291.156 288.277 291.919 289.211 291.927Z" fill="white"/>
</g>
<g clip-path="url(#clip83_3629_3198)">
<path d="M288.278 317.834C289.212 317.842 289.976 317.093 289.984 316.16C289.993 315.228 289.242 314.465 288.308 314.456C287.374 314.448 286.61 315.197 286.602 316.13C286.594 317.063 287.344 317.825 288.278 317.834Z" fill="white"/>
</g>
<g clip-path="url(#clip84_3629_3198)">
<path d="M281.879 337.548C282.813 337.556 283.577 336.807 283.586 335.875C283.594 334.942 282.844 334.179 281.91 334.171C280.976 334.162 280.212 334.911 280.203 335.844C280.195 336.777 280.945 337.54 281.879 337.548Z" fill="white"/>
</g>
<g clip-path="url(#clip85_3629_3198)">
<path d="M262.731 351.439C263.665 351.447 264.429 350.698 264.437 349.765C264.446 348.833 263.695 348.07 262.761 348.061C261.827 348.053 261.063 348.802 261.055 349.735C261.047 350.667 261.797 351.43 262.731 351.439Z" fill="white"/>
</g>
<g clip-path="url(#clip86_3629_3198)">
<path d="M239.727 358.488C240.661 358.496 241.425 357.747 241.433 356.814C241.442 355.882 240.691 355.119 239.757 355.11C238.824 355.102 238.06 355.851 238.051 356.784C238.043 357.717 238.793 358.479 239.727 358.488Z" fill="white"/>
</g>
<g clip-path="url(#clip87_3629_3198)">
<path d="M294.43 54.1581C295.364 54.1665 296.128 53.4173 296.136 52.4846C296.145 51.552 295.395 50.7891 294.461 50.7807C293.527 50.7722 292.763 51.5214 292.754 52.4541C292.746 53.3867 293.496 54.1496 294.43 54.1581Z" fill="white"/>
</g>
<g clip-path="url(#clip88_3629_3198)">
<path d="M293.137 59.1539C294.071 59.1623 294.835 58.4131 294.843 57.4805C294.852 56.5478 294.102 55.7849 293.168 55.7765C292.234 55.7681 291.47 56.5173 291.461 57.4499C291.453 58.3826 292.203 59.1455 293.137 59.1539Z" fill="white"/>
</g>
<g clip-path="url(#clip89_3629_3198)">
<path d="M305.465 56.5145C306.399 56.5229 307.163 55.7737 307.172 54.8411C307.18 53.9084 306.43 53.1455 305.496 53.1371C304.562 53.1287 303.798 53.8779 303.789 54.8105C303.781 55.7432 304.531 56.5061 305.465 56.5145Z" fill="white"/>
</g>
<g clip-path="url(#clip90_3629_3198)">
<path d="M335.086 56.7599C336.02 56.7683 336.784 56.0191 336.793 55.0864C336.801 54.1538 336.051 53.3909 335.117 53.3825C334.183 53.374 333.419 54.1232 333.411 55.0559C333.402 55.9885 334.152 56.7514 335.086 56.7599Z" fill="white"/>
</g>
<g clip-path="url(#clip91_3629_3198)">
<path d="M365.118 59.8631C366.052 59.8716 366.816 59.1223 366.824 58.1897C366.832 57.2571 366.082 56.4942 365.148 56.4857C364.214 56.4773 363.45 57.2265 363.442 58.1592C363.433 59.0918 364.184 59.8547 365.118 59.8631Z" fill="white"/>
</g>
<g clip-path="url(#clip92_3629_3198)">
<path d="M57.2895 295.452C58.2234 295.461 58.9874 294.711 58.9958 293.779C59.0042 292.846 58.2539 292.083 57.32 292.075C56.386 292.066 55.6221 292.816 55.6137 293.748C55.6052 294.681 56.3555 295.444 57.2895 295.452Z" fill="white"/>
</g>
<g clip-path="url(#clip93_3629_3198)">
<path d="M63.27 295.727C64.2039 295.736 64.9679 294.987 64.9763 294.054C64.9847 293.121 64.2344 292.358 63.3005 292.35C62.3665 292.342 61.6025 293.091 61.5941 294.023C61.5857 294.956 62.336 295.719 63.27 295.727Z" fill="white"/>
</g>
<g clip-path="url(#clip94_3629_3198)">
<path d="M81.1098 296.073C82.0438 296.081 82.8077 295.332 82.8161 294.399C82.8246 293.467 82.0743 292.704 81.1403 292.695C80.2063 292.687 79.4424 293.436 79.434 294.369C79.4255 295.302 80.1758 296.064 81.1098 296.073Z" fill="white"/>
</g>
<g clip-path="url(#clip95_3629_3198)">
<path d="M98.2075 296.633C99.1414 296.641 99.9054 295.892 99.9138 294.959C99.9222 294.027 99.1719 293.264 98.238 293.256C97.304 293.247 96.54 293.996 96.5316 294.929C96.5232 295.862 97.2735 296.624 98.2075 296.633Z" fill="white"/>
</g>
<g clip-path="url(#clip96_3629_3198)">
<path d="M120.762 288.555C121.696 288.563 122.46 287.814 122.468 286.881C122.477 285.949 121.727 285.186 120.793 285.177C119.859 285.169 119.095 285.918 119.086 286.851C119.078 287.783 119.828 288.546 120.762 288.555Z" fill="white"/>
</g>
<g clip-path="url(#clip97_3629_3198)">
<path d="M141.407 278.461C142.341 278.469 143.105 277.72 143.113 276.787C143.121 275.855 142.371 275.092 141.437 275.083C140.503 275.075 139.739 275.824 139.731 276.757C139.722 277.689 140.473 278.452 141.407 278.461Z" fill="white"/>
</g>
<g clip-path="url(#clip98_3629_3198)">
<path d="M159.993 268.223C160.927 268.231 161.691 267.482 161.699 266.549C161.707 265.616 160.957 264.854 160.023 264.845C159.089 264.837 158.325 265.586 158.317 266.519C158.308 267.451 159.059 268.214 159.993 268.223Z" fill="white"/>
</g>
<g clip-path="url(#clip99_3629_3198)">
<path d="M176.942 262.254C177.876 262.263 178.64 261.514 178.648 260.581C178.657 259.648 177.906 258.886 176.972 258.877C176.038 258.869 175.274 259.618 175.266 260.551C175.258 261.483 176.008 262.246 176.942 262.254Z" fill="white"/>
</g>
<g clip-path="url(#clip100_3629_3198)">
<path d="M193.809 256.101C194.743 256.11 195.507 255.361 195.515 254.428C195.524 253.495 194.773 252.732 193.84 252.724C192.906 252.716 192.142 253.465 192.133 254.397C192.125 255.33 192.875 256.093 193.809 256.101Z" fill="white"/>
</g>
<g clip-path="url(#clip101_3629_3198)">
<path d="M211.157 254.54C212.091 254.548 212.855 253.799 212.863 252.866C212.871 251.934 212.121 251.171 211.187 251.162C210.253 251.154 209.489 251.903 209.481 252.836C209.472 253.769 210.223 254.531 211.157 254.54Z" fill="white"/>
</g>
<g clip-path="url(#clip102_3629_3198)">
<path d="M164.907 56.9044C165.841 56.9128 166.605 56.1636 166.613 55.231C166.621 54.2983 165.871 53.5354 164.937 53.527C164.003 53.5186 163.239 54.2678 163.231 55.2004C163.222 56.1331 163.973 56.896 164.907 56.9044Z" fill="white"/>
</g>
<g clip-path="url(#clip103_3629_3198)">
<path d="M159.286 57.0379C160.22 57.0464 160.983 56.2972 160.992 55.3645C161 54.4319 160.25 53.669 159.316 53.6605C158.382 53.6521 157.618 54.4013 157.61 55.334C157.601 56.2666 158.352 57.0295 159.286 57.0379Z" fill="white"/>
</g>
<g clip-path="url(#clip104_3629_3198)">
<path d="M161.891 63.566C162.825 63.5744 163.589 62.8252 163.597 61.8926C163.606 60.9599 162.856 60.197 161.922 60.1886C160.988 60.1802 160.224 60.9294 160.215 61.862C160.207 62.7947 160.957 63.5576 161.891 63.566Z" fill="white"/>
</g>
<g clip-path="url(#clip105_3629_3198)">
<path d="M160.825 85.2901C161.759 85.2986 162.523 84.5493 162.531 83.6167C162.539 82.6841 161.789 81.9212 160.855 81.9127C159.921 81.9043 159.157 82.6535 159.149 83.5862C159.14 84.5188 159.891 85.2817 160.825 85.2901Z" fill="white"/>
</g>
<g clip-path="url(#clip106_3629_3198)">
<path d="M165.688 110.209C166.622 110.218 167.386 109.469 167.394 108.536C167.403 107.603 166.652 106.84 165.718 106.832C164.784 106.823 164.021 107.573 164.012 108.505C164.004 109.438 164.754 110.201 165.688 110.209Z" fill="white"/>
</g>
<g clip-path="url(#clip107_3629_3198)">
<path d="M173.5 125.265C174.434 125.274 175.198 124.525 175.207 123.592C175.215 122.659 174.465 121.897 173.531 121.888C172.597 121.88 171.833 122.629 171.825 123.562C171.816 124.494 172.566 125.257 173.5 125.265Z" fill="white"/>
</g>
<g clip-path="url(#clip108_3629_3198)">
<path d="M181.297 138.389C182.231 138.398 182.995 137.648 183.004 136.716C183.012 135.783 182.262 135.02 181.328 135.012C180.394 135.003 179.63 135.753 179.621 136.685C179.613 137.618 180.363 138.381 181.297 138.389Z" fill="white"/>
</g>
<g clip-path="url(#clip109_3629_3198)">
<path d="M189.907 147.649C190.841 147.657 191.605 146.908 191.613 145.975C191.621 145.043 190.871 144.28 189.937 144.271C189.003 144.263 188.239 145.012 188.231 145.945C188.222 146.877 188.973 147.64 189.907 147.649Z" fill="white"/>
</g>
<g clip-path="url(#clip110_3629_3198)">
<path d="M202.899 154.057C203.833 154.065 204.597 153.316 204.605 152.384C204.614 151.451 203.863 150.688 202.929 150.68C201.995 150.671 201.231 151.42 201.223 152.353C201.215 153.286 201.965 154.049 202.899 154.057Z" fill="white"/>
</g>
<g clip-path="url(#clip111_3629_3198)">
<path d="M227.559 158.137C228.493 158.145 229.257 157.396 229.265 156.463C229.274 155.53 228.523 154.768 227.59 154.759C226.656 154.751 225.892 155.5 225.883 156.433C225.875 157.365 226.625 158.128 227.559 158.137Z" fill="white"/>
</g>
</g>
<defs>
<clipPath id="clip0_3629_3198">
<rect width="422.123" height="356.337" fill="white" transform="translate(3.21875) rotate(0.517468)"/>
</clipPath>
<clipPath id="clip1_3629_3198">
<rect width="3.3823" height="3.37754" fill="white" transform="translate(6.87109 76.3625) rotate(0.517468)"/>
</clipPath>
<clipPath id="clip2_3629_3198">
<rect width="3.3823" height="3.37754" fill="white" transform="translate(31.1406 75.2764) rotate(0.517468)"/>
</clipPath>
<clipPath id="clip3_3629_3198">
<rect width="3.3823" height="3.37754" fill="white" transform="translate(29.9023 69.2988) rotate(0.517468)"/>
</clipPath>
<clipPath id="clip4_3629_3198">
<rect width="3.3823" height="3.37754" fill="white" transform="translate(37.2305 54.5786) rotate(0.517468)"/>
</clipPath>
<clipPath id="clip5_3629_3198">
<rect width="3.3823" height="3.37754" fill="white" transform="translate(42.6602 49.207) rotate(0.517468)"/>
</clipPath>
<clipPath id="clip6_3629_3198">
<rect width="3.3823" height="3.37754" fill="white" transform="translate(48.1641 40.3259) rotate(0.517468)"/>
</clipPath>
<clipPath id="clip7_3629_3198">
<rect width="3.3823" height="3.37754" fill="white" transform="translate(47.7344 25.4692) rotate(0.517468)"/>
</clipPath>
<clipPath id="clip8_3629_3198">
<rect width="3.3823" height="3.37754" fill="white" transform="translate(36.2148 25.6675) rotate(0.517468)"/>
</clipPath>
<clipPath id="clip9_3629_3198">
<rect width="3.3823" height="3.37754" fill="white" transform="translate(29.5505 57.6731) rotate(0.517468)"/>
</clipPath>
<clipPath id="clip10_3629_3198">
<rect width="3.3823" height="3.37754" fill="white" transform="translate(35.3477 80.6243) rotate(0.517468)"/>
</clipPath>
<clipPath id="clip11_3629_3198">
<rect width="3.3823" height="3.37754" fill="white" transform="translate(14.3828 86.0029) rotate(0.517468)"/>
</clipPath>
<clipPath id="clip12_3629_3198">
<rect width="3.3823" height="3.37754" fill="white" transform="translate(5.63281 89.3899) rotate(0.517468)"/>
</clipPath>
<clipPath id="clip13_3629_3198">
<rect width="3.3823" height="3.37754" fill="white" transform="translate(38.5508 69.2368) rotate(0.517468)"/>
</clipPath>
<clipPath id="clip14_3629_3198">
<rect width="3.3823" height="3.37754" fill="white" transform="translate(61.5352 65.0122) rotate(0.517468)"/>
</clipPath>
<clipPath id="clip15_3629_3198">
<rect width="3.3823" height="3.37754" fill="white" transform="translate(74.3711 61.6399) rotate(0.517468)"/>
</clipPath>
<clipPath id="clip16_3629_3198">
<rect width="3.3823" height="3.37754" fill="white" transform="translate(81.2852 62.4473) rotate(0.517468)"/>
</clipPath>
<clipPath id="clip17_3629_3198">
<rect width="3.3823" height="3.37754" fill="white" transform="translate(88.1602 55.8203) rotate(0.517468)"/>
</clipPath>
<clipPath id="clip18_3629_3198">
<rect width="3.3823" height="3.37754" fill="white" transform="translate(92.4883 68.9939) rotate(0.517468)"/>
</clipPath>
<clipPath id="clip19_3629_3198">
<rect width="3.3823" height="3.37754" fill="white" transform="translate(73.7852 80.1602) rotate(0.517468)"/>
</clipPath>
<clipPath id="clip20_3629_3198">
<rect width="3.3823" height="3.37754" fill="white" transform="translate(63.3047 77.7202) rotate(0.517468)"/>
</clipPath>
<clipPath id="clip21_3629_3198">
<rect width="3.3823" height="3.37754" fill="white" transform="translate(73.4141 49.8611) rotate(0.517468)"/>
</clipPath>
<clipPath id="clip22_3629_3198">
<rect width="3.3823" height="3.37754" fill="white" transform="translate(80.5664 46.5037) rotate(0.517468)"/>
</clipPath>
<clipPath id="clip23_3629_3198">
<rect width="3.3823" height="3.37754" fill="white" transform="translate(63.6953 55.6877) rotate(0.517468)"/>
</clipPath>
<clipPath id="clip24_3629_3198">
<rect width="3.3823" height="3.37754" fill="white" transform="translate(98.2305 38.3223) rotate(0.517468)"/>
</clipPath>
<clipPath id="clip25_3629_3198">
<rect width="3.3823" height="3.37754" fill="white" transform="translate(95.6719 33.1885) rotate(0.517468)"/>
</clipPath>
<clipPath id="clip26_3629_3198">
<rect width="3.3823" height="3.37754" fill="white" transform="translate(115.543 20.1597) rotate(0.517468)"/>
</clipPath>
<clipPath id="clip27_3629_3198">
<rect width="3.3823" height="3.37754" fill="white" transform="translate(142.805 19.7495) rotate(0.517468)"/>
</clipPath>
<clipPath id="clip28_3629_3198">
<rect width="3.3823" height="3.37754" fill="white" transform="translate(166.023 22.5107) rotate(0.517468)"/>
</clipPath>
<clipPath id="clip29_3629_3198">
<rect width="3.3823" height="3.37754" fill="white" transform="translate(177.457 32.7324) rotate(0.517468)"/>
</clipPath>
<clipPath id="clip30_3629_3198">
<rect width="3.3823" height="3.37754" fill="white" transform="translate(149.328 8.28149) rotate(0.517468)"/>
</clipPath>
<clipPath id="clip31_3629_3198">
<rect width="3.3823" height="3.37754" fill="white" transform="translate(129.039 1.13647) rotate(0.517468)"/>
</clipPath>
<clipPath id="clip32_3629_3198">
<rect width="3.3823" height="3.37754" fill="white" transform="translate(95.2695 3.80347) rotate(0.517468)"/>
</clipPath>
<clipPath id="clip33_3629_3198">
<rect width="3.3823" height="3.37754" fill="white" transform="translate(279.207 246.039) rotate(0.517468)"/>
</clipPath>
<clipPath id="clip34_3629_3198">
<rect width="3.3823" height="3.37754" fill="white" transform="translate(274.363 244.299) rotate(0.517468)"/>
</clipPath>
<clipPath id="clip35_3629_3198">
<rect width="3.3823" height="3.37754" fill="white" transform="translate(276.195 217.316) rotate(0.517468)"/>
</clipPath>
<clipPath id="clip36_3629_3198">
<rect width="3.3823" height="3.37754" fill="white" transform="translate(308.965 204.021) rotate(0.517468)"/>
</clipPath>
<clipPath id="clip37_3629_3198">
<rect width="3.3823" height="3.37754" fill="white" transform="translate(326.559 191.392) rotate(0.517468)"/>
</clipPath>
<clipPath id="clip38_3629_3198">
<rect width="3.3823" height="3.37754" fill="white" transform="translate(329.086 138.028) rotate(0.517468)"/>
</clipPath>
<clipPath id="clip39_3629_3198">
<rect width="3.3823" height="3.37754" fill="white" transform="translate(326.535 100.637) rotate(0.517468)"/>
</clipPath>
<clipPath id="clip40_3629_3198">
<rect width="3.3823" height="3.37754" fill="white" transform="translate(326.109 89.1575) rotate(0.517468)"/>
</clipPath>
<clipPath id="clip41_3629_3198">
<rect width="3.3823" height="3.37754" fill="white" transform="translate(370.809 119.702) rotate(0.517468)"/>
</clipPath>
<clipPath id="clip42_3629_3198">
<rect width="3.3823" height="3.37754" fill="white" transform="translate(370.586 185.174) rotate(0.517468)"/>
</clipPath>
<clipPath id="clip43_3629_3198">
<rect width="3.3823" height="3.37754" fill="white" transform="translate(325.273 209.264) rotate(0.517468)"/>
</clipPath>
<clipPath id="clip44_3629_3198">
<rect width="3.3823" height="3.37754" fill="white" transform="translate(327.344 245.073) rotate(0.517468)"/>
</clipPath>
<clipPath id="clip45_3629_3198">
<rect width="3.3823" height="3.37754" fill="white" transform="translate(359.996 217.056) rotate(0.517468)"/>
</clipPath>
<clipPath id="clip46_3629_3198">
<rect width="3.3823" height="3.37754" fill="white" transform="translate(356.277 171.062) rotate(0.517468)"/>
</clipPath>
<clipPath id="clip47_3629_3198">
<rect width="3.3823" height="3.37754" fill="white" transform="translate(328.828 145.275) rotate(0.517468)"/>
</clipPath>
<clipPath id="clip48_3629_3198">
<rect width="3.3823" height="3.37754" fill="white" transform="translate(359.73 123.688) rotate(0.517468)"/>
</clipPath>
<clipPath id="clip49_3629_3198">
<rect width="3.3823" height="3.37754" fill="white" transform="translate(356.008 194.018) rotate(0.517468)"/>
</clipPath>
<clipPath id="clip50_3629_3198">
<rect width="3.3823" height="3.37754" fill="white" transform="translate(319.828 210.646) rotate(0.517468)"/>
</clipPath>
<clipPath id="clip51_3629_3198">
<rect width="3.3823" height="3.37754" fill="white" transform="translate(329.102 220.353) rotate(0.517468)"/>
</clipPath>
<clipPath id="clip52_3629_3198">
<rect width="3.3823" height="3.37754" fill="white" transform="translate(343.359 129.329) rotate(0.517468)"/>
</clipPath>
<clipPath id="clip53_3629_3198">
<rect width="3.3823" height="3.37754" fill="white" transform="translate(327.344 119.383) rotate(0.517468)"/>
</clipPath>
<clipPath id="clip54_3629_3198">
<rect width="3.3823" height="3.37754" fill="white" transform="translate(278.551 115.742) rotate(0.517468)"/>
</clipPath>
<clipPath id="clip55_3629_3198">
<rect width="3.3823" height="3.37754" fill="white" transform="translate(252.074 121.528) rotate(0.517468)"/>
</clipPath>
<clipPath id="clip56_3629_3198">
<rect width="3.3823" height="3.37754" fill="white" transform="translate(242.84 120.28) rotate(0.517468)"/>
</clipPath>
<clipPath id="clip57_3629_3198">
<rect width="3.3823" height="3.37754" fill="white" transform="translate(310.074 114.773) rotate(0.517468)"/>
</clipPath>
<clipPath id="clip58_3629_3198">
<rect width="3.3823" height="3.37754" fill="white" transform="translate(320.074 83.4465) rotate(0.517468)"/>
</clipPath>
<clipPath id="clip59_3629_3198">
<rect width="3.3823" height="3.37754" fill="white" transform="translate(286.254 81.5186) rotate(0.517468)"/>
</clipPath>
<clipPath id="clip60_3629_3198">
<rect width="3.3823" height="3.37754" fill="white" transform="translate(272.367 88.9597) rotate(0.517468)"/>
</clipPath>
<clipPath id="clip61_3629_3198">
<rect width="3.3823" height="3.37754" fill="white" transform="translate(252.234 95.4744) rotate(0.517468)"/>
</clipPath>
<clipPath id="clip62_3629_3198">
<rect width="3.3823" height="3.37754" fill="white" transform="translate(236.172 95.6243) rotate(0.517468)"/>
</clipPath>
<clipPath id="clip63_3629_3198">
<rect width="3.3823" height="3.37754" fill="white" transform="translate(296.07 95.9438) rotate(0.517468)"/>
</clipPath>
<clipPath id="clip64_3629_3198">
<rect width="3.3823" height="3.37754" fill="white" transform="translate(317.668 96.2422) rotate(0.517468)"/>
</clipPath>
<clipPath id="clip65_3629_3198">
<rect width="3.3823" height="3.37754" fill="white" transform="translate(308.273 93.8564) rotate(0.517468)"/>
</clipPath>
<clipPath id="clip66_3629_3198">
<rect width="3.3823" height="3.37754" fill="white" transform="translate(353.594 102.732) rotate(0.517468)"/>
</clipPath>
<clipPath id="clip67_3629_3198">
<rect width="3.3823" height="3.37754" fill="white" transform="translate(351.297 136.687) rotate(0.517468)"/>
</clipPath>
<clipPath id="clip68_3629_3198">
<rect width="3.3823" height="3.37754" fill="white" transform="translate(348.441 142.451) rotate(0.517468)"/>
</clipPath>
<clipPath id="clip69_3629_3198">
<rect width="3.3823" height="3.37754" fill="white" transform="translate(341.352 171.768) rotate(0.517468)"/>
</clipPath>
<clipPath id="clip70_3629_3198">
<rect width="3.3823" height="3.37754" fill="white" transform="translate(329.391 174.728) rotate(0.517468)"/>
</clipPath>
<clipPath id="clip71_3629_3198">
<rect width="3.3823" height="3.37754" fill="white" transform="translate(326.699 170.227) rotate(0.517468)"/>
</clipPath>
<clipPath id="clip72_3629_3198">
<rect width="3.3823" height="3.37754" fill="white" transform="translate(351.809 152.009) rotate(0.517468)"/>
</clipPath>
<clipPath id="clip73_3629_3198">
<rect width="3.3823" height="3.37754" fill="white" transform="translate(368.766 142.907) rotate(0.517468)"/>
</clipPath>
<clipPath id="clip74_3629_3198">
<rect width="3.3823" height="3.37754" fill="white" transform="translate(360.27 149.254) rotate(0.517468)"/>
</clipPath>
<clipPath id="clip75_3629_3198">
<rect width="3.3823" height="3.37754" fill="white" transform="translate(310.57 166.018) rotate(0.517468)"/>
</clipPath>
<clipPath id="clip76_3629_3198">
<rect width="3.3823" height="3.37754" fill="white" transform="translate(293.211 183.686) rotate(0.517468)"/>
</clipPath>
<clipPath id="clip77_3629_3198">
<rect width="3.3823" height="3.37754" fill="white" transform="translate(281.363 197.518) rotate(0.517468)"/>
</clipPath>
<clipPath id="clip78_3629_3198">
<rect width="3.3823" height="3.37754" fill="white" transform="translate(293.133 203.885) rotate(0.517468)"/>
</clipPath>
<clipPath id="clip79_3629_3198">
<rect width="3.3823" height="3.37754" fill="white" transform="translate(348.133 164.093) rotate(0.517468)"/>
</clipPath>
<clipPath id="clip80_3629_3198">
<rect width="3.3823" height="3.37754" fill="white" transform="translate(370.008 155.876) rotate(0.517468)"/>
</clipPath>
<clipPath id="clip81_3629_3198">
<rect width="3.3823" height="3.37754" fill="white" transform="translate(285.207 283.823) rotate(0.517468)"/>
</clipPath>
<clipPath id="clip82_3629_3198">
<rect width="3.3823" height="3.37754" fill="white" transform="translate(287.551 288.535) rotate(0.517468)"/>
</clipPath>
<clipPath id="clip83_3629_3198">
<rect width="3.3823" height="3.37754" fill="white" transform="translate(286.617 314.441) rotate(0.517468)"/>
</clipPath>
<clipPath id="clip84_3629_3198">
<rect width="3.3823" height="3.37754" fill="white" transform="translate(280.219 334.155) rotate(0.517468)"/>
</clipPath>
<clipPath id="clip85_3629_3198">
<rect width="3.3823" height="3.37754" fill="white" transform="translate(261.07 348.046) rotate(0.517468)"/>
</clipPath>
<clipPath id="clip86_3629_3198">
<rect width="3.3823" height="3.37754" fill="white" transform="translate(238.066 355.095) rotate(0.517468)"/>
</clipPath>
<clipPath id="clip87_3629_3198">
<rect width="3.3823" height="3.37754" fill="white" transform="translate(292.77 50.7654) rotate(0.517468)"/>
</clipPath>
<clipPath id="clip88_3629_3198">
<rect width="3.3823" height="3.37754" fill="white" transform="translate(291.477 55.7612) rotate(0.517468)"/>
</clipPath>
<clipPath id="clip89_3629_3198">
<rect width="3.3823" height="3.37754" fill="white" transform="translate(303.805 53.1218) rotate(0.517468)"/>
</clipPath>
<clipPath id="clip90_3629_3198">
<rect width="3.3823" height="3.37754" fill="white" transform="translate(333.426 53.3672) rotate(0.517468)"/>
</clipPath>
<clipPath id="clip91_3629_3198">
<rect width="3.3823" height="3.37754" fill="white" transform="translate(363.457 56.4705) rotate(0.517468)"/>
</clipPath>
<clipPath id="clip92_3629_3198">
<rect width="3.3823" height="3.37754" fill="white" transform="translate(55.6289 292.06) rotate(0.517468)"/>
</clipPath>
<clipPath id="clip93_3629_3198">
<rect width="3.3823" height="3.37754" fill="white" transform="translate(61.6094 292.335) rotate(0.517468)"/>
</clipPath>
<clipPath id="clip94_3629_3198">
<rect width="3.3823" height="3.37754" fill="white" transform="translate(79.4492 292.68) rotate(0.517468)"/>
</clipPath>
<clipPath id="clip95_3629_3198">
<rect width="3.3823" height="3.37754" fill="white" transform="translate(96.5469 293.24) rotate(0.517468)"/>
</clipPath>
<clipPath id="clip96_3629_3198">
<rect width="3.3823" height="3.37754" fill="white" transform="translate(119.102 285.162) rotate(0.517468)"/>
</clipPath>
<clipPath id="clip97_3629_3198">
<rect width="3.3823" height="3.37754" fill="white" transform="translate(139.746 275.068) rotate(0.517468)"/>
</clipPath>
<clipPath id="clip98_3629_3198">
<rect width="3.3823" height="3.37754" fill="white" transform="translate(158.332 264.83) rotate(0.517468)"/>
</clipPath>
<clipPath id="clip99_3629_3198">
<rect width="3.3823" height="3.37754" fill="white" transform="translate(175.281 258.862) rotate(0.517468)"/>
</clipPath>
<clipPath id="clip100_3629_3198">
<rect width="3.3823" height="3.37754" fill="white" transform="translate(192.148 252.709) rotate(0.517468)"/>
</clipPath>
<clipPath id="clip101_3629_3198">
<rect width="3.3823" height="3.37754" fill="white" transform="translate(209.496 251.147) rotate(0.517468)"/>
</clipPath>
<clipPath id="clip102_3629_3198">
<rect width="3.3823" height="3.37754" fill="white" transform="translate(163.246 53.5117) rotate(0.517468)"/>
</clipPath>
<clipPath id="clip103_3629_3198">
<rect width="3.3823" height="3.37754" fill="white" transform="translate(157.625 53.6453) rotate(0.517468)"/>
</clipPath>
<clipPath id="clip104_3629_3198">
<rect width="3.3823" height="3.37754" fill="white" transform="translate(160.23 60.1733) rotate(0.517468)"/>
</clipPath>
<clipPath id="clip105_3629_3198">
<rect width="3.3823" height="3.37754" fill="white" transform="translate(159.164 81.8975) rotate(0.517468)"/>
</clipPath>
<clipPath id="clip106_3629_3198">
<rect width="3.3823" height="3.37754" fill="white" transform="translate(164.027 106.817) rotate(0.517468)"/>
</clipPath>
<clipPath id="clip107_3629_3198">
<rect width="3.3823" height="3.37754" fill="white" transform="translate(171.84 121.873) rotate(0.517468)"/>
</clipPath>
<clipPath id="clip108_3629_3198">
<rect width="3.3823" height="3.37754" fill="white" transform="translate(179.637 134.997) rotate(0.517468)"/>
</clipPath>
<clipPath id="clip109_3629_3198">
<rect width="3.3823" height="3.37754" fill="white" transform="translate(188.246 144.256) rotate(0.517468)"/>
</clipPath>
<clipPath id="clip110_3629_3198">
<rect width="3.3823" height="3.37754" fill="white" transform="translate(201.238 150.664) rotate(0.517468)"/>
</clipPath>
<clipPath id="clip111_3629_3198">
<rect width="3.3823" height="3.37754" fill="white" transform="translate(225.898 154.744) rotate(0.517468)"/>
</clipPath>
</defs>
</svg>
