<svg width="692" height="376" viewBox="0 0 692 376" fill="none" xmlns="http://www.w3.org/2000/svg">
<path d="M233.3 286.394C233.3 286.394 161.721 216.236 161.721 157.459C161.721 121.156 173.987 70.1583 212.807 36.3038C237.052 15.1268 271.687 0.720703 320.176 0.720703C394.352 0.720703 432.306 33.8548 452.366 66.4127C464.055 85.4287 470.116 106.03 476.033 127.351C483.249 153.138 490.32 178.925 497.536 204.712C499.7 212.635 501.865 220.99 499.267 228.77C496.814 236.117 490.464 241.447 485.413 247.21C473.58 260.751 478.053 284.233 478.053 301.233C478.053 316.359 465.787 328.748 450.49 328.748H426.823C411.67 328.748 399.259 340.994 399.259 356.264V375.424" stroke="#6780FF" stroke-linecap="round" stroke-linejoin="round"/>
<path d="M237.485 276.598C232.001 280.055 165.184 212.491 165.328 157.747C165.328 137.291 170.524 114.097 179.76 92.4874C187.12 75.2001 197.366 57.3365 213.384 41.6338C221.033 33.9986 231.568 29.1005 240.371 24.4905C247.731 20.7449 255.235 15.1265 265.625 11.6691C275.294 8.4997 285.829 8.06752 295.21 7.05909C302.714 6.19472 311.084 3.88974 321.619 4.0338C348.172 4.46599 368.232 9.94031 384.828 16.4231C413.834 27.8039 433.461 45.3794 446.882 65.4039C454.675 76.9288 458.283 88.8859 461.89 99.8346C464.488 107.614 468.096 115.105 470.982 123.605C471.992 126.486 472.858 129.367 473.724 132.392C480.362 155.154 484.259 177.195 488.155 198.661C489.454 206.152 490.753 213.931 487.722 221.278C484.836 228.193 478.342 233.235 473.147 238.854C467.23 245.192 464.777 253.836 463.766 262.912C462.756 272.564 463.478 282.936 463.189 291.724C462.901 306.707 451.788 319.24 438.079 320.536C438.079 320.825 429.276 321.113 429.276 321.401C429.276 321.833 416.576 322.265 416.721 322.697C402.867 323.994 391.61 336.527 391.755 351.51C391.755 351.942 391.755 364.187 391.755 364.619C391.755 364.763 391.755 370.526 391.755 370.67" stroke="#6F81FF" stroke-linecap="round" stroke-linejoin="round"/>
<path d="M241.816 266.802C230.848 273.861 168.793 208.601 168.938 158.036C169.082 137.291 175.72 115.538 183.946 96.0895C190.44 80.5309 199.099 62.9554 213.963 46.8205C221.756 38.3209 234.167 34.4313 242.104 30.2535C248.743 26.796 254.804 19.1608 266.06 15.2711C276.595 11.5255 288.14 12.678 296.51 11.6696C303.293 10.8052 311.374 6.7715 322.919 7.05962C349.04 7.92399 366.79 14.4067 381.799 20.3133C407.919 30.5416 427.257 44.8037 441.255 64.252C449.914 76.209 452.223 88.3102 455.542 98.2504C457.851 105.165 462.613 111.504 466.077 119.86C467.231 122.597 468.097 125.334 468.963 128.359C476.035 151.265 477.333 172.442 478.921 192.467C479.498 199.526 479.787 206.873 476.179 213.644C472.86 220.126 466.366 225.024 460.882 230.355C454.676 236.549 451.79 244.761 450.347 253.549C448.759 263.057 448.904 273.141 448.471 281.929C447.894 296.767 437.936 309.588 425.669 312.181C425.669 312.758 417.732 313.334 417.732 313.91C417.732 314.775 406.332 315.639 406.332 316.503C393.921 319.096 383.819 331.774 383.963 346.756C383.963 347.476 383.963 359.001 383.963 359.866C383.963 360.298 383.963 365.628 383.963 365.916" stroke="#7683FF" stroke-linecap="round" stroke-linejoin="round"/>
<path d="M245.999 257.006C229.547 267.522 172.111 204.712 172.4 158.324C172.544 137.147 180.625 117.122 187.985 99.835C193.758 86.0051 200.54 68.7177 214.394 52.1507C222.332 42.6426 236.619 39.7614 243.69 36.1599C249.607 33.1346 254.369 23.4825 266.491 18.8725C277.892 14.5507 290.303 17.2879 297.807 16.4235C303.868 15.7032 311.661 9.65261 324.36 10.3729C350.048 11.5254 365.634 19.1607 378.911 24.3469C402.145 33.4227 421.338 44.2273 435.914 63.0993C445.583 75.4886 446.449 87.8779 449.479 96.6656C451.5 102.86 457.416 107.902 461.457 115.97C462.756 118.563 463.766 121.3 464.632 124.181C471.992 147.087 470.838 167.544 469.972 186.272C469.683 192.899 468.961 199.669 465.065 206.152C461.313 212.203 454.675 216.813 449.046 221.999C442.697 227.905 439.377 235.685 437.213 244.328C434.904 253.692 434.615 263.489 434.038 272.42C433.172 287.115 424.513 300.08 413.546 304.114C413.546 304.978 406.474 305.843 406.474 306.707C406.474 308.004 396.372 309.3 396.372 310.453C385.405 314.342 376.313 327.164 376.457 342.146C376.457 343.299 376.457 353.959 376.457 355.256C376.457 355.832 376.457 360.73 376.457 361.306" stroke="#7E84FF" stroke-linecap="round" stroke-linejoin="round"/>
<path d="M250.328 247.209C228.392 261.183 175.718 200.966 176.151 158.756C176.295 137.291 185.82 118.707 192.314 103.58C197.365 91.479 202.272 74.4798 214.971 57.4806C222.908 46.9641 239.216 45.2354 245.421 42.066C250.616 39.3289 254.08 27.6599 266.924 22.6177C279.19 17.7197 292.611 22.1856 299.105 21.3212C304.3 20.7449 311.949 12.8216 325.803 13.6859C351.058 15.1266 364.479 23.9143 376.024 28.5243C396.372 36.4476 415.277 43.7948 430.43 62.0905C440.964 74.912 440.531 87.4453 443.129 95.0806C445.005 100.555 451.932 104.301 456.406 112.224C457.705 114.673 458.859 117.266 459.869 120.147C467.662 143.053 463.91 162.789 460.735 180.077C459.581 186.271 457.993 192.61 453.519 198.517C449.334 204.135 442.552 208.601 436.779 213.499C430.141 219.117 426.389 226.609 423.791 234.964C420.905 244.04 420.039 253.836 419.317 262.768C418.019 277.318 410.659 290.572 401.134 295.758C401.134 296.91 394.929 298.063 394.929 299.36C394.929 301.088 386.126 302.673 386.126 304.402C376.457 309.588 368.664 322.697 368.808 337.536C368.808 339.12 368.808 349.061 368.808 350.645C368.808 351.366 368.808 355.976 368.808 356.696" stroke="#8586FF" stroke-linecap="round" stroke-linejoin="round"/>
<path d="M254.659 237.413C227.24 254.989 179.328 197.076 179.761 159.044C180.049 137.291 191.017 120.292 196.501 107.326C200.83 96.9536 203.717 80.0985 215.55 62.8111C223.343 50.9981 241.815 50.4218 247.01 47.6847C251.34 45.3797 253.504 31.6939 267.214 26.0755C280.346 20.6011 294.633 26.6517 300.262 25.9314C304.735 25.3552 312.095 15.703 327.104 16.7115C351.925 18.4402 363.037 28.5245 373.139 32.4142C390.601 39.185 409.362 43.0747 424.947 60.9383C436.492 74.1919 434.761 86.8693 436.925 93.4962C438.513 98.1061 446.45 100.699 451.645 108.479C453.088 110.784 454.243 113.377 455.253 116.258C463.479 139.164 456.985 158.324 451.645 174.17C449.625 179.933 447.172 185.695 442.265 191.17C437.647 196.356 430.864 200.534 424.947 205.288C418.165 210.762 413.835 217.821 410.661 225.888C407.197 234.82 405.898 244.328 404.888 253.26C403.301 267.666 397.095 281.064 389.014 287.691C389.014 289.131 383.818 290.716 383.818 292.157C383.818 294.318 376.314 296.334 376.314 298.495C368.088 304.978 361.45 318.232 361.45 333.07C361.45 335.087 361.45 344.163 361.45 346.18C361.45 347.044 361.45 351.366 361.45 352.23" stroke="#8D87FF" stroke-linecap="round" stroke-linejoin="round"/>
<path d="M258.842 227.617C225.938 248.65 182.789 193.187 183.222 159.332C183.511 137.147 195.921 121.732 200.539 110.928C204.147 102.284 205.013 85.4288 215.837 67.9974C223.774 55.1759 244.266 55.8962 248.596 53.5912C252.203 51.7184 253.069 35.8717 267.5 29.8211C281.643 23.7705 296.796 31.4058 301.414 30.8295C305.166 30.3974 312.237 18.7284 328.4 20.169C352.933 21.8977 362.025 33.1345 370.251 36.4479C384.826 42.0663 403.443 42.4985 419.461 59.7859C432.017 73.4717 428.842 86.2932 430.718 91.9115C432.017 95.8012 441.108 97.0977 446.736 104.589C448.324 106.75 449.623 109.199 450.633 112.08C459.147 135.13 450.056 153.426 442.407 167.832C439.521 173.162 436.202 178.348 430.718 183.39C425.522 188.144 418.74 192.178 412.679 196.644C405.752 201.83 400.845 208.601 397.237 216.381C393.197 225.168 391.32 234.532 390.166 243.464C388.29 257.726 383.239 271.412 376.745 279.335C376.745 281.064 372.416 282.937 372.416 284.666C372.416 287.259 366.21 289.708 366.21 292.301C359.427 300.08 353.799 313.622 353.944 328.316C353.944 330.621 353.944 338.977 354.088 341.426C354.088 342.578 354.088 346.468 354.088 347.476" stroke="#9489FF" stroke-linecap="round" stroke-linejoin="round"/>
<path d="M263.172 217.821C224.785 242.455 186.398 189.441 186.975 159.62C187.264 137.147 201.118 123.317 204.87 114.673C207.756 107.758 206.457 91.047 216.559 73.3275C224.496 59.3535 247.009 61.2263 250.473 59.4976C253.359 57.9129 252.926 40.1934 268.079 33.4225C283.087 26.7957 299.106 36.0156 302.858 35.5834C305.889 35.1512 312.671 21.7535 329.989 23.3382C353.8 25.4991 360.727 38.0324 367.366 40.6255C378.911 45.2355 397.671 42.0662 413.979 58.9213C427.544 72.8953 422.926 86.1489 424.369 90.4708C425.379 93.496 435.481 93.6401 441.831 100.987C443.563 103.004 444.861 105.309 446.016 108.19C454.963 131.24 443.13 148.816 433.316 161.925C429.564 166.823 425.235 171.577 419.462 176.187C413.834 180.509 406.907 184.255 400.702 188.576C393.486 193.475 388.147 199.957 383.962 207.449C379.199 215.948 377.035 225.168 375.591 234.244C373.427 248.362 369.675 262.336 364.479 271.556C364.624 273.573 361.016 275.734 361.016 277.75C361.016 280.632 355.965 283.657 355.965 286.538C350.481 295.614 346.152 309.3 346.296 323.994C346.296 326.731 346.296 334.222 346.44 337.104C346.44 338.4 346.44 341.858 346.44 343.154" stroke="#9C8AFF" stroke-linecap="round" stroke-linejoin="round"/>
<path d="M267.358 208.025C223.343 236.117 190.007 185.552 190.44 160.053C190.873 137.291 206.17 124.902 208.912 118.419C211.076 113.233 207.613 96.5217 216.993 78.6581C224.786 63.5316 249.463 66.701 252.061 65.2604C254.226 64.1079 252.35 44.2274 268.368 37.0243C284.243 29.9653 301.272 40.6259 304.014 40.1937C306.323 39.9056 312.672 24.491 331.289 26.3638C354.667 28.8129 359.43 42.4987 364.336 44.5155C372.995 47.973 391.611 41.2021 408.351 57.6251C423.071 72.0312 416.866 85.4289 418.02 88.7424C418.742 91.0473 429.854 89.8948 436.781 97.0979C438.513 98.9707 439.956 101.276 441.11 104.157C450.346 127.207 435.771 144.062 423.937 155.731C419.319 160.197 414.124 164.375 407.774 168.552C401.713 172.442 394.786 176.043 388.292 180.077C380.932 184.831 375.015 190.738 370.253 198.085C364.913 206.44 362.171 215.516 360.584 224.448C358.131 238.422 355.533 252.54 351.781 263.057C351.925 265.362 349.328 267.811 349.328 270.116C349.328 273.429 345.576 276.886 345.576 280.2C341.535 290.716 338.216 304.402 338.36 319.096C338.36 322.266 338.36 329.037 338.504 332.206C338.504 333.647 338.504 336.816 338.504 338.257" stroke="#A38CFF" stroke-linecap="round" stroke-linejoin="round"/>
<path d="M271.686 198.228C222.187 229.778 193.613 181.661 194.046 160.34C194.479 137.146 211.219 126.486 213.095 122.02C214.538 118.563 208.91 101.996 217.424 83.8438C225.073 67.5649 251.915 71.8867 253.647 71.0223C255.09 70.302 251.915 48.4047 268.655 40.6254C285.396 32.9902 303.29 45.2354 305.166 44.9472C306.61 44.8032 312.815 27.3718 332.586 29.6767C355.531 32.2699 357.985 47.3963 361.304 48.6928C367.076 50.9978 385.693 40.7695 402.866 56.7603C418.596 71.4545 411.092 85.1403 411.813 87.4453C412.391 89.03 424.513 86.725 432.017 93.64C433.893 95.3687 435.48 97.5296 436.635 100.411C446.304 123.461 428.986 139.451 414.844 149.968C409.36 154.002 403.299 157.747 396.516 161.349C390.022 164.806 382.951 168.12 376.312 172.009C368.664 176.475 362.314 182.094 357.119 189.153C351.058 197.22 347.883 206.152 346.151 215.228C343.409 229.058 340.667 243.176 339.657 255.277C339.513 257.87 338.07 260.607 338.07 263.2C338.07 266.946 336.049 270.835 335.616 274.581C334.318 286.538 330.854 300.368 330.998 314.918C330.998 318.52 331.143 324.426 331.143 328.028C331.143 329.756 331.143 332.494 331.143 334.078" stroke="#AB8DFF" stroke-linecap="round" stroke-linejoin="round"/>
<path d="M276.016 188.433C221.033 223.584 197.221 177.916 197.654 160.629C198.231 137.147 216.271 127.927 217.281 125.766C218.002 124.037 210.209 107.47 218.002 89.1745C225.362 71.7431 254.513 77.3615 255.379 76.9293C256.101 76.4971 251.627 52.5829 269.233 44.3715C286.839 36.16 305.744 49.9898 306.61 49.8458C307.332 49.7017 313.248 30.3975 334.174 32.9906C356.686 35.7278 356.975 52.1508 358.563 52.727C361.449 53.8795 379.921 40.0496 397.527 55.6082C414.411 70.5906 405.32 84.7086 405.608 85.717C405.897 86.4374 419.029 83.1239 427.111 89.6067C429.131 91.1914 430.719 93.3523 431.873 96.0895C441.831 119.283 421.916 134.41 405.608 143.486C399.114 147.087 392.332 150.257 384.972 153.57C378.045 156.595 370.829 159.62 364.046 163.366C356.254 167.544 349.327 172.874 343.554 179.645C336.916 187.568 333.308 196.212 331.288 205.432C328.401 219.118 327.391 233.668 327.102 246.922C327.102 249.947 326.381 252.828 326.381 255.709C326.381 259.887 325.371 264.065 325.226 268.387C324.649 281.496 322.917 295.614 323.062 310.02C323.062 313.91 323.206 319.096 323.206 322.986C323.206 324.859 323.206 327.164 323.206 329.037" stroke="#B28FFF" stroke-linecap="round" stroke-linejoin="round"/>
<path d="M280.202 178.492C219.735 217.101 200.83 173.882 201.263 160.773C201.985 137.002 221.467 129.223 221.467 129.223C221.467 129.223 211.365 112.8 218.581 94.2163C225.796 75.6324 257.112 82.4033 257.112 82.4033C257.112 82.4033 251.195 56.4722 269.667 47.5404C288.139 38.6086 308.054 54.1673 308.054 54.1673C308.054 54.1673 313.538 32.9902 335.618 36.0155C357.698 39.0408 355.822 56.6163 355.822 56.6163C355.822 56.6163 374.294 39.1849 392.188 54.4554C410.083 69.7259 399.548 84.132 399.548 84.132C399.548 84.132 420.907 77.2171 427.545 92.0554C437.935 115.249 415.134 129.511 396.806 137.435C374.582 146.943 348.029 152.273 330.711 170.281C310.075 191.89 315.414 221.134 315.559 248.218C315.703 271.556 315.991 294.894 316.28 318.232C316.28 320.248 316.28 322.265 316.28 324.282" stroke="#BA90FF" stroke-linecap="round" stroke-linejoin="round"/>
<g clip-path="url(#clip0_1205_569)">
<path d="M483.305 145.67C484.971 145.313 486.033 143.676 485.678 142.012C485.322 140.348 483.683 139.289 482.017 139.645C480.351 140.001 479.288 141.639 479.644 143.302C480 144.966 481.639 146.026 483.305 145.67Z" fill="white"/>
</g>
<g clip-path="url(#clip1_1205_569)">
<path d="M370.305 99.6696C371.971 99.3133 373.033 97.6757 372.678 96.0121C372.322 94.3484 370.683 93.2885 369.017 93.6449C367.351 94.0012 366.288 95.6387 366.644 97.3024C367 98.9661 368.639 100.026 370.305 99.6696Z" fill="white"/>
</g>
<g clip-path="url(#clip2_1205_569)">
<path d="M317.305 99.6696C318.971 99.3133 320.033 97.6757 319.678 96.0121C319.322 94.3484 317.683 93.2885 316.017 93.6449C314.351 94.0012 313.288 95.6387 313.644 97.3024C314 98.9661 315.639 100.026 317.305 99.6696Z" fill="white"/>
</g>
<g clip-path="url(#clip3_1205_569)">
<path d="M294.305 106.67C295.971 106.313 297.033 104.676 296.678 103.012C296.322 101.348 294.683 100.289 293.017 100.645C291.351 101.001 290.288 102.639 290.644 104.302C291 105.966 292.639 107.026 294.305 106.67Z" fill="white"/>
</g>
<g clip-path="url(#clip4_1205_569)">
<path d="M295.305 92.6696C296.971 92.3133 298.033 90.6757 297.678 89.0121C297.322 87.3484 295.683 86.2885 294.017 86.6449C292.351 87.0012 291.288 88.6387 291.644 90.3024C292 91.9661 293.639 93.0259 295.305 92.6696Z" fill="white"/>
</g>
<g clip-path="url(#clip5_1205_569)">
<path d="M272.305 99.6696C273.971 99.3133 275.033 97.6757 274.678 96.0121C274.322 94.3484 272.683 93.2885 271.017 93.6449C269.351 94.0012 268.288 95.6387 268.644 97.3024C269 98.9661 270.639 100.026 272.305 99.6696Z" fill="white"/>
</g>
<g clip-path="url(#clip6_1205_569)">
<path d="M259.305 77.6696C260.971 77.3133 262.033 75.6757 261.678 74.0121C261.322 72.3484 259.683 71.2885 258.017 71.6449C256.351 72.0012 255.288 73.6387 255.644 75.3024C256 76.9661 257.639 78.0259 259.305 77.6696Z" fill="white"/>
</g>
<g clip-path="url(#clip7_1205_569)">
<path d="M237.305 81.6696C238.971 81.3133 240.033 79.6757 239.678 78.0121C239.322 76.3484 237.683 75.2885 236.017 75.6449C234.351 76.0012 233.288 77.6387 233.644 79.3024C234 80.9661 235.639 82.0259 237.305 81.6696Z" fill="white"/>
</g>
<g clip-path="url(#clip8_1205_569)">
<path d="M238.305 65.6696C239.971 65.3133 241.033 63.6757 240.678 62.0121C240.322 60.3484 238.683 59.2885 237.017 59.6449C235.351 60.0012 234.288 61.6387 234.644 63.3024C235 64.9661 236.639 66.0259 238.305 65.6696Z" fill="white"/>
</g>
<g clip-path="url(#clip9_1205_569)">
<path d="M213.305 62.6696C214.971 62.3133 216.033 60.6757 215.678 59.0121C215.322 57.3484 213.683 56.2885 212.017 56.6449C210.351 57.0012 209.288 58.6387 209.644 60.3024C210 61.9661 211.639 63.0259 213.305 62.6696Z" fill="white"/>
</g>
<g clip-path="url(#clip10_1205_569)">
<path d="M217.305 46.6696C218.971 46.3133 220.033 44.6757 219.678 43.0121C219.322 41.3484 217.683 40.2885 216.017 40.6449C214.351 41.0012 213.288 42.6387 213.644 44.3024C214 45.9661 215.639 47.0259 217.305 46.6696Z" fill="white"/>
</g>
<g clip-path="url(#clip11_1205_569)">
<path d="M251.305 102.67C252.971 102.313 254.033 100.676 253.678 99.0121C253.322 97.3484 251.683 96.2885 250.017 96.6449C248.351 97.0012 247.288 98.6387 247.644 100.302C248 101.966 249.639 103.026 251.305 102.67Z" fill="white"/>
</g>
<g clip-path="url(#clip12_1205_569)">
<path d="M260.305 112.67C261.971 112.313 263.033 110.676 262.678 109.012C262.322 107.348 260.683 106.289 259.017 106.645C257.351 107.001 256.288 108.639 256.644 110.302C257 111.966 258.639 113.026 260.305 112.67Z" fill="white"/>
</g>
<g clip-path="url(#clip13_1205_569)">
<path d="M284.305 136.67C285.971 136.313 287.033 134.676 286.678 133.012C286.322 131.348 284.683 130.289 283.017 130.645C281.351 131.001 280.288 132.639 280.644 134.302C281 135.966 282.639 137.026 284.305 136.67Z" fill="white"/>
</g>
<path d="M314.305 122.67C315.971 122.313 317.033 120.676 316.678 119.012C316.322 117.348 314.683 116.289 313.017 116.645C311.351 117.001 310.288 118.639 310.644 120.302C311 121.966 312.639 123.026 314.305 122.67Z" fill="white"/>
<g clip-path="url(#clip14_1205_569)">
<path d="M255.305 298.67C256.971 298.313 258.033 296.676 257.678 295.012C257.322 293.348 255.683 292.289 254.017 292.645C252.351 293.001 251.288 294.639 251.644 296.302C252 297.966 253.639 299.026 255.305 298.67Z" fill="white"/>
</g>
<g clip-path="url(#clip15_1205_569)">
<path d="M174.305 228.67C175.971 228.313 177.033 226.676 176.678 225.012C176.322 223.348 174.683 222.289 173.017 222.645C171.351 223.001 170.288 224.639 170.644 226.302C171 227.966 172.639 229.026 174.305 228.67Z" fill="white"/>
</g>
<g clip-path="url(#clip16_1205_569)">
<path d="M190.305 42.6696C191.971 42.3133 193.033 40.6757 192.678 39.0121C192.322 37.3484 190.683 36.2885 189.017 36.6449C187.351 37.0012 186.288 38.6387 186.644 40.3024C187 41.9661 188.639 43.0259 190.305 42.6696Z" fill="white"/>
</g>
<g clip-path="url(#clip17_1205_569)">
<path d="M171.305 41.6696C172.971 41.3133 174.033 39.6757 173.678 38.0121C173.322 36.3484 171.683 35.2885 170.017 35.6449C168.351 36.0012 167.288 37.6387 167.644 39.3024C168 40.9661 169.639 42.0259 171.305 41.6696Z" fill="white"/>
</g>
<g clip-path="url(#clip18_1205_569)">
<path d="M385.305 112.67C386.971 112.313 388.033 110.676 387.678 109.012C387.322 107.348 385.683 106.289 384.017 106.645C382.351 107.001 381.288 108.639 381.644 110.302C382 111.966 383.639 113.026 385.305 112.67Z" fill="white"/>
</g>
<g clip-path="url(#clip19_1205_569)">
<path d="M493.305 25.6696C494.971 25.3133 496.033 23.6757 495.678 22.0121C495.322 20.3484 493.683 19.2885 492.017 19.6449C490.351 20.0012 489.288 21.6387 489.644 23.3024C490 24.9661 491.639 26.0259 493.305 25.6696Z" fill="white"/>
</g>
<g clip-path="url(#clip20_1205_569)">
<path d="M494.305 166.67C495.971 166.313 497.033 164.676 496.678 163.012C496.322 161.348 494.683 160.289 493.017 160.645C491.351 161.001 490.288 162.639 490.644 164.302C491 165.966 492.639 167.026 494.305 166.67Z" fill="white"/>
</g>
<g clip-path="url(#clip21_1205_569)">
<path d="M428.305 194.67C429.971 194.313 431.033 192.676 430.678 191.012C430.322 189.348 428.683 188.289 427.017 188.645C425.351 189.001 424.288 190.639 424.644 192.302C425 193.966 426.639 195.026 428.305 194.67Z" fill="white"/>
</g>
<g clip-path="url(#clip22_1205_569)">
<path d="M463.305 172.67C464.971 172.313 466.033 170.676 465.678 169.012C465.322 167.348 463.683 166.289 462.017 166.645C460.351 167.001 459.288 168.639 459.644 170.302C460 171.966 461.639 173.026 463.305 172.67Z" fill="white"/>
</g>
<g clip-path="url(#clip23_1205_569)">
<path d="M500.305 132.67C501.971 132.313 503.033 130.676 502.678 129.012C502.322 127.348 500.683 126.289 499.017 126.645C497.351 127.001 496.288 128.639 496.644 130.302C497 131.966 498.639 133.026 500.305 132.67Z" fill="white"/>
</g>
<g clip-path="url(#clip24_1205_569)">
<path d="M610.305 93.6696C611.971 93.3133 613.033 91.6757 612.678 90.0121C612.322 88.3484 610.683 87.2885 609.017 87.6449C607.351 88.0012 606.288 89.6387 606.644 91.3024C607 92.9661 608.639 94.0259 610.305 93.6696Z" fill="white"/>
</g>
<g clip-path="url(#clip25_1205_569)">
<path d="M99.3052 121.67C100.971 121.313 102.033 119.676 101.678 118.012C101.322 116.348 99.6827 115.289 98.0166 115.645C96.3506 116.001 95.2885 117.639 95.6443 119.302C96.0001 120.966 97.6391 122.026 99.3052 121.67Z" fill="white"/>
</g>
<g clip-path="url(#clip26_1205_569)">
<path d="M93.3052 98.6696C94.9712 98.3133 96.0333 96.6757 95.6775 95.0121C95.3217 93.3484 93.6827 92.2885 92.0166 92.6449C90.3506 93.0012 89.2885 94.6387 89.6443 96.3024C90.0001 97.9661 91.6391 99.0259 93.3052 98.6696Z" fill="white"/>
</g>
<g clip-path="url(#clip27_1205_569)">
<path d="M158.305 99.6696C159.971 99.3133 161.033 97.6757 160.678 96.0121C160.322 94.3484 158.683 93.2885 157.017 93.6449C155.351 94.0012 154.288 95.6387 154.644 97.3024C155 98.9661 156.639 100.026 158.305 99.6696Z" fill="white"/>
</g>
<g clip-path="url(#clip28_1205_569)">
<path d="M58.3052 52.6696C59.9712 52.3133 61.0333 50.6757 60.6775 49.0121C60.3217 47.3484 58.6827 46.2885 57.0166 46.6449C55.3506 47.0012 54.2885 48.6387 54.6443 50.3024C55.0001 51.9661 56.6391 53.0259 58.3052 52.6696Z" fill="white"/>
</g>
<g clip-path="url(#clip29_1205_569)">
<path d="M69.3052 95.6696C70.9712 95.3133 72.0333 93.6757 71.6775 92.0121C71.3217 90.3484 69.6827 89.2885 68.0166 89.6449C66.3506 90.0012 65.2885 91.6387 65.6443 93.3024C66.0001 94.9661 67.6391 96.0259 69.3052 95.6696Z" fill="white"/>
</g>
<g clip-path="url(#clip30_1205_569)">
<path d="M136.305 133.67C137.971 133.313 139.033 131.676 138.678 130.012C138.322 128.348 136.683 127.289 135.017 127.645C133.351 128.001 132.288 129.639 132.644 131.302C133 132.966 134.639 134.026 136.305 133.67Z" fill="white"/>
</g>
<g clip-path="url(#clip31_1205_569)">
<path d="M151.305 154.67C152.971 154.313 154.033 152.676 153.678 151.012C153.322 149.348 151.683 148.289 150.017 148.645C148.351 149.001 147.288 150.639 147.644 152.302C148 153.966 149.639 155.026 151.305 154.67Z" fill="white"/>
</g>
<g clip-path="url(#clip32_1205_569)">
<path d="M502.305 43.6696C503.971 43.3133 505.033 41.6757 504.678 40.0121C504.322 38.3484 502.683 37.2885 501.017 37.6449C499.351 38.0012 498.288 39.6387 498.644 41.3024C499 42.9661 500.639 44.0259 502.305 43.6696Z" fill="white"/>
</g>
<g clip-path="url(#clip33_1205_569)">
<path d="M471.305 10.6696C472.971 10.3133 474.033 8.67575 473.678 7.01206C473.322 5.34837 471.683 4.28854 470.017 4.64486C468.351 5.00118 467.288 6.63873 467.644 8.30242C468 9.96611 469.639 11.0259 471.305 10.6696Z" fill="white"/>
</g>
<g clip-path="url(#clip34_1205_569)">
<path d="M507.305 68.6696C508.971 68.3133 510.033 66.6757 509.678 65.0121C509.322 63.3484 507.683 62.2885 506.017 62.6449C504.351 63.0012 503.288 64.6387 503.644 66.3024C504 67.9661 505.639 69.0259 507.305 68.6696Z" fill="white"/>
</g>
<g clip-path="url(#clip35_1205_569)">
<path d="M523.305 56.6696C524.971 56.3133 526.033 54.6757 525.678 53.0121C525.322 51.3484 523.683 50.2885 522.017 50.6449C520.351 51.0012 519.288 52.6387 519.644 54.3024C520 55.9661 521.639 57.0259 523.305 56.6696Z" fill="white"/>
</g>
<g clip-path="url(#clip36_1205_569)">
<path d="M523.305 36.6696C524.971 36.3133 526.033 34.6757 525.678 33.0121C525.322 31.3484 523.683 30.2885 522.017 30.6449C520.351 31.0012 519.288 32.6387 519.644 34.3024C520 35.9661 521.639 37.0259 523.305 36.6696Z" fill="white"/>
</g>
<g clip-path="url(#clip37_1205_569)">
<path d="M514.305 115.67C515.971 115.313 517.033 113.676 516.678 112.012C516.322 110.348 514.683 109.289 513.017 109.645C511.351 110.001 510.288 111.639 510.644 113.302C511 114.966 512.639 116.026 514.305 115.67Z" fill="white"/>
</g>
<g clip-path="url(#clip38_1205_569)">
<path d="M530.305 222.67C531.971 222.313 533.033 220.676 532.678 219.012C532.322 217.348 530.683 216.289 529.017 216.645C527.351 217.001 526.288 218.639 526.644 220.302C527 221.966 528.639 223.026 530.305 222.67Z" fill="white"/>
</g>
<g clip-path="url(#clip39_1205_569)">
<path d="M561.305 200.67C562.971 200.313 564.033 198.676 563.678 197.012C563.322 195.348 561.683 194.289 560.017 194.645C558.351 195.001 557.288 196.639 557.644 198.302C558 199.966 559.639 201.026 561.305 200.67Z" fill="white"/>
</g>
<g clip-path="url(#clip40_1205_569)">
<path d="M522.305 241.67C523.971 241.313 525.033 239.676 524.678 238.012C524.322 236.348 522.683 235.289 521.017 235.645C519.351 236.001 518.288 237.639 518.644 239.302C519 240.966 520.639 242.026 522.305 241.67Z" fill="white"/>
</g>
<g clip-path="url(#clip41_1205_569)">
<path d="M501.305 254.67C502.971 254.313 504.033 252.676 503.678 251.012C503.322 249.348 501.683 248.289 500.017 248.645C498.351 249.001 497.288 250.639 497.644 252.302C498 253.966 499.639 255.026 501.305 254.67Z" fill="white"/>
</g>
<g clip-path="url(#clip42_1205_569)">
<path d="M198.305 276.67C199.971 276.313 201.033 274.676 200.678 273.012C200.322 271.348 198.683 270.289 197.017 270.645C195.351 271.001 194.288 272.639 194.644 274.302C195 275.966 196.639 277.026 198.305 276.67Z" fill="white"/>
</g>
<g clip-path="url(#clip43_1205_569)">
<path d="M526.305 100.67C527.971 100.313 529.033 98.6757 528.678 97.0121C528.322 95.3484 526.683 94.2885 525.017 94.6449C523.351 95.0012 522.288 96.6387 522.644 98.3024C523 99.9661 524.639 101.026 526.305 100.67Z" fill="white"/>
</g>
<g clip-path="url(#clip44_1205_569)">
<path d="M554.305 94.6696C555.971 94.3133 557.033 92.6757 556.678 91.0121C556.322 89.3484 554.683 88.2885 553.017 88.6449C551.351 89.0012 550.288 90.6387 550.644 92.3024C551 93.9661 552.639 95.0259 554.305 94.6696Z" fill="white"/>
</g>
<g clip-path="url(#clip45_1205_569)">
<path d="M524.305 75.6696C525.971 75.3133 527.033 73.6757 526.678 72.0121C526.322 70.3484 524.683 69.2885 523.017 69.6449C521.351 70.0012 520.288 71.6387 520.644 73.3024C521 74.9661 522.639 76.0259 524.305 75.6696Z" fill="white"/>
</g>
<g clip-path="url(#clip46_1205_569)">
<path d="M529.305 64.6696C530.971 64.3133 532.033 62.6757 531.678 61.0121C531.322 59.3484 529.683 58.2885 528.017 58.6449C526.351 59.0012 525.288 60.6387 525.644 62.3024C526 63.9661 527.639 65.0259 529.305 64.6696Z" fill="white"/>
</g>
<g clip-path="url(#clip47_1205_569)">
<path d="M535.305 71.6696C536.971 71.3133 538.033 69.6757 537.678 68.0121C537.322 66.3484 535.683 65.2885 534.017 65.6449C532.351 66.0012 531.288 67.6387 531.644 69.3024C532 70.9661 533.639 72.0259 535.305 71.6696Z" fill="white"/>
</g>
<g clip-path="url(#clip48_1205_569)">
<path d="M508.305 28.6696C509.971 28.3133 511.033 26.6757 510.678 25.0121C510.322 23.3484 508.683 22.2885 507.017 22.6449C505.351 23.0012 504.288 24.6387 504.644 26.3024C505 27.9661 506.639 29.0259 508.305 28.6696Z" fill="white"/>
</g>
<g clip-path="url(#clip49_1205_569)">
<path d="M510.305 90.6696C511.971 90.3133 513.033 88.6757 512.678 87.0121C512.322 85.3484 510.683 84.2885 509.017 84.6449C507.351 85.0012 506.288 86.6387 506.644 88.3024C507 89.9661 508.639 91.0259 510.305 90.6696Z" fill="white"/>
</g>
<g clip-path="url(#clip50_1205_569)">
<path d="M480.305 70.6696C481.971 70.3133 483.033 68.6757 482.678 67.0121C482.322 65.3484 480.683 64.2885 479.017 64.6449C477.351 65.0012 476.288 66.6387 476.644 68.3024C477 69.9661 478.639 71.0259 480.305 70.6696Z" fill="white"/>
</g>
<g clip-path="url(#clip51_1205_569)">
<path d="M526.305 127.67C527.971 127.313 529.033 125.676 528.678 124.012C528.322 122.348 526.683 121.289 525.017 121.645C523.351 122.001 522.288 123.639 522.644 125.302C523 126.966 524.639 128.026 526.305 127.67Z" fill="white"/>
</g>
<g clip-path="url(#clip52_1205_569)">
<path d="M486.305 107.67C487.971 107.313 489.033 105.676 488.678 104.012C488.322 102.348 486.683 101.289 485.017 101.645C483.351 102.001 482.288 103.639 482.644 105.302C483 106.966 484.639 108.026 486.305 107.67Z" fill="white"/>
</g>
<g clip-path="url(#clip53_1205_569)">
<path d="M574.305 127.67C575.971 127.313 577.033 125.676 576.678 124.012C576.322 122.348 574.683 121.289 573.017 121.645C571.351 122.001 570.288 123.639 570.644 125.302C571 126.966 572.639 128.026 574.305 127.67Z" fill="white"/>
</g>
<g clip-path="url(#clip54_1205_569)">
<path d="M519.305 133.67C520.971 133.313 522.033 131.676 521.678 130.012C521.322 128.348 519.683 127.289 518.017 127.645C516.351 128.001 515.288 129.639 515.644 131.302C516 132.966 517.639 134.026 519.305 133.67Z" fill="white"/>
</g>
<g clip-path="url(#clip55_1205_569)">
<path d="M504.305 155.67C505.971 155.313 507.033 153.676 506.678 152.012C506.322 150.348 504.683 149.289 503.017 149.645C501.351 150.001 500.288 151.639 500.644 153.302C501 154.966 502.639 156.026 504.305 155.67Z" fill="white"/>
</g>
<defs>
<clipPath id="clip0_1205_569">
<rect width="6.1697" height="6.16101" fill="white" transform="translate(479 140.29) rotate(-12.0722)"/>
</clipPath>
<clipPath id="clip1_1205_569">
<rect width="6.1697" height="6.16101" fill="white" transform="translate(366 94.29) rotate(-12.0722)"/>
</clipPath>
<clipPath id="clip2_1205_569">
<rect width="6.1697" height="6.16101" fill="white" transform="translate(313 94.29) rotate(-12.0722)"/>
</clipPath>
<clipPath id="clip3_1205_569">
<rect width="6.1697" height="6.16101" fill="white" transform="translate(290 101.29) rotate(-12.0722)"/>
</clipPath>
<clipPath id="clip4_1205_569">
<rect width="6.1697" height="6.16101" fill="white" transform="translate(291 87.29) rotate(-12.0722)"/>
</clipPath>
<clipPath id="clip5_1205_569">
<rect width="6.1697" height="6.16101" fill="white" transform="translate(268 94.29) rotate(-12.0722)"/>
</clipPath>
<clipPath id="clip6_1205_569">
<rect width="6.1697" height="6.16101" fill="white" transform="translate(255 72.29) rotate(-12.0722)"/>
</clipPath>
<clipPath id="clip7_1205_569">
<rect width="6.1697" height="6.16101" fill="white" transform="translate(233 76.29) rotate(-12.0722)"/>
</clipPath>
<clipPath id="clip8_1205_569">
<rect width="6.1697" height="6.16101" fill="white" transform="translate(234 60.29) rotate(-12.0722)"/>
</clipPath>
<clipPath id="clip9_1205_569">
<rect width="6.1697" height="6.16101" fill="white" transform="translate(209 57.29) rotate(-12.0722)"/>
</clipPath>
<clipPath id="clip10_1205_569">
<rect width="6.1697" height="6.16101" fill="white" transform="translate(213 41.29) rotate(-12.0722)"/>
</clipPath>
<clipPath id="clip11_1205_569">
<rect width="6.1697" height="6.16101" fill="white" transform="translate(247 97.29) rotate(-12.0722)"/>
</clipPath>
<clipPath id="clip12_1205_569">
<rect width="6.1697" height="6.16101" fill="white" transform="translate(256 107.29) rotate(-12.0722)"/>
</clipPath>
<clipPath id="clip13_1205_569">
<rect width="6.1697" height="6.16101" fill="white" transform="translate(280 131.29) rotate(-12.0722)"/>
</clipPath>
<clipPath id="clip14_1205_569">
<rect width="6.1697" height="6.16101" fill="white" transform="translate(251 293.29) rotate(-12.0722)"/>
</clipPath>
<clipPath id="clip15_1205_569">
<rect width="6.1697" height="6.16101" fill="white" transform="translate(170 223.29) rotate(-12.0722)"/>
</clipPath>
<clipPath id="clip16_1205_569">
<rect width="6.1697" height="6.16101" fill="white" transform="translate(186 37.29) rotate(-12.0722)"/>
</clipPath>
<clipPath id="clip17_1205_569">
<rect width="6.1697" height="6.16101" fill="white" transform="translate(167 36.29) rotate(-12.0722)"/>
</clipPath>
<clipPath id="clip18_1205_569">
<rect width="6.1697" height="6.16101" fill="white" transform="translate(381 107.29) rotate(-12.0722)"/>
</clipPath>
<clipPath id="clip19_1205_569">
<rect width="6.1697" height="6.16101" fill="white" transform="translate(489 20.29) rotate(-12.0722)"/>
</clipPath>
<clipPath id="clip20_1205_569">
<rect width="6.1697" height="6.16101" fill="white" transform="translate(490 161.29) rotate(-12.0722)"/>
</clipPath>
<clipPath id="clip21_1205_569">
<rect width="6.1697" height="6.16101" fill="white" transform="translate(424 189.29) rotate(-12.0722)"/>
</clipPath>
<clipPath id="clip22_1205_569">
<rect width="6.1697" height="6.16101" fill="white" transform="translate(459 167.29) rotate(-12.0722)"/>
</clipPath>
<clipPath id="clip23_1205_569">
<rect width="6.1697" height="6.16101" fill="white" transform="translate(496 127.29) rotate(-12.0722)"/>
</clipPath>
<clipPath id="clip24_1205_569">
<rect width="6.1697" height="6.16101" fill="white" transform="translate(606 88.29) rotate(-12.0722)"/>
</clipPath>
<clipPath id="clip25_1205_569">
<rect width="6.1697" height="6.16101" fill="white" transform="translate(95 116.29) rotate(-12.0722)"/>
</clipPath>
<clipPath id="clip26_1205_569">
<rect width="6.1697" height="6.16101" fill="white" transform="translate(89 93.29) rotate(-12.0722)"/>
</clipPath>
<clipPath id="clip27_1205_569">
<rect width="6.1697" height="6.16101" fill="white" transform="translate(154 94.29) rotate(-12.0722)"/>
</clipPath>
<clipPath id="clip28_1205_569">
<rect width="6.1697" height="6.16101" fill="white" transform="translate(54 47.29) rotate(-12.0722)"/>
</clipPath>
<clipPath id="clip29_1205_569">
<rect width="6.1697" height="6.16101" fill="white" transform="translate(65 90.29) rotate(-12.0722)"/>
</clipPath>
<clipPath id="clip30_1205_569">
<rect width="6.1697" height="6.16101" fill="white" transform="translate(132 128.29) rotate(-12.0722)"/>
</clipPath>
<clipPath id="clip31_1205_569">
<rect width="6.1697" height="6.16101" fill="white" transform="translate(147 149.29) rotate(-12.0722)"/>
</clipPath>
<clipPath id="clip32_1205_569">
<rect width="6.1697" height="6.16101" fill="white" transform="translate(498 38.29) rotate(-12.0722)"/>
</clipPath>
<clipPath id="clip33_1205_569">
<rect width="6.1697" height="6.16101" fill="white" transform="translate(467 5.29004) rotate(-12.0722)"/>
</clipPath>
<clipPath id="clip34_1205_569">
<rect width="6.1697" height="6.16101" fill="white" transform="translate(503 63.29) rotate(-12.0722)"/>
</clipPath>
<clipPath id="clip35_1205_569">
<rect width="6.1697" height="6.16101" fill="white" transform="translate(519 51.29) rotate(-12.0722)"/>
</clipPath>
<clipPath id="clip36_1205_569">
<rect width="6.1697" height="6.16101" fill="white" transform="translate(519 31.29) rotate(-12.0722)"/>
</clipPath>
<clipPath id="clip37_1205_569">
<rect width="6.1697" height="6.16101" fill="white" transform="translate(510 110.29) rotate(-12.0722)"/>
</clipPath>
<clipPath id="clip38_1205_569">
<rect width="6.1697" height="6.16101" fill="white" transform="translate(526 217.29) rotate(-12.0722)"/>
</clipPath>
<clipPath id="clip39_1205_569">
<rect width="6.1697" height="6.16101" fill="white" transform="translate(557 195.29) rotate(-12.0722)"/>
</clipPath>
<clipPath id="clip40_1205_569">
<rect width="6.1697" height="6.16101" fill="white" transform="translate(518 236.29) rotate(-12.0722)"/>
</clipPath>
<clipPath id="clip41_1205_569">
<rect width="6.1697" height="6.16101" fill="white" transform="translate(497 249.29) rotate(-12.0722)"/>
</clipPath>
<clipPath id="clip42_1205_569">
<rect width="6.1697" height="6.16101" fill="white" transform="translate(194 271.29) rotate(-12.0722)"/>
</clipPath>
<clipPath id="clip43_1205_569">
<rect width="6.1697" height="6.16101" fill="white" transform="translate(522 95.29) rotate(-12.0722)"/>
</clipPath>
<clipPath id="clip44_1205_569">
<rect width="6.1697" height="6.16101" fill="white" transform="translate(550 89.29) rotate(-12.0722)"/>
</clipPath>
<clipPath id="clip45_1205_569">
<rect width="6.1697" height="6.16101" fill="white" transform="translate(520 70.29) rotate(-12.0722)"/>
</clipPath>
<clipPath id="clip46_1205_569">
<rect width="6.1697" height="6.16101" fill="white" transform="translate(525 59.29) rotate(-12.0722)"/>
</clipPath>
<clipPath id="clip47_1205_569">
<rect width="6.1697" height="6.16101" fill="white" transform="translate(531 66.29) rotate(-12.0722)"/>
</clipPath>
<clipPath id="clip48_1205_569">
<rect width="6.1697" height="6.16101" fill="white" transform="translate(504 23.29) rotate(-12.0722)"/>
</clipPath>
<clipPath id="clip49_1205_569">
<rect width="6.1697" height="6.16101" fill="white" transform="translate(506 85.29) rotate(-12.0722)"/>
</clipPath>
<clipPath id="clip50_1205_569">
<rect width="6.1697" height="6.16101" fill="white" transform="translate(476 65.29) rotate(-12.0722)"/>
</clipPath>
<clipPath id="clip51_1205_569">
<rect width="6.1697" height="6.16101" fill="white" transform="translate(522 122.29) rotate(-12.0722)"/>
</clipPath>
<clipPath id="clip52_1205_569">
<rect width="6.1697" height="6.16101" fill="white" transform="translate(482 102.29) rotate(-12.0722)"/>
</clipPath>
<clipPath id="clip53_1205_569">
<rect width="6.1697" height="6.16101" fill="white" transform="translate(570 122.29) rotate(-12.0722)"/>
</clipPath>
<clipPath id="clip54_1205_569">
<rect width="6.1697" height="6.16101" fill="white" transform="translate(515 128.29) rotate(-12.0722)"/>
</clipPath>
<clipPath id="clip55_1205_569">
<rect width="6.1697" height="6.16101" fill="white" transform="translate(500 150.29) rotate(-12.0722)"/>
</clipPath>
</defs>
</svg>
